<?xml version="1.0" encoding="UTF-8" standalone="no"?>
<!DOCTYPE svg PUBLIC "-//W3C//DTD SVG 20010904//EN"
              "http://www.w3.org/TR/2001/REC-SVG-20010904/DTD/svg10.dtd">

<svg xmlns="http://www.w3.org/2000/svg"
     width="33.3333in" height="1.33333in"
     viewBox="0 0 10000 400">
  <path id="exc_path_1"
        fill="none" stroke="black" stroke-width="1"
        d="M 64.17,45.62
           C 62.94,47.62 61.25,51.58 59.11,57.48
             56.96,63.38 54.58,70.28 51.97,78.17
             49.36,86.07 46.64,94.39 43.81,103.12
             40.98,111.87 38.25,120.11 35.64,127.86
             33.04,135.60 30.74,142.31 28.75,147.98
             26.76,153.65 25.30,157.33 24.38,159.02
             23.91,159.02 23.15,158.95 22.08,158.80
             21.00,158.64 19.89,158.37 18.73,157.98
             17.59,157.60 16.59,157.10 15.75,156.48
             14.91,155.87 14.56,155.11 14.72,154.19
             14.72,154.19 47.16,41.72 47.16,41.72
             47.76,41.56 49.05,41.45 51.05,41.38
             53.05,41.30 55.08,41.38 57.16,41.61
             59.23,41.84 60.99,42.26 62.44,42.88
             63.89,43.49 64.47,44.41 64.17,45.62 Z
           M 2.77,190.61
           C 3.52,188.13 4.98,186.08 7.12,184.45
             9.27,182.82 11.49,182.00 13.80,182.00
             16.25,182.00 18.02,182.82 19.09,184.45
             20.16,186.08 20.32,188.13 19.55,190.61
             18.79,192.95 17.33,194.93 15.17,196.56
             13.02,198.19 10.73,199.00 8.28,199.00
             5.98,199.00 4.29,198.19 3.22,196.56
             2.14,194.93 1.99,192.95 2.77,190.61 Z" />
</svg>
