<?xml version="1.0" encoding="UTF-8" standalone="no"?>
<!DOCTYPE svg PUBLIC "-//W3C//DTD SVG 20010904//EN"
              "http://www.w3.org/TR/2001/REC-SVG-20010904/DTD/svg10.dtd">

<svg xmlns="http://www.w3.org/2000/svg"
     width="33.3333in" height="1.33333in"
     viewBox="0 0 10000 400">
  <path id="a_path_1"
        fill="none" stroke="black" stroke-width="1"
        d="M 52.75,212.64
           C 49.07,212.18 46.23,210.69 44.23,208.16
             42.24,205.63 40.98,202.34 40.44,198.28
             39.91,194.21 40.06,189.45 40.91,184.02
             41.75,178.57 43.16,172.70 45.16,166.42
             45.47,165.35 45.77,164.31 46.08,163.31
             46.39,162.31 46.70,161.36 47.00,160.44
             45.77,162.59 44.54,164.50 43.31,166.19
             41.02,169.56 38.72,172.52 36.42,175.05
             34.12,177.58 31.97,179.76 29.98,181.59
             26.45,184.81 23.00,186.58 19.62,186.89
             16.25,187.20 13.26,186.46 10.66,184.70
             8.05,182.95 5.87,180.30 4.11,176.78
             2.34,173.25 1.30,169.26 1.00,164.81
             0.70,159.91 1.24,154.58 2.62,148.83
             4.00,143.08 6.06,137.52 8.81,132.14
             10.81,128.29 13.08,124.66 15.61,121.25
             18.14,117.84 20.90,114.91 23.89,112.44
             26.88,109.96 30.10,108.06 33.55,106.75
             36.99,105.44 40.55,104.86 44.23,105.00
             47.30,105.16 49.91,106.09 52.06,107.80
             54.21,109.50 55.66,111.58 56.44,114.05
             56.89,115.76 57.08,117.58 57.00,119.52
             56.93,121.45 56.54,123.26 55.84,124.97
             55.16,126.67 54.08,128.06 52.62,129.14
             51.18,130.23 49.38,130.84 47.23,131.00
             46.00,131.00 45.00,130.62 44.23,129.84
             43.47,129.06 43.09,128.06 43.09,126.83
             43.09,125.59 43.47,124.54 44.23,123.69
             45.00,122.84 46.00,122.41 47.23,122.41
             48.45,122.41 49.48,122.84 50.33,123.69
             51.17,124.54 51.59,125.59 51.59,126.83
             51.59,126.83 51.38,127.05 51.38,127.05
             51.99,126.75 52.68,126.05 53.44,124.97
             54.82,122.65 55.28,120.09 54.81,117.30
             54.51,115.45 53.82,113.78 52.75,112.31
             51.68,110.84 50.07,109.95 47.92,109.64
             45.16,109.18 42.09,110.58 38.72,113.83
             35.34,117.08 32.05,121.33 28.83,126.58
             25.61,131.83 22.66,137.60 19.97,143.89
             17.29,150.17 15.26,156.11 13.88,161.70
             12.50,167.30 11.96,172.09 12.27,176.08
             12.58,180.07 14.11,182.45 16.88,183.20
             19.94,184.28 23.54,183.25 27.67,180.11
             31.82,176.96 36.34,171.87 41.25,164.81
             43.85,160.82 46.19,157.11 48.27,153.66
             50.34,150.21 51.91,147.48 52.98,145.48
             54.05,142.88 55.02,140.89 55.86,139.52
             56.70,138.13 57.27,137.05 57.58,136.28
             58.80,134.14 60.38,132.64 62.30,131.80
             64.21,130.95 66.13,130.53 68.05,130.53
             69.96,130.53 71.72,130.73 73.33,131.11
             74.94,131.50 75.98,131.77 76.44,131.92
             76.44,131.92 75.98,132.92 75.06,134.91
             74.14,136.90 72.96,139.51 71.50,142.73
             70.04,145.95 68.43,149.67 66.66,153.89
             64.89,158.10 63.17,162.51 61.48,167.11
             56.73,179.98 54.16,189.72 53.78,196.31
             53.39,202.91 54.58,206.82 57.34,208.05
             59.64,208.96 62.94,207.93 67.23,204.94
             71.54,201.95 76.37,197.09 81.73,190.34
             88.17,182.52 93.80,174.82 98.62,167.23
             103.46,159.64 108.25,151.93 113.02,144.11
             113.77,142.58 114.61,141.12 115.53,139.75
             116.46,138.37 117.30,136.98 118.06,135.59
             118.38,134.98 118.91,134.91 119.69,135.38
             120.29,135.68 120.36,136.21 119.91,136.98
             119.91,136.98 114.84,145.27 114.84,145.27
             110.25,153.08 105.65,160.75 101.05,168.27
             96.45,175.78 90.86,183.52 84.27,191.48
             82.12,194.09 79.85,196.73 77.47,199.42
             75.09,202.11 72.60,204.48 70.00,206.55
             67.39,208.62 64.63,210.27 61.72,211.50
             58.80,212.73 55.81,213.11 52.75,212.64 Z" />
</svg>
