<?xml version="1.0" encoding="UTF-8" standalone="no"?>
<!DOCTYPE svg PUBLIC "-//W3C//DTD SVG 20010904//EN"
              "http://www.w3.org/TR/2001/REC-SVG-20010904/DTD/svg10.dtd">

<svg xmlns="http://www.w3.org/2000/svg"
     width="33.3333in" height="1.33333in"
     viewBox="0 0 10000 400">
  <path id="b_path_2"
        fill="none" stroke="black" stroke-width="1"
        d="M 74.12,32.48
           C 69.68,38.15 64.61,47.96 58.94,61.92
             53.27,75.87 47.06,93.66 40.31,115.28
             40.31,115.28 39.59,118.98 39.59,118.98
             39.59,118.98 35.57,130.87 33.95,136.70
             32.35,142.53 30.85,148.12 29.47,153.48
             28.09,158.85 26.83,163.91 25.67,168.67
             24.52,173.42 23.49,177.64 22.58,181.31
             24.11,177.94 25.91,174.22 27.98,170.16
             30.05,166.09 32.12,162.11 34.19,158.20
             36.26,154.29 38.21,150.68 40.05,147.39
             41.89,144.09 43.43,141.52 44.66,139.69
             46.96,136.31 49.26,133.36 51.56,130.83
             53.86,128.30 56.01,126.11 58.00,124.27
             61.53,121.05 64.98,119.29 68.34,118.98
             71.72,118.67 74.71,119.40 77.31,121.17
             79.93,122.93 82.11,125.58 83.88,129.11
             85.63,132.63 86.67,136.62 86.98,141.06
             87.29,145.97 86.74,151.30 85.36,157.05
             83.98,162.80 81.91,168.36 79.16,173.72
             76.85,178.17 74.17,182.27 71.11,186.03
             68.05,189.78 64.75,192.89 61.22,195.34
             66.74,194.12 72.07,191.93 77.20,188.78
             82.34,185.64 87.13,182.03 91.58,177.97
             96.02,173.91 100.09,169.66 103.77,165.22
             107.45,160.77 110.71,156.55 113.55,152.56
             116.38,148.57 118.71,145.09 120.55,142.09
             122.39,139.11 123.70,137.00 124.47,135.77
             124.78,135.15 125.32,135.08 126.08,135.55
             126.69,135.85 126.77,136.39 126.31,137.16
             123.24,142.37 119.36,148.34 114.69,155.09
             110.02,161.84 104.69,168.31 98.70,174.53
             92.72,180.74 86.05,186.11 78.69,190.62
             71.33,195.15 63.36,197.87 54.78,198.80
             52.94,199.40 51.09,199.89 49.25,200.28
             47.41,200.66 45.58,200.78 43.73,200.62
             40.67,200.48 38.07,199.56 35.92,197.88
             33.77,196.19 32.32,194.12 31.55,191.66
             31.09,189.97 30.89,188.17 30.97,186.25
             31.05,184.34 31.44,182.53 32.12,180.84
             32.81,179.16 33.88,177.78 35.34,176.70
             36.80,175.63 38.60,175.02 40.75,174.88
             41.98,174.88 42.97,175.26 43.73,176.03
             44.50,176.79 44.89,177.79 44.89,179.02
             44.89,180.23 44.50,181.27 43.73,182.11
             42.97,182.95 41.98,183.38 40.75,183.38
             39.52,183.38 38.48,182.95 37.64,182.11
             36.80,181.27 36.38,180.23 36.38,179.02
             36.38,179.02 36.61,178.78 36.61,178.78
             35.99,179.09 35.30,179.77 34.55,180.84
             33.16,183.15 32.70,185.68 33.16,188.44
             33.47,190.28 34.16,191.93 35.23,193.39
             36.30,194.84 37.91,195.72 40.06,196.03
             42.82,196.49 45.88,195.11 49.25,191.89
             52.62,188.67 55.92,184.46 59.14,179.25
             62.37,174.03 65.32,168.28 68.00,162.00
             70.69,155.71 72.72,149.77 74.09,144.17
             75.48,138.57 76.02,133.78 75.70,129.80
             75.40,125.81 73.87,123.43 71.11,122.66
             68.05,121.59 64.44,122.62 60.30,125.77
             56.16,128.91 51.64,134.01 46.73,141.06
             45.05,143.51 42.82,147.23 40.06,152.22
             37.30,157.20 34.58,162.38 31.89,167.75
             29.21,173.12 26.72,178.10 24.42,182.70
             22.12,187.30 20.58,190.44 19.81,192.12
             19.35,193.34 19.12,194.03 19.12,194.19
             17.91,196.03 15.77,197.53 12.70,198.69
             9.63,199.83 5.64,199.56 0.73,197.88
             0.58,197.88 1.20,195.27 2.58,190.06
             3.95,184.84 5.79,178.06 8.09,169.70
             10.40,161.34 13.08,151.87 16.14,141.30
             19.20,130.71 22.42,120.05 25.80,109.31
             29.79,96.74 33.58,85.51 37.19,75.62
             40.79,65.74 44.20,57.34 47.42,50.44
             55.85,32.19 62.98,23.76 68.81,25.14
             71.57,25.91 73.64,27.37 75.02,29.52
             75.02,29.52 75.02,29.73 75.02,29.73
             75.33,30.05 75.48,30.28 75.48,30.44
             76.10,31.97 74.43,33.10 74.12,32.48 Z" />
</svg>
