<?xml version="1.0" encoding="UTF-8" standalone="no"?>
<!DOCTYPE svg PUBLIC "-//W3C//DTD SVG 20010904//EN"
              "http://www.w3.org/TR/2001/REC-SVG-20010904/DTD/svg10.dtd">

<svg xmlns="http://www.w3.org/2000/svg"
     width="33.3333in" height="1.33333in"
     viewBox="0 0 10000 400">
  <path id="c_path_1"
        fill="none" stroke="black" stroke-width="1"
        d="M 95.56,135.06
           C 96.18,135.68 96.33,136.21 96.02,136.67
             93.41,140.66 90.38,145.30 86.94,150.59
             83.49,155.88 79.69,161.32 75.55,166.92
             71.41,172.52 67.00,177.96 62.33,183.25
             57.65,188.54 52.78,193.03 47.72,196.70
             41.74,201.15 35.83,203.75 30.00,204.52
             24.18,205.29 19.04,204.41 14.59,201.88
             10.16,199.34 6.64,195.36 4.03,189.92
             1.42,184.48 0.34,177.77 0.80,169.80
             1.26,161.66 3.14,153.19 6.44,144.38
             9.73,135.56 13.98,127.52 19.19,120.23
             24.41,112.95 30.31,107.00 36.91,102.41
             43.50,97.80 50.40,95.73 57.61,96.19
             59.30,96.34 60.91,96.77 62.44,97.45
             63.97,98.14 65.12,99.10 65.89,100.33
             67.12,102.32 67.43,104.23 66.81,106.08
             66.81,106.08 66.73,106.16 66.58,106.31
             66.27,107.23 65.74,107.96 64.97,108.50
             64.20,109.03 63.35,109.30 62.44,109.30
             61.21,109.30 60.21,108.92 59.44,108.16
             58.68,107.39 58.30,106.39 58.30,105.16
             58.30,103.93 58.68,102.90 59.44,102.06
             60.21,101.22 61.21,100.80 62.44,100.80
             62.89,100.80 63.20,100.87 63.36,101.02
             62.74,100.26 61.94,99.76 60.94,99.53
             59.95,99.30 58.99,99.26 58.06,99.41
             55.00,99.72 51.39,102.25 47.25,107.00
             43.11,111.75 39.02,117.70 34.95,124.83
             30.89,131.95 27.17,139.70 23.80,148.06
             20.42,156.42 17.93,164.31 16.31,171.75
             14.71,179.19 14.29,185.59 15.05,190.95
             15.82,196.32 18.43,199.61 22.88,200.84
             26.56,201.91 30.32,201.80 34.16,200.50
             37.99,199.20 41.97,197.09 46.11,194.17
             51.02,190.64 55.92,186.20 60.83,180.83
             65.73,175.46 70.30,169.91 74.52,164.16
             78.73,158.41 82.52,152.96 85.89,147.83
             89.27,142.70 91.95,138.59 93.95,135.52
             94.57,134.90 95.10,134.75 95.56,135.06 Z" />
</svg>
