<?xml version="1.0" encoding="UTF-8" standalone="no"?>
<!DOCTYPE svg PUBLIC "-//W3C//DTD SVG 20010904//EN"
              "http://www.w3.org/TR/2001/REC-SVG-20010904/DTD/svg10.dtd">

<svg xmlns="http://www.w3.org/2000/svg"
     width="33.3333in" height="1.33333in"
     viewBox="0 0 10000 400">
  <path id="d_path_1"
        fill="none" stroke="black" stroke-width="1"
        d="M 122.91,28.67
           C 123.50,29.94 123.53,30.20 123.84,31.89
             124.46,35.88 123.34,41.82 120.50,49.72
             117.66,57.62 113.34,66.55 107.52,76.52
             103.52,83.41 99.42,89.85 95.20,95.83
             90.98,101.81 87.11,106.79 83.59,110.78
             83.59,110.78 57.75,136.75 53.69,144.30
             52.77,145.98 51.27,148.71 49.20,152.47
             47.13,156.22 44.56,160.23 41.50,164.52
             36.59,171.57 32.07,176.66 27.92,179.80
             23.79,182.93 20.19,183.97 17.12,182.91
             14.36,182.14 12.83,179.76 12.52,175.78
             12.21,171.79 12.75,167.01 14.12,161.42
             15.51,155.83 17.54,149.90 20.22,143.63
             22.91,137.34 25.86,131.60 29.08,126.39
             32.30,121.17 35.59,116.95 38.97,113.73
             42.34,110.51 45.41,109.13 48.17,109.59
             50.32,109.90 51.93,110.78 53.00,112.23
             54.07,113.70 54.76,115.34 55.06,117.17
             55.53,119.93 55.07,122.46 53.69,124.77
             52.93,125.84 52.24,126.53 51.62,126.84
             51.62,126.84 51.84,126.61 51.84,126.61
             51.84,125.38 51.42,124.34 50.58,123.50
             49.73,122.66 48.70,122.23 47.48,122.23
             46.25,122.23 45.25,122.66 44.48,123.50
             43.72,124.34 43.34,125.38 43.34,126.61
             43.34,127.84 43.72,128.84 44.48,129.61
             45.25,130.37 46.25,130.75 47.48,130.75
             49.63,130.59 51.43,129.98 52.88,128.89
             54.33,127.81 55.41,126.42 56.09,124.72
             56.79,123.01 57.18,121.20 57.25,119.27
             57.33,117.33 57.14,115.51 56.69,113.80
             55.91,111.33 54.46,109.25 52.31,107.55
             50.16,105.84 47.55,104.91 44.48,104.75
             40.80,104.61 37.24,105.18 33.80,106.48
             30.35,107.79 27.13,109.67 24.14,112.14
             21.15,114.60 18.39,117.52 15.86,120.91
             13.33,124.29 11.06,127.91 9.06,131.75
             6.31,137.14 4.25,142.71 2.88,148.48
             1.49,154.26 0.95,159.60 1.25,164.52
             1.55,168.98 2.59,172.99 4.36,176.53
             6.12,180.06 8.30,182.71 10.91,184.48
             13.51,186.26 16.50,186.99 19.88,186.69
             23.25,186.37 26.70,184.60 30.23,181.36
             32.22,179.52 34.37,177.33 36.67,174.80
             38.97,172.26 41.27,169.29 43.56,165.91
             44.95,163.91 46.21,161.95 47.36,160.03
             48.52,158.11 49.63,156.29 50.70,154.59
             56.12,140.50 81.52,116.27 81.52,116.27
             85.50,112.73 89.99,107.52 94.97,100.63
             99.96,93.72 104.83,86.13 109.58,77.84
             112.18,73.25 114.55,68.77 116.70,64.41
             118.86,60.03 120.62,55.85 122.00,51.86
             125.53,43.12 126.91,36.37 126.14,31.63
             124.31,22.13 119.25,25.63 122.91,28.67 Z" />
</svg>
