<?xml version="1.0" encoding="UTF-8" standalone="no"?>
<!DOCTYPE svg PUBLIC "-//W3C//DTD SVG 20010904//EN"
              "http://www.w3.org/TR/2001/REC-SVG-20010904/DTD/svg10.dtd">

<svg xmlns="http://www.w3.org/2000/svg"
     width="33.3333in" height="1.33333in"
     viewBox="0 0 10000 400">
  <path id="d_path_2"
        fill="none" stroke="black" stroke-width="1"
        d="M 121.31,24.72
           C 117.94,23.65 114.37,24.65 110.61,27.72
             106.86,30.78 103.07,35.11 99.23,40.70
             95.40,46.30 91.72,52.63 88.19,59.69
             84.66,66.74 81.41,73.60 78.42,80.27
             75.43,86.93 72.90,92.95 70.83,98.33
             68.75,103.70 67.26,107.45 66.34,109.59
             63.88,115.42 61.58,121.20 59.44,126.95
             57.29,132.70 49.55,158.87 49.09,160.95
             48.63,163.03 48.17,165.14 47.70,167.28
             46.02,175.59 45.84,182.33 47.14,187.48
             48.44,192.64 51.01,196.06 54.84,197.75
             56.83,198.42 58.82,198.75 60.81,198.75
             64.80,198.75 69.02,197.30 73.47,194.39
             78.69,191.02 83.52,187.07 87.95,182.56
             92.40,178.04 96.50,173.26 100.27,168.20
             104.02,163.14 107.59,157.93 110.95,152.58
             114.33,147.21 117.62,141.93 120.84,136.72
             121.31,136.11 121.16,135.57 120.39,135.11
             119.77,134.51 119.24,134.59 118.78,135.34
             115.41,140.86 112.07,146.26 108.77,151.55
             105.47,156.83 102.02,161.88 98.42,166.70
             94.82,171.53 90.98,176.01 86.92,180.14
             82.86,184.28 78.30,188.03 73.23,191.41
             66.95,195.69 62.70,195.50 60.47,190.83
             58.25,186.15 59.36,177.23 63.81,164.06
             66.11,157.17 68.80,149.63 71.86,141.44
             74.92,133.24 89.15,96.76 91.98,89.86
             94.82,82.95 97.54,76.36 100.14,70.08
             102.75,63.79 105.21,58.00 107.50,52.70
             109.80,47.41 111.88,42.85 113.72,39.02
             115.41,35.50 116.90,32.66 118.20,30.52
             119.50,28.37 120.69,27.45 121.77,27.75
             124.44,29.25 126.25,26.69 121.31,24.72 Z" />
</svg>
