<?xml version="1.0" encoding="UTF-8" standalone="no"?>
<!DOCTYPE svg PUBLIC "-//W3C//DTD SVG 20010904//EN"
              "http://www.w3.org/TR/2001/REC-SVG-20010904/DTD/svg10.dtd">

<svg xmlns="http://www.w3.org/2000/svg"
     width="33.3333in" height="1.33333in"
     viewBox="0 0 10000 400">
  <path id="e_path_2"
        fill="none" stroke="black" stroke-width="1"
        d="M 58.78,95.94
           C 52.34,95.18 45.59,96.98 38.53,101.36
             31.48,105.73 24.96,112.20 18.98,120.78
             15.77,125.39 12.89,130.45 10.36,135.97
             7.83,141.48 5.80,147.04 4.27,152.64
             2.73,158.23 1.82,163.79 1.52,169.31
             1.20,174.84 1.59,179.97 2.66,184.72
             4.04,191.01 6.42,195.69 9.80,198.75
             13.16,201.81 16.91,203.69 21.05,204.38
             25.19,205.07 29.41,204.80 33.70,203.58
             38.00,202.35 41.91,200.59 45.44,198.30
             49.88,195.38 53.95,192.09 57.62,188.41
             61.31,184.72 64.69,181.04 67.75,177.36
             73.27,170.77 78.25,164.02 82.70,157.12
             87.15,150.22 91.75,143.32 96.50,136.42
             96.80,135.96 96.65,135.43 96.05,134.81
             95.27,134.50 94.74,134.65 94.44,135.27
             91.68,139.71 88.45,144.70 84.77,150.22
             81.09,155.74 77.06,161.34 72.69,167.02
             68.32,172.68 63.72,178.05 58.89,183.11
             54.07,188.17 49.12,192.39 44.06,195.77
             36.55,200.67 29.73,202.28 23.59,200.59
             20.83,199.82 18.76,198.33 17.38,196.11
             16.00,193.88 15.16,191.12 14.84,187.83
             14.54,184.53 14.73,180.81 15.42,176.67
             16.25,166.75 21.00,153.25 24.86,146.19
             26.77,141.81 28.80,137.48 30.95,133.19
             33.40,128.27 35.97,123.63 38.66,119.27
             41.34,114.89 43.95,111.17 46.47,108.11
             49.00,105.05 51.30,102.67 53.38,100.98
             55.45,99.30 57.17,98.61 58.55,98.91
             60.08,99.37 61.62,100.62 62.12,102.38
             64.25,103.25 64.25,102.12 64.62,101.25
             63.75,97.75 61.08,96.25 58.78,95.94 Z" />
</svg>
