<?xml version="1.0" encoding="UTF-8" standalone="no"?>
<!DOCTYPE svg PUBLIC "-//W3C//DTD SVG 20010904//EN"
              "http://www.w3.org/TR/2001/REC-SVG-20010904/DTD/svg10.dtd">

<svg xmlns="http://www.w3.org/2000/svg"
     width="33.3333in" height="1.33333in"
     viewBox="0 0 10000 400">
  <path id="e_path_1"
        fill="none" stroke="black" stroke-width="1"
        d="M 61.77,101.56
           C 62.38,102.87 62.69,104.36 62.69,106.05
             62.69,107.73 62.46,109.41 62.00,111.09
             61.54,112.78 61.08,114.16 60.62,115.23
             58.94,119.84 56.55,124.21 53.48,128.36
             50.42,132.50 46.97,136.40 43.14,140.08
             39.30,143.76 35.36,147.21 31.30,150.44
             27.23,153.66 24.18,156.24 20.50,159.00
             3.88,173.25 10.38,140.25 12.00,136.50
             11.75,134.25 10.50,135.50 9.88,138.00
             8.62,139.12 1.88,174.62 19.25,163.12
             23.85,159.91 27.70,156.93 32.22,153.33
             36.74,149.73 40.99,145.97 44.97,142.06
             48.96,138.15 52.52,134.01 55.67,129.64
             58.82,125.27 61.23,120.70 62.92,115.95
             63.38,114.42 63.88,112.59 64.41,110.44
             64.95,108.28 65.18,106.17 65.09,104.11
             65.02,102.04 64.52,100.23 63.61,98.70
             60.25,95.25 61.15,100.25 61.77,101.56 Z" />
</svg>
