<?xml version="1.0" encoding="UTF-8" standalone="no"?>
<!DOCTYPE svg PUBLIC "-//W3C//DTD SVG 20010904//EN"
              "http://www.w3.org/TR/2001/REC-SVG-20010904/DTD/svg10.dtd">

<svg xmlns="http://www.w3.org/2000/svg"
     width="33.3333in" height="1.33333in"
     viewBox="0 0 10000 400">
  <path id="f_path_2"
        fill="none" stroke="black" stroke-width="1"
        d="M 133.39,30.06
           C 133.09,26.69 131.09,25.00 127.41,25.00
             122.34,25.00 116.82,27.53 110.84,32.59
             106.41,36.27 101.58,41.26 96.36,47.55
             91.15,53.83 85.63,61.42 79.80,70.31
             72.13,81.81 64.46,94.77 56.80,109.19
             49.13,123.59 41.89,138.35 35.06,153.45
             28.24,168.56 22.18,183.43 16.89,198.08
             11.60,212.72 7.50,226.10 4.59,238.20
             2.14,248.63 0.79,258.33 0.56,267.30
             0.34,276.27 1.14,284.36 2.98,291.56
             7.12,306.75 15.78,315.88 28.97,318.94
             36.48,320.62 43.26,319.55 49.31,315.72
             55.38,311.88 60.40,306.67 64.39,300.08
             66.69,295.94 68.72,291.30 70.48,286.16
             72.24,281.02 73.66,275.58 74.73,269.83
             75.80,264.08 76.49,258.13 76.80,252.00
             77.11,245.88 77.04,239.66 76.58,233.38
             75.82,220.80 73.36,209.84 69.22,200.48
             65.54,191.90 60.71,185.31 54.73,180.70
             60.55,179.95 66.19,178.03 71.62,174.97
             77.07,171.90 82.21,168.29 87.05,164.16
             91.88,160.01 96.44,155.56 100.73,150.81
             105.02,146.05 109.01,141.53 112.69,137.23
             113.46,136.48 113.54,135.90 112.92,135.52
             112.30,135.13 111.77,135.25 111.31,135.86
             107.48,140.46 103.26,145.30 98.66,150.36
             94.06,155.41 89.23,160.01 84.17,164.16
             79.11,168.29 73.89,171.74 68.53,174.50
             63.16,177.26 57.72,178.72 52.20,178.88
             51.74,178.56 51.28,178.64 50.81,179.09
             49.59,179.71 49.59,180.32 50.81,180.94
             50.81,180.94 51.05,180.94 51.05,180.94
             57.48,184.93 62.73,191.56 66.80,200.83
             70.87,210.11 73.44,221.19 74.52,234.06
             75.27,246.33 74.62,258.29 72.55,269.94
             70.48,281.59 67.00,291.41 62.09,299.39
             57.49,307.05 52.88,311.77 48.28,313.53
             43.69,315.29 39.44,315.25 35.53,313.41
             31.62,311.57 28.20,308.43 25.30,303.98
             22.38,299.54 20.39,295.02 19.31,290.42
             17.31,283.52 16.43,275.61 16.67,266.72
             16.90,257.83 18.24,248.33 20.69,238.20
             22.38,231.00 24.83,222.65 28.05,213.14
             31.27,203.63 35.03,193.51 39.33,182.78
             43.62,172.04 48.25,161.08 53.23,149.89
             63.50,126.50 71.75,110.50 86.05,85.42
             90.95,77.06 95.71,69.43 100.31,62.53
             109.21,49.34 117.41,39.45 124.92,32.86
             125.38,32.40 125.95,31.83 126.64,31.14
             127.34,30.45 128.03,29.87 128.72,29.41
             129.41,28.95 130.02,28.68 130.55,28.61
             131.09,28.53 131.44,28.87 131.59,29.64
             132.31,30.56 133.19,30.19 133.39,30.06 Z" />
</svg>
