<?xml version="1.0" encoding="UTF-8" standalone="no"?>
<!DOCTYPE svg PUBLIC "-//W3C//DTD SVG 20010904//EN"
              "http://www.w3.org/TR/2001/REC-SVG-20010904/DTD/svg10.dtd">

<svg xmlns="http://www.w3.org/2000/svg"
     width="33.3333in" height="1.33333in"
     viewBox="0 0 10000 400">
  <path id="f_path_1"
        fill="none" stroke="black" stroke-width="1"
        d="M 131.69,29.69
           C 132.00,32.25 129.90,38.85 125.61,46.67
             121.32,54.48 115.26,63.45 107.44,73.56
             101.16,81.84 94.72,89.52 88.12,96.58
             81.53,103.63 73.50,111.38 68.25,115.12
             66.12,116.12 51.00,125.88 42.25,137.88
             42.25,137.88 40.94,140.31 42.38,139.50
             55.38,126.50 64.12,119.88 66.50,118.88
             71.00,116.12 79.53,109.11 86.81,101.59
             94.09,94.07 101.41,85.48 108.78,75.83
             116.13,66.17 122.04,57.36 126.48,49.38
             131.55,40.64 133.31,35.38 133.44,30.00
             132.81,27.38 132.00,28.19 131.69,29.69 Z" />
</svg>
