<?xml version="1.0" encoding="UTF-8" standalone="no"?>
<!DOCTYPE svg PUBLIC "-//W3C//DTD SVG 20010904//EN"
              "http://www.w3.org/TR/2001/REC-SVG-20010904/DTD/svg10.dtd">

<svg xmlns="http://www.w3.org/2000/svg"
     width="33.3333in" height="1.33333in"
     viewBox="0 0 10000 400">
  <path id="g_path_2"
        fill="none" stroke="black" stroke-width="1"
        d="M 139.17,211.86
           C 138.40,211.55 138.05,211.13 138.12,210.59
             138.21,210.06 138.71,209.80 139.62,209.80
             152.66,209.64 164.78,201.59 175.97,185.64
             179.19,181.20 182.25,176.37 185.17,171.16
             188.09,165.94 190.77,160.95 193.22,156.20
             195.68,151.45 197.86,147.19 199.78,143.44
             201.70,139.68 203.11,136.95 204.03,135.27
             204.33,134.65 204.83,134.54 205.52,134.92
             206.21,135.31 206.33,135.89 205.88,136.66
             204.03,139.56 202.11,143.05 200.11,147.11
             198.12,151.17 195.97,155.43 193.67,159.88
             191.38,164.32 188.89,168.89 186.20,173.56
             183.52,178.24 180.65,182.73 177.58,187.02
             172.37,194.23 166.70,200.16 160.56,204.84
             154.43,209.52 147.30,211.86 139.17,211.86 Z" />
</svg>
