<?xml version="1.0" encoding="UTF-8" standalone="no"?>
<!DOCTYPE svg PUBLIC "-//W3C//DTD SVG 20010904//EN"
              "http://www.w3.org/TR/2001/REC-SVG-20010904/DTD/svg10.dtd">

<svg xmlns="http://www.w3.org/2000/svg"
     width="33.3333in" height="1.33333in"
     viewBox="0 0 10000 400">
  <path id="g_path_1"
        fill="none" stroke="black" stroke-width="1"
        d="M 140.53,139.05
           C 141.14,136.90 142.18,135.21 143.62,133.98
             145.08,132.76 146.69,131.84 148.45,131.23
             150.22,130.63 151.95,130.28 153.64,130.17
             155.33,130.06 156.63,130.00 157.55,130.00
             155.55,142.62 152.91,155.59 149.61,168.91
             146.32,182.22 142.29,195.26 137.53,208.03
             132.78,220.80 127.38,233.15 121.31,245.08
             115.26,257.02 108.48,267.91 100.97,277.75
             88.09,294.68 74.37,306.68 59.80,313.77
             51.21,317.92 43.01,320.00 35.19,320.00
             28.91,320.00 23.01,318.61 17.48,315.84
             10.28,312.46 5.68,307.61 3.69,301.31
             1.69,295.93 1.84,289.47 4.14,281.94
             5.52,277.78 7.51,273.47 10.12,269.02
             12.73,264.55 15.91,260.13 19.67,255.75
             23.42,251.36 27.64,247.02 32.31,242.72
             36.99,238.41 42.01,234.41 47.38,230.72
             52.75,227.03 58.12,223.72 63.48,220.80
             68.85,217.88 74.14,215.58 79.34,213.89
             90.70,209.73 100.97,208.50 110.17,210.19
             111.09,210.19 111.39,210.57 111.09,211.34
             111.09,212.43 110.71,212.73 109.94,212.27
             101.66,210.88 92.15,211.96 81.42,215.50
             70.68,219.04 59.80,224.73 48.77,232.56
             38.18,239.95 29.14,248.10 21.62,257.02
             14.11,265.94 9.04,274.48 6.44,282.62
             3.68,291.24 3.56,297.89 6.09,302.58
             8.62,307.27 12.54,310.31 17.83,311.69
             23.12,313.07 29.18,313.04 36.00,311.58
             42.82,310.12 49.07,307.39 54.73,303.39
             65.62,296.00 75.90,285.93 85.56,273.17
             92.46,264.25 98.55,254.68 103.84,244.45
             109.13,234.22 113.81,223.84 117.88,213.30
             121.94,202.77 125.50,192.31 128.56,181.94
             131.63,171.55 134.39,161.82 136.84,152.75
             135.62,154.75 134.36,156.87 133.05,159.09
             131.74,161.32 130.25,163.67 128.56,166.12
             126.27,169.51 123.97,172.48 121.67,175.02
             119.37,177.55 117.22,179.74 115.23,181.59
             111.70,184.82 108.25,186.59 104.88,186.91
             101.50,187.21 98.51,186.48 95.91,184.70
             93.30,182.93 91.12,180.28 89.36,176.75
             87.59,173.21 86.55,169.21 86.25,164.75
             85.95,159.82 86.49,154.48 87.88,148.72
             89.25,142.95 91.31,137.37 94.06,131.98
             96.06,128.14 98.33,124.53 100.86,121.16
             103.39,117.77 106.15,114.85 109.14,112.39
             112.13,109.92 115.35,108.04 118.80,106.73
             122.24,105.43 125.80,104.86 129.48,105.00
             132.55,105.16 135.16,106.09 137.31,107.80
             139.46,109.50 140.91,111.58 141.69,114.05
             142.14,115.76 142.33,117.58 142.25,119.52
             142.18,121.45 141.79,123.26 141.09,124.97
             140.41,126.67 139.33,128.06 137.88,129.14
             136.43,130.23 134.63,130.84 132.48,131.00
             131.25,131.00 130.25,130.57 129.48,129.70
             128.72,128.83 128.34,127.78 128.34,126.55
             128.34,125.32 128.72,124.28 129.48,123.44
             130.25,122.59 131.25,122.17 132.48,122.17
             133.70,122.17 134.73,122.59 135.58,123.44
             136.42,124.28 136.84,125.32 136.84,126.55
             136.84,126.55 136.62,126.78 136.62,126.78
             137.24,126.47 137.93,125.78 138.69,124.70
             140.07,122.40 140.53,119.87 140.06,117.11
             139.76,115.28 139.07,113.63 138.00,112.17
             136.93,110.71 135.32,109.84 133.17,109.53
             130.41,109.06 127.34,110.45 123.97,113.67
             120.59,116.89 117.30,121.16 114.08,126.48
             110.86,131.80 107.91,137.60 105.22,143.89
             102.54,150.17 100.51,156.11 99.12,161.70
             97.75,167.30 97.21,172.09 97.52,176.08
             97.83,180.07 99.36,182.45 102.12,183.20
             105.19,184.28 108.79,183.25 112.92,180.11
             117.07,176.96 121.59,171.87 126.50,164.81
             129.88,159.91 132.75,155.31 135.12,151.02
             137.50,146.71 138.91,144.11 139.38,143.19
             139.38,143.19 140.53,139.05 140.53,139.05 Z" />
</svg>
