<?xml version="1.0" encoding="UTF-8" standalone="no"?>
<!DOCTYPE svg PUBLIC "-//W3C//DTD SVG 20010904//EN"
              "http://www.w3.org/TR/2001/REC-SVG-20010904/DTD/svg10.dtd">

<svg xmlns="http://www.w3.org/2000/svg"
     width="33.3333in" height="1.33333in"
     viewBox="0 0 10000 400">
  <path id="h_path_2"
        fill="none" stroke="black" stroke-width="1"
        d="M 75.73,29.69
           C 75.73,29.53 75.58,29.30 75.27,28.98
             75.27,28.98 75.27,28.77 75.27,28.77
             73.89,26.62 71.82,25.16 69.06,24.39
             63.23,23.01 56.10,31.44 47.67,49.69
             44.45,56.59 41.04,64.99 37.44,74.88
             33.83,84.76 30.04,95.99 26.05,108.56
             22.67,119.30 19.45,129.96 16.39,140.55
             13.33,151.12 10.65,160.59 8.34,168.95
             6.04,177.31 4.20,184.09 2.83,189.31
             1.45,194.52 0.83,197.12 0.98,197.12
             5.89,198.81 9.88,199.08 12.95,197.94
             16.02,196.78 18.16,195.28 19.38,193.44
             19.53,193.44 19.61,193.36 19.61,193.20
             19.61,192.75 19.69,192.37 19.84,192.06
             20.91,189.92 22.45,186.89 24.44,182.98
             26.44,179.07 28.66,174.85 31.11,170.33
             33.57,165.81 36.21,161.29 39.05,156.77
             41.88,152.23 44.75,148.21 47.67,144.69
             50.59,141.16 53.46,138.48 56.30,136.64
             59.13,134.80 61.70,134.26 64.00,135.02
             65.69,135.63 66.72,136.98 67.11,139.05
             67.49,141.12 67.49,143.65 67.11,146.64
             66.72,149.63 65.99,152.93 64.92,156.53
             63.85,160.14 62.70,163.86 61.47,167.69
             57.48,179.79 56.10,189.95 57.33,198.16
             58.55,206.35 62.77,210.99 69.98,212.06
             73.05,212.53 76.03,212.15 78.94,210.92
             81.85,209.69 84.61,208.04 87.22,205.97
             89.83,203.91 92.33,201.53 94.70,198.84
             97.08,196.16 99.34,193.51 101.48,190.91
             108.08,182.94 113.68,175.20 118.28,167.69
             122.88,160.17 127.48,152.50 132.08,144.69
             132.08,144.69 137.14,136.41 137.14,136.41
             137.60,135.64 137.52,135.10 136.91,134.80
             136.14,134.33 135.61,134.40 135.30,135.02
             134.54,136.40 133.69,137.79 132.77,139.17
             131.85,140.55 131.00,142.00 130.23,143.53
             125.48,151.36 120.69,159.06 115.86,166.66
             111.04,174.24 105.40,181.95 98.95,189.77
             93.59,196.51 88.76,201.37 84.47,204.36
             80.18,207.35 76.88,208.38 74.58,207.47
             71.82,206.24 70.63,202.48 71.02,196.20
             71.40,189.91 73.74,180.64 78.03,168.38
             79.56,164.09 80.71,159.83 81.47,155.61
             82.24,151.39 82.35,147.48 81.81,143.88
             81.28,140.27 79.98,137.28 77.91,134.91
             75.84,132.53 72.74,131.04 68.59,130.42
             63.69,129.81 59.01,131.27 54.56,134.80
             50.12,138.32 45.91,142.88 41.92,148.48
             37.93,154.08 34.25,160.09 30.88,166.53
             27.50,172.97 24.51,178.72 21.91,183.78
             22.83,180.41 23.87,176.27 25.02,171.36
             26.16,166.45 27.50,161.12 29.03,155.38
             30.57,149.62 32.19,143.61 33.88,137.33
             35.56,131.04 37.40,124.75 39.39,118.45
             39.39,118.45 40.56,114.78 40.56,114.78
             47.31,93.16 53.52,75.37 59.19,61.42
             64.86,47.46 69.93,37.65 74.38,31.98
             74.68,32.60 78.25,34.38 75.73,29.69 Z" />
</svg>
