<?xml version="1.0" encoding="UTF-8" standalone="no"?>
<!DOCTYPE svg PUBLIC "-//W3C//DTD SVG 20010904//EN"
              "http://www.w3.org/TR/2001/REC-SVG-20010904/DTD/svg10.dtd">

<svg xmlns="http://www.w3.org/2000/svg"
     width="33.3333in" height="1.33333in"
     viewBox="0 0 10000 400">
  <path id="i_path_1"
        fill="none" stroke="black" stroke-width="1"
        d="M 13.41,213.06
           C 9.72,212.60 6.88,211.11 4.89,208.58
             2.90,206.05 1.64,202.77 1.11,198.70
             0.57,194.63 0.72,189.88 1.56,184.44
             2.40,178.99 3.81,173.12 5.81,166.84
             8.88,157.49 11.52,150.44 13.75,145.69
             15.97,140.93 17.46,137.93 18.23,136.70
             19.45,134.56 21.02,133.06 22.94,132.22
             24.85,131.38 26.77,130.95 28.69,130.95
             30.60,130.95 32.37,131.15 33.98,131.53
             35.60,131.92 36.63,132.19 37.09,132.34
             37.09,132.34 36.63,133.34 35.70,135.33
             34.79,137.32 33.60,139.93 32.14,143.16
             30.68,146.38 29.07,150.09 27.31,154.31
             25.55,158.52 23.83,162.93 22.14,167.53
             17.39,180.41 14.82,190.14 14.44,196.73
             14.05,203.33 15.24,207.24 18.00,208.47
             20.30,209.38 23.60,208.35 27.89,205.36
             32.18,202.37 37.01,197.51 42.38,190.77
             48.82,182.95 54.46,175.24 59.28,167.66
             64.11,160.06 68.91,152.36 73.66,144.53
             74.43,143.00 75.27,141.55 76.19,140.17
             77.10,138.79 77.95,137.40 78.72,136.02
             79.03,135.40 79.57,135.33 80.33,135.80
             80.94,136.10 81.02,136.64 80.56,137.41
             80.56,137.41 75.50,145.69 75.50,145.69
             70.89,153.50 66.29,161.17 61.69,168.69
             57.09,176.20 51.50,183.94 44.91,191.91
             42.76,194.51 40.50,197.16 38.12,199.84
             35.75,202.53 33.25,204.91 30.64,206.97
             28.04,209.04 25.27,210.69 22.36,211.92
             19.45,213.15 16.47,213.53 13.41,213.06 Z" />
</svg>
