<?xml version="1.0" encoding="UTF-8" standalone="no"?>
<!DOCTYPE svg PUBLIC "-//W3C//DTD SVG 20010904//EN"
              "http://www.w3.org/TR/2001/REC-SVG-20010904/DTD/svg10.dtd">

<svg xmlns="http://www.w3.org/2000/svg"
     width="33.3333in" height="1.33333in"
     viewBox="0 0 10000 400">
  <path id="j_path_1"
        fill="none" stroke="black" stroke-width="1"
        d="M 140.08,139.45
           C 140.70,137.31 141.73,135.62 143.19,134.39
             144.64,133.16 146.25,132.28 148.02,131.75
             149.77,131.21 151.50,130.90 153.19,130.83
             154.88,130.76 156.18,130.72 157.09,130.72
             155.10,143.29 152.46,156.21 149.16,169.47
             145.86,182.73 141.84,195.73 137.09,208.45
             132.34,221.18 126.93,233.48 120.88,245.36
             114.82,257.24 108.04,268.10 100.52,277.92
             87.64,294.79 73.92,306.74 59.34,313.80
             50.76,317.93 42.56,320.00 34.73,320.00
             28.45,320.00 22.55,318.62 17.03,315.86
             9.82,312.48 5.23,307.66 3.23,301.38
             1.23,296.01 1.39,289.57 3.69,282.05
             5.07,277.91 7.07,273.62 9.67,269.17
             12.28,264.72 15.46,260.31 19.22,255.94
             22.97,251.57 27.18,247.24 31.86,242.95
             36.54,238.66 41.56,234.68 46.94,231.00
             52.30,227.31 57.67,224.01 63.03,221.09
             68.40,218.19 73.69,215.89 78.91,214.20
             90.25,210.07 100.52,208.84 109.72,210.53
             110.64,210.53 110.95,210.91 110.64,211.67
             110.64,212.74 110.26,213.05 109.48,212.59
             101.20,211.22 91.70,212.29 80.97,215.81
             70.24,219.34 59.36,225.02 48.31,232.83
             37.73,240.19 28.68,248.32 21.17,257.20
             13.66,266.10 8.60,274.61 5.98,282.75
             3.23,291.33 3.11,297.96 5.64,302.64
             8.17,307.32 12.09,310.34 17.38,311.72
             22.67,313.10 28.73,313.07 35.55,311.61
             42.37,310.15 48.62,307.43 54.30,303.44
             65.18,296.08 75.45,286.04 85.11,273.31
             92.93,263.20 99.72,252.27 105.47,240.53
             111.22,228.80 116.28,216.99 120.66,205.11
             125.02,193.23 128.74,181.62 131.81,170.28
             134.88,158.93 137.63,148.65 140.08,139.45 Z" />
</svg>
