<?xml version="1.0" encoding="UTF-8" standalone="no"?>
<!DOCTYPE svg PUBLIC "-//W3C//DTD SVG 20010904//EN"
              "http://www.w3.org/TR/2001/REC-SVG-20010904/DTD/svg10.dtd">

<svg xmlns="http://www.w3.org/2000/svg"
     width="33.3333in" height="1.33333in"
     viewBox="0 0 10000 400">
  <path id="j_path_2"
        fill="none" stroke="black" stroke-width="1"
        d="M 139.19,211.61
           C 138.42,211.30 138.07,210.88 138.16,210.34
             138.23,209.81 138.73,209.55 139.64,209.55
             152.67,209.39 164.79,201.34 175.98,185.39
             179.20,180.95 182.27,176.12 185.17,170.91
             188.09,165.69 190.77,160.70 193.22,155.95
             195.68,151.20 197.86,146.94 199.78,143.19
             201.70,139.43 203.12,136.70 204.05,135.02
             204.35,134.40 204.84,134.29 205.53,134.67
             206.22,135.06 206.33,135.64 205.88,136.41
             204.04,139.31 202.12,142.80 200.12,146.86
             198.13,150.92 195.99,155.18 193.69,159.62
             191.38,164.07 188.89,168.64 186.20,173.31
             183.52,177.99 180.66,182.48 177.59,186.77
             172.38,193.98 166.70,199.91 160.56,204.59
             154.44,209.27 147.31,211.61 139.19,211.61 Z" />
</svg>
