<?xml version="1.0" encoding="UTF-8" standalone="no"?>
<!DOCTYPE svg PUBLIC "-//W3C//DTD SVG 20010904//EN"
              "http://www.w3.org/TR/2001/REC-SVG-20010904/DTD/svg10.dtd">

<svg xmlns="http://www.w3.org/2000/svg"
     width="33.3333in" height="1.33333in"
     viewBox="0 0 10000 400">
  <path id="k_path_2"
        fill="none" stroke="black" stroke-width="1"
        d="M 74.12,32.48
           C 69.68,38.15 64.61,47.96 58.94,61.92
             53.27,75.87 47.06,93.66 40.31,115.28
             40.31,115.28 39.69,118.67 39.39,118.81
             37.55,124.80 35.78,130.87 34.09,137.00
             32.41,143.12 30.83,148.99 29.38,154.59
             27.93,160.19 26.62,165.40 25.47,170.23
             24.32,175.06 23.29,179.23 22.38,182.77
             27.12,174.08 31.72,166.63 36.17,160.42
             40.62,154.20 45.30,148.64 50.20,143.73
             60.32,133.92 69.21,129.09 76.88,129.25
             83.01,129.71 87.38,133.01 89.98,139.14
             92.74,146.50 91.60,153.62 86.55,160.53
             84.70,163.14 82.47,165.51 79.86,167.66
             77.25,169.80 74.54,171.72 71.70,173.41
             68.87,175.09 65.96,176.59 62.97,177.89
             59.98,179.20 57.18,180.23 54.56,181.00
             60.70,181.62 65.68,184.52 69.52,189.72
             71.36,192.32 72.89,195.12 74.11,198.11
             75.34,201.09 76.49,203.95 77.56,206.70
             80.48,215.12 83.20,219.02 85.73,218.41
             88.27,217.79 92.06,213.28 97.12,204.88
             99.73,200.44 102.52,195.27 105.52,189.38
             108.50,183.48 111.53,176.70 114.59,169.03
             117.21,162.59 119.28,157.23 120.81,152.94
             122.34,148.65 123.53,145.28 124.38,142.83
             125.22,140.37 125.75,138.61 125.98,137.53
             126.21,136.46 126.33,135.92 126.33,135.92
             126.64,135.00 127.10,134.69 127.70,135.00
             128.63,135.30 128.94,135.76 128.62,136.38
             128.62,136.53 128.47,137.11 128.16,138.11
             127.85,139.10 127.28,140.86 126.44,143.39
             125.60,145.92 124.41,149.34 122.88,153.62
             121.34,157.92 119.27,163.29 116.67,169.73
             113.60,177.55 110.60,184.44 107.69,190.41
             104.78,196.38 101.95,201.58 99.19,206.02
             98.27,207.70 97.12,209.50 95.73,211.41
             94.36,213.32 92.83,215.12 91.14,216.80
             89.45,218.48 87.65,219.94 85.73,221.16
             83.82,222.38 81.86,223.00 79.88,223.00
             76.80,223.00 74.34,222.46 72.50,221.39
             70.66,220.32 69.25,218.86 68.25,217.02
             67.26,215.18 66.53,213.11 66.06,210.81
             65.60,208.51 65.14,206.21 64.69,203.92
             64.38,201.30 63.93,198.70 63.31,196.09
             62.70,193.49 61.70,191.12 60.31,188.97
             58.78,186.37 56.79,184.68 54.33,183.92
             51.88,183.15 49.27,182.61 46.52,182.30
             46.52,182.30 45.38,182.30 45.38,182.30
             44.60,182.30 44.22,181.92 44.22,181.16
             44.22,180.39 44.60,180.00 45.38,180.00
             45.38,180.00 46.75,180.00 46.75,180.00
             51.66,179.70 56.18,177.82 60.31,174.38
             64.46,170.92 67.91,167.12 70.67,162.98
             72.36,160.23 73.74,156.85 74.81,152.86
             75.88,148.87 75.58,144.58 73.89,139.98
             72.97,137.23 71.67,135.54 69.98,134.92
             68.30,134.31 66.49,134.42 64.58,135.27
             62.66,136.11 60.59,137.45 58.36,139.30
             56.14,141.13 54.04,143.12 52.05,145.27
             46.52,150.95 41.19,157.39 36.05,164.59
             30.91,171.80 25.58,180.92 20.06,191.95
             19.60,192.88 19.38,193.50 19.38,193.80
             18.16,195.64 16.02,197.14 12.95,198.30
             9.88,199.44 5.89,199.17 0.98,197.48
             0.83,197.48 1.45,194.88 2.83,189.67
             4.20,184.45 6.04,177.67 8.34,169.31
             10.65,160.95 13.33,151.48 16.39,140.91
             19.45,130.32 22.67,119.66 26.05,108.92
             30.04,96.35 33.83,85.12 37.44,75.23
             41.04,65.35 44.45,56.95 47.67,50.05
             56.10,31.80 63.23,23.37 69.06,24.75
             73.51,25.98 76.11,28.89 76.88,33.48
             75.38,36.00 74.43,33.10 74.12,32.48 Z" />
</svg>
