<?xml version="1.0" encoding="UTF-8" standalone="no"?>
<!DOCTYPE svg PUBLIC "-//W3C//DTD SVG 20010904//EN"
              "http://www.w3.org/TR/2001/REC-SVG-20010904/DTD/svg10.dtd">

<svg xmlns="http://www.w3.org/2000/svg"
     width="33.3333in" height="1.33333in"
     viewBox="0 0 10000 400">
  <path id="k_path_1"
        fill="none" stroke="black" stroke-width="1"
        d="M 74.58,34.31
           C 75.65,38.76 75.23,44.90 73.31,52.72
             71.39,60.54 68.29,69.20 64.00,78.70
             60.32,86.84 56.33,94.20 52.03,100.80
             46.12,110.88 42.00,113.50 37.12,117.75
             37.12,117.75 25.50,127.62 21.38,131.62
             18.75,134.38 18.12,136.12 17.88,138.62
             21.50,132.50 35.50,121.75 39.12,119.25
             45.62,113.62 50.44,107.39 52.72,103.91
             57.48,96.93 61.93,88.84 66.06,79.62
             70.51,69.97 73.69,61.08 75.61,52.95
             77.52,44.83 77.95,38.39 76.88,33.62
             76.73,32.87 76.00,29.75 74.12,28.50
             72.75,28.62 73.50,30.38 73.50,30.38
             73.50,30.38 74.58,33.71 74.58,34.31 Z" />
</svg>
