<?xml version="1.0" encoding="UTF-8" standalone="no"?>
<!DOCTYPE svg PUBLIC "-//W3C//DTD SVG 20010904//EN"
              "http://www.w3.org/TR/2001/REC-SVG-20010904/DTD/svg10.dtd">

<svg xmlns="http://www.w3.org/2000/svg"
     width="33.3333in" height="1.33333in"
     viewBox="0 0 10000 400">
  <path id="l_path_2"
        fill="none" stroke="black" stroke-width="1"
        d="M 77.09,25.05
           C 73.72,23.98 70.15,24.98 66.39,28.05
             62.64,31.11 58.85,35.44 55.02,41.03
             51.18,46.62 47.50,52.95 43.97,60.02
             40.45,67.07 37.19,73.93 34.19,80.59
             31.20,87.26 28.66,93.28 26.59,98.66
             24.53,104.02 23.04,107.78 22.12,109.92
             18.13,119.42 14.57,129.01 11.42,138.67
             8.28,148.33 5.63,157.98 3.48,167.64
             1.80,175.92 1.61,182.63 2.92,187.77
             4.23,192.90 6.79,196.31 10.62,198.00
             12.61,198.67 14.60,199.00 16.59,199.00
             20.58,199.00 24.80,197.59 29.25,194.78
             34.46,191.41 39.29,187.46 43.73,182.94
             48.18,178.42 52.29,173.62 56.05,168.56
             59.80,163.50 63.37,158.29 66.73,152.92
             70.11,147.56 73.41,142.27 76.62,137.06
             77.08,136.45 76.93,135.91 76.17,135.45
             75.55,134.84 75.02,134.91 74.56,135.67
             71.19,141.20 67.85,146.60 64.55,151.89
             61.25,157.18 57.80,162.25 54.20,167.08
             50.60,171.90 46.77,176.39 42.70,180.53
             38.64,184.67 34.08,188.42 29.02,191.80
             22.73,196.07 18.48,195.87 16.25,191.20
             14.03,186.54 15.14,177.61 19.59,164.42
             21.89,157.53 24.58,149.98 27.64,141.78
             30.70,133.57 33.92,125.18 37.30,116.59
             37.30,116.59 39.63,110.64 39.63,110.64
             42.38,103.59 45.18,96.62 48.02,89.72
             50.85,82.81 53.57,76.22 56.17,69.94
             58.79,63.65 61.24,57.86 63.53,52.56
             65.83,47.27 67.91,42.71 69.75,38.88
             71.44,35.36 72.93,32.52 74.23,30.38
             75.54,28.23 76.79,27.39 77.88,27.69
             78.33,27.85 79.85,26.28 77.09,25.05 Z" />
</svg>
