<?xml version="1.0" encoding="UTF-8" standalone="no"?>
<!DOCTYPE svg PUBLIC "-//W3C//DTD SVG 20010904//EN"
              "http://www.w3.org/TR/2001/REC-SVG-20010904/DTD/svg10.dtd">

<svg xmlns="http://www.w3.org/2000/svg"
     width="33.3333in" height="1.33333in"
     viewBox="0 0 10000 400">
  <path id="l_path_1"
        fill="none" stroke="black" stroke-width="1"
        d="M 78.94,28.53
           C 79.25,28.99 79.56,30.06 79.87,31.75
             80.49,35.74 79.37,41.68 76.53,49.58
             73.70,57.48 69.37,66.41 63.55,76.38
             59.55,83.27 55.45,89.71 51.23,95.69
             47.02,101.67 40.00,112.25 35.50,113.50
             26.25,116.12 13.12,135.38 13.12,135.38
             13.12,135.38 9.25,141.62 11.88,140.75
             11.88,140.75 29.25,117.62 34.50,116.50
             40.25,115.75 45.77,107.85 50.75,100.95
             55.74,94.05 60.61,86.45 65.36,78.17
             67.96,73.58 70.34,69.10 72.48,64.73
             74.63,60.36 76.39,56.18 77.78,52.19
             81.30,43.45 82.68,36.70 81.92,31.95
             81.46,28.58 79.69,26.19 77.06,25.00
             75.00,25.56 78.94,28.25 78.94,28.53 Z" />
</svg>
