<?xml version="1.0" encoding="UTF-8" standalone="no"?>
<!DOCTYPE svg PUBLIC "-//W3C//DTD SVG 20010904//EN"
              "http://www.w3.org/TR/2001/REC-SVG-20010904/DTD/svg10.dtd">

<svg xmlns="http://www.w3.org/2000/svg"
     width="33.3333in" height="1.33333in"
     viewBox="0 0 10000 400">
  <path id="m_path_1"
        fill="none" stroke="black" stroke-width="1"
        d="M 125.80,168.88
           C 121.49,181.14 119.15,190.41 118.77,196.70
             118.39,202.98 119.58,206.74 122.34,207.97
             124.64,208.88 127.94,207.85 132.23,204.86
             136.52,201.87 141.35,197.01 146.72,190.27
             153.16,182.45 158.79,174.74 163.62,167.16
             168.46,159.56 173.25,151.86 178.00,144.03
             178.77,142.50 179.61,141.05 180.53,139.67
             181.45,138.29 182.29,136.90 183.06,135.52
             183.36,134.90 183.90,134.83 184.67,135.30
             185.29,135.60 185.36,136.14 184.91,136.91
             184.91,136.91 179.84,145.19 179.84,145.19
             175.24,153.00 170.63,160.67 166.03,168.19
             161.44,175.70 155.84,183.44 149.25,191.41
             147.10,194.01 144.84,196.66 142.47,199.34
             140.09,202.03 137.60,204.41 134.98,206.47
             132.38,208.54 129.62,210.19 126.70,211.42
             123.80,212.65 120.80,213.03 117.73,212.56
             110.54,211.49 106.32,206.85 105.09,198.66
             103.86,190.45 105.24,180.29 109.23,168.19
             110.45,164.36 111.60,160.64 112.67,157.03
             113.75,153.43 114.48,150.13 114.86,147.14
             115.24,144.15 115.24,141.62 114.86,139.55
             114.48,137.48 113.45,136.13 111.77,135.52
             109.62,134.90 107.35,135.25 104.97,136.56
             102.59,137.87 100.18,139.90 97.72,142.66
             95.27,145.42 92.78,148.64 90.25,152.31
             87.72,155.99 85.27,159.82 82.89,163.81
             80.52,167.80 78.33,171.71 76.33,175.55
             74.34,179.38 72.58,182.83 71.05,185.89
             70.29,187.58 69.60,189.07 68.98,190.38
             68.37,191.68 67.83,192.79 67.38,193.70
             66.14,195.86 64.57,197.36 62.66,198.20
             60.74,199.04 58.82,199.45 56.91,199.45
             54.99,199.45 53.22,199.27 51.61,198.89
             50.00,198.51 48.97,198.23 48.52,198.08
             48.97,196.85 50.05,194.20 51.73,190.14
             53.42,186.08 55.26,181.33 57.25,175.89
             59.24,170.45 61.23,164.70 63.22,158.64
             65.22,152.58 66.75,146.91 67.83,141.62
             68.90,136.34 69.39,131.85 69.31,128.17
             69.24,124.48 68.13,122.26 65.98,121.48
             63.54,120.73 60.85,121.61 57.94,124.14
             55.02,126.67 52.03,130.24 48.97,134.84
             45.91,139.44 42.84,144.61 39.77,150.36
             36.70,156.11 33.83,161.75 31.14,167.27
             28.46,172.79 26.05,177.89 23.91,182.56
             21.76,187.23 20.14,190.71 19.06,193.02
             19.06,193.02 19.06,193.48 19.06,193.48
             17.99,195.32 16.57,196.62 14.81,197.39
             13.05,198.16 11.26,198.62 9.42,198.78
             7.58,198.93 5.85,198.85 4.23,198.55
             2.62,198.23 1.36,197.93 0.44,197.62
             2.44,190.26 4.12,184.05 5.50,179.00
             6.88,173.94 8.11,169.26 9.19,164.97
             10.26,160.67 11.34,156.48 12.41,152.42
             13.48,148.36 14.86,143.65 16.55,138.28
             17.30,135.82 18.53,134.02 20.22,132.88
             21.91,131.73 23.74,131.01 25.73,130.70
             27.73,130.39 29.69,130.39 31.61,130.70
             33.52,131.01 35.09,131.39 36.31,131.84
             36.31,131.84 22.06,182.20 22.06,182.20
             23.89,178.37 25.92,174.00 28.14,169.09
             30.37,164.19 32.75,159.25 35.28,154.27
             37.81,149.29 40.49,144.46 43.33,139.78
             46.17,135.11 49.09,131.01 52.08,127.48
             55.07,123.95 58.09,121.20 61.16,119.20
             64.23,117.20 67.38,116.43 70.59,116.89
             75.19,117.51 78.44,119.62 80.36,123.22
             82.27,126.82 83.27,131.23 83.34,136.45
             83.43,141.66 82.82,147.30 81.52,153.36
             80.21,159.41 78.64,165.20 76.80,170.70
             79.25,165.80 82.02,160.86 85.08,155.88
             88.15,150.90 91.33,146.45 94.62,142.55
             97.91,138.63 101.40,135.56 105.08,133.34
             108.77,131.12 112.52,130.31 116.36,130.92
             120.49,131.54 123.60,133.03 125.67,135.41
             127.74,137.78 129.05,140.77 129.58,144.38
             130.12,147.98 130.00,151.89 129.23,156.11
             128.47,160.33 127.33,164.59 125.80,168.88 Z" />
</svg>
