<?xml version="1.0" encoding="UTF-8" standalone="no"?>
<!DOCTYPE svg PUBLIC "-//W3C//DTD SVG 20010904//EN"
              "http://www.w3.org/TR/2001/REC-SVG-20010904/DTD/svg10.dtd">

<svg xmlns="http://www.w3.org/2000/svg"
     width="33.3333in" height="1.33333in"
     viewBox="0 0 10000 400">
  <path id="n_path_1"
        fill="none" stroke="black" stroke-width="1"
        d="M 77.27,168.88
           C 72.96,181.14 70.62,190.41 70.23,196.70
             69.86,202.98 71.05,206.74 73.81,207.97
             76.11,208.88 79.41,207.85 83.70,204.86
             87.99,201.87 92.82,197.01 98.19,190.27
             104.62,182.45 110.26,174.74 115.09,167.16
             119.93,159.56 124.72,151.86 129.47,144.03
             130.24,142.50 131.08,141.05 132.00,139.67
             132.91,138.29 133.76,136.90 134.53,135.52
             134.83,134.90 135.37,134.83 136.14,135.30
             136.75,135.60 136.83,136.14 136.38,136.91
             136.38,136.91 131.31,145.19 131.31,145.19
             126.71,153.00 122.10,160.67 117.50,168.19
             112.91,175.70 107.31,183.44 100.72,191.41
             98.57,194.01 96.31,196.66 93.94,199.34
             91.56,202.03 89.07,204.41 86.45,206.47
             83.85,208.54 81.09,210.19 78.17,211.42
             75.27,212.65 72.27,213.03 69.20,212.56
             62.00,211.49 57.79,206.85 56.56,198.66
             55.33,190.45 56.71,180.29 60.70,168.19
             61.93,164.36 63.08,160.64 64.16,157.03
             65.23,153.43 65.95,150.13 66.33,147.14
             66.71,144.15 66.71,141.62 66.33,139.55
             65.95,137.48 64.92,136.13 63.23,135.52
             60.93,134.76 58.40,135.30 55.64,137.14
             52.88,138.98 50.08,141.58 47.23,144.95
             44.40,148.33 41.60,152.24 38.84,156.69
             36.08,161.12 33.47,165.53 31.02,169.91
             28.57,174.27 26.35,178.45 24.36,182.44
             22.37,186.43 20.76,189.57 19.53,191.88
             19.53,191.88 19.06,193.48 19.06,193.48
             17.99,195.32 16.57,196.62 14.81,197.39
             13.05,198.16 11.26,198.62 9.42,198.78
             7.58,198.93 5.85,198.85 4.23,198.55
             2.62,198.23 1.36,197.93 0.44,197.62
             2.44,190.26 4.12,184.05 5.50,179.00
             6.88,173.94 8.11,169.26 9.19,164.97
             10.26,160.67 11.34,156.48 12.41,152.42
             13.48,148.36 14.86,143.65 16.55,138.28
             17.30,135.82 18.53,134.02 20.22,132.88
             21.91,131.73 23.74,131.01 25.73,130.70
             27.73,130.39 29.69,130.39 31.61,130.70
             33.52,131.01 35.09,131.39 36.31,131.84
             36.31,131.84 22.06,182.67 22.06,182.67
             24.66,177.61 27.61,171.94 30.91,165.66
             34.21,159.37 37.81,153.54 41.72,148.17
             45.63,142.81 49.77,138.44 54.14,135.06
             58.52,131.69 63.08,130.31 67.83,130.92
             71.97,131.54 75.08,133.03 77.14,135.41
             79.21,137.78 80.52,140.77 81.05,144.38
             81.59,147.98 81.47,151.89 80.70,156.11
             79.94,160.33 78.80,164.59 77.27,168.88 Z" />
</svg>
