<?xml version="1.0" encoding="UTF-8" standalone="no"?>
<!DOCTYPE svg PUBLIC "-//W3C//DTD SVG 20010904//EN"
              "http://www.w3.org/TR/2001/REC-SVG-20010904/DTD/svg10.dtd">

<svg xmlns="http://www.w3.org/2000/svg"
     width="33.3333in" height="1.33333in"
     viewBox="0 0 10000 400">
  <path id="o_path_1"
        fill="none" stroke="black" stroke-width="1"
        d="M 76.91,79.90
           C 79.27,81.11 81.33,82.97 83.06,85.47
             88.12,93.14 89.58,104.71 87.44,120.19
             86.66,126.48 85.32,132.89 83.41,139.41
             81.49,145.92 78.38,153.27 75.62,159.25
             75.62,159.25 73.31,164.10 73.31,164.25
             67.47,174.99 61.05,183.37 53.84,189.66
             45.57,196.55 37.06,200.00 28.31,200.00
             19.11,200.00 12.22,197.32 7.62,191.95
             3.48,187.20 1.18,180.61 0.72,172.17
             0.42,166.65 1.03,160.67 2.56,154.23
             4.09,147.80 6.39,141.66 9.45,135.83
             10.99,133.07 12.60,130.58 14.28,128.36
             15.97,126.13 17.58,124.10 19.12,122.27
             21.73,119.20 24.98,117.20 28.89,116.28
             32.80,115.37 37.52,115.29 43.05,116.05
             45.00,117.12 42.81,118.27 42.81,118.27
             37.45,119.50 32.16,124.71 26.94,133.91
             24.18,138.67 21.91,143.81 20.16,149.33
             18.39,154.84 17.36,160.20 17.05,165.42
             16.59,173.25 17.16,179.46 18.77,184.06
             20.38,188.66 22.72,191.84 25.78,193.59
             28.85,195.36 32.42,195.86 36.48,195.09
             40.55,194.32 44.64,192.52 48.78,189.69
             52.93,186.86 56.99,183.14 60.97,178.53
             64.96,173.93 68.41,168.64 71.33,162.66
             71.33,162.66 73.62,158.12 73.62,158.12
             76.38,152.30 79.38,144.53 81.22,138.17
             83.06,131.81 84.36,125.64 85.12,119.66
             86.20,112.29 86.39,105.78 85.70,100.11
             85.02,94.43 83.52,89.91 81.22,86.53
             79.59,84.40 77.93,83.06 76.23,82.52
             74.25,81.56 74.12,79.12 76.91,79.90 Z" />
</svg>
