<?xml version="1.0" encoding="UTF-8" standalone="no"?>
<!DOCTYPE svg PUBLIC "-//W3C//DTD SVG 20010904//EN"
              "http://www.w3.org/TR/2001/REC-SVG-20010904/DTD/svg10.dtd">

<svg xmlns="http://www.w3.org/2000/svg"
     width="33.3333in" height="1.33333in"
     viewBox="0 0 10000 400">
  <path id="o_path_2"
        fill="none" stroke="black" stroke-width="1"
        d="M 75.12,82.28
           C 73.05,82.05 71.09,82.59 69.25,83.89
             67.41,85.20 65.69,87.03 64.08,89.41
             62.47,91.78 61.21,94.20 60.30,96.66
             57.22,104.78 56.14,114.06 57.06,124.48
             57.83,131.54 59.86,137.79 63.16,143.23
             67.62,149.88 74.12,161.88 89.16,160.67
             93.99,160.06 98.86,158.61 103.77,156.31
             108.67,154.01 113.46,151.06 118.14,147.45
             122.82,143.85 126.84,140.13 130.20,136.30
             130.82,135.68 131.43,135.68 132.05,136.30
             132.50,136.91 132.50,137.45 132.05,137.91
             122.08,148.79 111.19,156.38 99.39,160.67
             90.34,164.20 81.75,165.12 73.62,163.44
             73.62,163.59 69.57,162.20 68.80,161.73
             61.74,159.45 55.99,155.15 51.55,148.86
             46.95,142.42 44.19,134.37 43.27,124.70
             42.62,120.25 42.50,100.38 48.80,91.91
             53.39,83.62 59.44,79.10 66.95,78.33
             70.28,77.96 73.25,78.33 75.86,79.42
             80.50,81.25 78.81,83.06 75.12,82.28 Z" />
</svg>
