<?xml version="1.0" encoding="UTF-8" standalone="no"?>
<!DOCTYPE svg PUBLIC "-//W3C//DTD SVG 20010904//EN"
              "http://www.w3.org/TR/2001/REC-SVG-20010904/DTD/svg10.dtd">

<svg xmlns="http://www.w3.org/2000/svg"
     width="33.3333in" height="1.33333in"
     viewBox="0 0 10000 400">
  <path id="p_path_1"
        fill="none" stroke="black" stroke-width="1"
        d="M 140.08,139.45
           C 140.70,137.31 141.73,135.62 143.19,134.39
             144.64,133.16 146.25,132.28 148.02,131.75
             149.77,131.21 151.50,130.90 153.19,130.83
             154.88,130.76 156.18,130.72 157.09,130.72
             155.88,139.00 154.34,147.36 152.50,155.80
             150.66,164.23 148.43,172.81 145.83,181.55
             147.52,178.17 149.35,174.45 151.34,170.39
             153.34,166.33 155.38,162.34 157.44,158.44
             159.51,154.52 161.46,150.92 163.30,147.62
             165.14,144.32 166.68,141.76 167.91,139.92
             170.21,136.55 172.51,133.59 174.81,131.06
             177.11,128.53 179.26,126.34 181.25,124.50
             184.78,121.28 188.23,119.52 191.59,119.22
             194.97,118.91 197.96,119.64 200.56,121.41
             203.18,123.17 205.36,125.81 207.12,129.34
             208.88,132.87 209.92,136.85 210.23,141.30
             210.54,146.20 209.99,151.53 208.61,157.28
             207.23,163.03 205.16,168.59 202.41,173.95
             200.10,178.40 197.42,182.51 194.36,186.27
             191.30,190.02 188.00,193.12 184.47,195.58
             189.99,194.35 195.32,192.16 200.45,189.02
             205.59,185.87 210.38,182.27 214.83,178.20
             219.27,174.14 223.34,169.89 227.02,165.45
             230.70,161.01 233.96,156.79 236.80,152.80
             239.63,148.81 241.96,145.32 243.80,142.33
             245.64,139.34 246.95,137.23 247.72,136.00
             248.03,135.39 248.57,135.31 249.33,135.78
             249.94,136.09 250.02,136.62 249.56,137.39
             246.49,142.60 242.61,148.58 237.94,155.33
             233.27,162.07 227.94,168.55 221.95,174.77
             215.97,180.98 209.30,186.34 201.94,190.86
             194.58,195.38 186.61,198.11 178.03,199.03
             176.19,199.63 174.34,200.13 172.50,200.52
             170.66,200.90 168.83,201.02 166.98,200.86
             163.92,200.71 161.32,199.80 159.17,198.11
             157.02,196.42 155.57,194.35 154.80,191.89
             154.34,190.20 154.14,188.40 154.22,186.48
             154.30,184.57 154.69,182.77 155.38,181.08
             156.06,179.39 157.13,178.01 158.59,176.94
             160.05,175.87 161.85,175.26 164.00,175.11
             165.23,175.11 166.22,175.50 166.98,176.27
             167.75,177.03 168.14,178.02 168.14,179.25
             168.14,180.47 167.75,181.50 166.98,182.34
             166.22,183.19 165.23,183.61 164.00,183.61
             162.77,183.61 161.73,183.19 160.89,182.34
             160.05,181.50 159.62,180.47 159.62,179.25
             159.62,179.25 159.86,179.02 159.86,179.02
             159.24,179.32 158.55,180.01 157.80,181.08
             156.41,183.38 155.95,185.91 156.41,188.67
             156.72,190.52 157.41,192.17 158.48,193.62
             159.55,195.07 161.16,195.95 163.31,196.27
             166.07,196.73 169.13,195.34 172.50,192.12
             175.88,188.91 179.17,184.70 182.39,179.48
             185.62,174.27 188.57,168.52 191.25,162.23
             193.94,155.95 195.97,150.00 197.34,144.41
             198.73,138.80 199.27,134.01 198.95,130.03
             198.65,126.04 197.12,123.66 194.36,122.89
             191.30,121.82 187.69,122.86 183.55,126.00
             179.41,129.15 174.89,134.25 169.98,141.30
             169.05,142.67 167.94,144.48 166.64,146.70
             165.34,148.92 163.96,151.41 162.50,154.17
             161.04,156.93 159.55,159.81 158.02,162.80
             156.48,165.79 154.95,168.74 153.42,171.66
             149.89,178.55 146.21,185.99 142.38,193.97
             142.07,194.43 141.84,194.66 141.69,194.66
             136.78,209.99 130.92,224.79 124.09,239.05
             117.27,253.30 109.41,266.27 100.52,277.92
             87.64,294.79 73.92,306.74 59.34,313.80
             50.76,317.93 42.56,320.00 34.73,320.00
             28.45,320.00 22.55,318.62 17.03,315.86
             9.82,312.48 5.23,307.66 3.23,301.38
             1.23,296.01 1.39,289.57 3.69,282.05
             5.07,277.91 7.07,273.62 9.67,269.17
             12.28,264.72 15.46,260.31 19.22,255.94
             22.97,251.57 27.18,247.24 31.86,242.95
             36.54,238.66 41.56,234.68 46.94,231.00
             52.30,227.31 57.67,224.01 63.03,221.09
             68.40,218.19 73.69,215.89 78.91,214.20
             90.25,210.07 100.52,208.84 109.72,210.53
             110.64,210.53 110.95,210.91 110.64,211.67
             110.64,212.74 110.26,213.05 109.48,212.59
             101.20,211.22 91.70,212.29 80.97,215.81
             70.24,219.34 59.36,225.02 48.31,232.83
             37.73,240.19 28.68,248.32 21.17,257.20
             13.66,266.10 8.60,274.61 5.98,282.75
             3.23,291.33 3.11,297.96 5.64,302.64
             8.17,307.32 12.09,310.34 17.38,311.72
             22.67,313.10 28.73,313.07 35.55,311.61
             42.37,310.15 48.62,307.43 54.30,303.44
             65.18,296.08 75.45,286.04 85.11,273.31
             92.93,263.20 99.72,252.27 105.47,240.53
             111.22,228.80 116.28,216.99 120.66,205.11
             125.02,193.23 128.74,181.62 131.81,170.28
             134.88,158.93 137.63,148.65 140.08,139.45 Z" />
</svg>
