<?xml version="1.0" encoding="UTF-8" standalone="no"?>
<!DOCTYPE svg PUBLIC "-//W3C//DTD SVG 20010904//EN"
              "http://www.w3.org/TR/2001/REC-SVG-20010904/DTD/svg10.dtd">

<svg xmlns="http://www.w3.org/2000/svg"
     width="33.3333in" height="1.33333in"
     viewBox="0 0 10000 400">
  <path id="q_mask_1"
        fill="none" stroke="black" stroke-width="1"
        d="M 2.88,139.25
           C 6.88,121.12 28.88,100.38 43.25,102.50
             61.25,105.88 57.75,118.12 56.25,125.88
             54.25,131.25 43.38,135.25 47.25,126.62
             53.75,113.75 53.62,98.12 32.50,112.75
             -2.50,145.12 7.38,184.25 14.75,184.50
             34.50,191.38 44.12,148.00 48.00,141.75
             68.62,114.62 78.00,125.25 68.50,135.62
             25.25,207.75 9.62,292.38 37.38,310.88
             68.88,332.50 90.12,289.38 89.88,246.88
             91.50,212.12 74.25,185.75 59.25,179.62
             74.38,181.75 96.12,175.62 129.25,133.25" />
</svg>
