<?xml version="1.0" encoding="UTF-8" standalone="no"?>
<!DOCTYPE svg PUBLIC "-//W3C//DTD SVG 20010904//EN"
              "http://www.w3.org/TR/2001/REC-SVG-20010904/DTD/svg10.dtd">

<svg xmlns="http://www.w3.org/2000/svg"
     width="33.3333in" height="1.33333in"
     viewBox="0 0 10000 400">
  <path id="q_path_1"
        fill="none" stroke="black" stroke-width="1"
        d="M 55.77,140.20
           C 56.38,139.13 56.91,138.17 57.38,137.33
             57.83,136.48 58.29,135.76 58.75,135.14
             60.44,132.84 63.04,131.38 66.56,130.77
             70.09,130.15 73.55,130.54 76.92,131.92
             76.15,133.00 75.49,134.11 74.95,135.27
             74.42,136.41 73.77,137.67 73.02,139.05
             68.87,148.25 64.80,157.45 60.81,166.66
             56.83,175.86 53.19,184.75 49.89,193.33
             46.60,201.91 43.64,210.04 41.03,217.70
             38.43,225.37 36.44,232.19 35.06,238.17
             32.60,248.30 31.26,257.80 31.03,266.69
             30.80,275.58 31.69,283.48 33.69,290.39
             34.76,294.98 36.75,299.50 39.66,303.95
             42.57,308.40 45.98,311.54 49.89,313.38
             53.80,315.22 58.06,315.26 62.66,313.50
             67.26,311.74 71.86,307.02 76.45,299.36
             81.36,291.38 84.85,281.56 86.92,269.91
             88.99,258.26 89.64,246.30 88.88,234.03
             87.80,221.00 85.19,209.84 81.05,200.56
             76.91,191.29 71.62,184.66 65.19,180.67
             64.43,180.37 64.35,179.91 64.95,179.30
             65.57,178.53 66.10,178.38 66.56,178.84
             66.56,178.84 66.80,178.84 66.80,178.84
             72.32,178.69 77.80,177.23 83.23,174.47
             88.68,171.71 93.94,168.26 99.00,164.12
             104.06,159.98 108.89,155.38 113.48,150.33
             118.09,145.27 122.30,140.43 126.14,135.83
             126.60,135.21 127.13,135.10 127.75,135.48
             128.36,135.87 128.29,136.45 127.52,137.20
             123.84,141.65 119.85,146.26 115.56,151.02
             111.27,155.77 106.67,160.21 101.77,164.36
             96.86,168.50 91.68,172.06 86.23,175.05
             80.79,178.04 75.07,179.91 69.09,180.67
             75.07,185.28 79.91,191.87 83.59,200.45
             87.73,209.80 90.18,220.77 90.95,233.34
             91.41,239.63 91.48,245.84 91.17,251.97
             90.87,258.10 90.18,264.05 89.11,269.80
             88.04,275.55 86.61,280.99 84.84,286.12
             83.08,291.27 81.05,295.91 78.77,300.05
             74.77,306.64 69.75,311.85 63.69,315.69
             57.63,319.52 50.85,320.59 43.34,318.91
             30.16,315.84 21.49,306.72 17.34,291.53
             15.51,284.33 14.71,276.24 14.94,267.27
             15.16,258.30 16.50,248.60 18.95,238.17
             21.41,227.44 24.86,215.79 29.31,203.22
             33.76,190.65 38.89,177.77 44.72,164.58
             44.72,164.58 43.56,166.19 43.56,166.19
             41.27,169.56 38.97,172.52 36.67,175.05
             34.37,177.58 32.22,179.76 30.23,181.59
             26.70,184.81 23.25,186.58 19.88,186.89
             16.50,187.20 13.51,186.46 10.91,184.70
             8.30,182.95 6.12,180.30 4.36,176.78
             2.59,173.25 1.55,169.26 1.25,164.81
             0.95,159.91 1.49,154.58 2.88,148.83
             4.25,143.08 6.31,137.52 9.06,132.14
             11.06,128.29 13.33,124.66 15.86,121.25
             18.39,117.84 21.15,114.91 24.14,112.44
             27.13,109.96 30.35,108.06 33.80,106.75
             37.24,105.44 40.80,104.86 44.48,105.00
             47.55,105.16 50.16,106.09 52.31,107.80
             54.46,109.50 55.91,111.58 56.69,114.05
             57.14,115.76 57.33,117.58 57.25,119.52
             57.18,121.45 56.79,123.26 56.09,124.97
             55.41,126.67 54.33,128.06 52.88,129.14
             51.43,130.23 49.63,130.84 47.48,131.00
             46.25,131.00 45.25,130.62 44.48,129.84
             43.72,129.06 43.34,128.06 43.34,126.83
             43.34,125.59 43.72,124.54 44.48,123.69
             45.25,122.84 46.25,122.41 47.48,122.41
             48.70,122.41 49.73,122.84 50.58,123.69
             51.42,124.54 51.84,125.59 51.84,126.83
             51.84,126.83 51.62,127.05 51.62,127.05
             52.24,126.75 52.93,126.05 53.69,124.97
             55.07,122.65 55.53,120.09 55.06,117.30
             54.76,115.45 54.07,113.78 53.00,112.31
             51.93,110.84 50.32,109.95 48.17,109.64
             45.41,109.18 42.34,110.58 38.97,113.83
             35.59,117.08 32.30,121.33 29.08,126.58
             25.86,131.83 22.91,137.60 20.22,143.89
             17.54,150.17 15.51,156.11 14.12,161.70
             12.75,167.30 12.21,172.09 12.52,176.08
             12.83,180.07 14.36,182.45 17.12,183.20
             20.19,184.28 23.79,183.25 27.92,180.11
             32.07,176.96 36.59,171.87 41.50,164.81
             43.34,162.20 45.07,159.55 46.67,156.88
             48.29,154.19 49.71,151.77 50.94,149.62
             52.31,147.18 53.54,144.88 54.61,142.73
             54.91,141.96 54.94,142.19 55.77,140.20 Z" />
</svg>
