<?xml version="1.0" encoding="UTF-8" standalone="no"?>
<!DOCTYPE svg PUBLIC "-//W3C//DTD SVG 20010904//EN"
              "http://www.w3.org/TR/2001/REC-SVG-20010904/DTD/svg10.dtd">

<svg xmlns="http://www.w3.org/2000/svg"
     width="33.3333in" height="1.33333in"
     viewBox="0 0 10000 400">
  <path id="r_path_2"
        fill="none" stroke="black" stroke-width="1"
        d="M 13.58,99.19
           C 12.73,98.88 12.01,99.11 11.41,99.88
             10.79,100.64 10.37,101.79 10.14,103.33
             9.91,104.86 9.72,106.47 9.56,108.16
             9.41,109.99 9.60,111.95 10.14,114.02
             10.67,116.09 11.40,118.27 12.31,120.56
             14.38,127.38 21.12,135.88 31.98,137.02
             36.20,137.32 40.61,137.09 45.20,136.31
             46.43,134.17 48.00,132.67 49.92,131.83
             51.84,130.98 53.75,130.56 55.67,130.56
             57.59,130.56 59.35,130.76 60.95,131.14
             62.57,131.53 63.60,131.80 64.06,131.95
             64.06,131.95 63.60,132.95 62.69,134.94
             61.77,136.93 60.58,139.54 59.12,142.77
             57.66,145.98 56.05,149.70 54.30,153.92
             52.54,158.13 50.81,162.54 49.12,167.14
             44.36,180.02 41.79,189.75 41.41,196.34
             41.03,202.94 42.22,206.85 44.98,208.08
             47.29,208.99 50.58,207.96 54.88,204.97
             59.16,201.98 63.99,197.12 69.36,190.38
             75.80,182.55 81.43,174.85 86.27,167.27
             91.10,159.67 95.89,151.96 100.64,144.14
             101.41,142.61 102.25,141.16 103.17,139.78
             104.09,138.40 104.93,137.01 105.70,135.62
             106.00,135.01 106.54,134.94 107.31,135.41
             107.93,135.71 108.00,136.25 107.55,137.02
             107.55,137.02 102.48,145.30 102.48,145.30
             97.88,153.11 93.27,160.78 88.67,168.30
             84.08,175.81 78.48,183.55 71.89,191.52
             69.74,194.12 67.48,196.77 65.11,199.45
             62.73,202.14 60.24,204.52 57.62,206.58
             55.02,208.65 52.26,210.30 49.34,211.53
             46.44,212.76 43.45,213.14 40.38,212.67
             36.70,212.21 33.86,210.72 31.86,208.19
             29.87,205.66 28.60,202.38 28.06,198.31
             27.53,194.24 27.69,189.48 28.53,184.05
             29.38,178.60 30.80,172.73 32.80,166.45
             35.09,159.09 37.19,153.18 39.11,148.73
             41.02,144.29 42.60,140.99 43.83,138.84
             42.14,139.16 40.53,139.31 39.00,139.31
             37.47,139.31 36.01,139.31 34.62,139.31
             28.64,139.31 23.66,138.55 19.69,137.02
             12.02,134.26 6.50,128.66 3.12,120.22
             1.44,115.93 0.52,111.75 0.36,107.69
             0.20,103.62 0.97,100.29 2.66,97.67
             4.04,95.53 5.89,94.30 8.19,94.00
             10.34,94.00 12.29,94.58 14.05,95.73
             19.44,99.62 16.88,100.06 13.58,99.19 Z" />
</svg>
