<?xml version="1.0" encoding="UTF-8" standalone="no"?>
<!DOCTYPE svg PUBLIC "-//W3C//DTD SVG 20010904//EN"
              "http://www.w3.org/TR/2001/REC-SVG-20010904/DTD/svg10.dtd">

<svg xmlns="http://www.w3.org/2000/svg"
     width="33.3333in" height="1.33333in"
     viewBox="0 0 10000 400">
  <path id="s_path_2"
        fill="none" stroke="black" stroke-width="1"
        d="M 11.98,220.50
           C 15.05,222.11 18.23,222.88 21.53,222.80
             24.82,222.72 28.00,221.77 31.06,219.92
             34.13,218.09 36.66,215.48 38.66,212.11
             42.64,205.05 45.13,197.81 46.12,190.38
             48.44,172.94 45.38,156.31 43.25,148.75
             42.03,143.30 40.80,138.05 39.58,132.98
             36.62,124.06 35.00,115.81 34.28,110.33
             33.52,105.65 33.52,101.40 34.30,97.56
             35.21,92.36 36.94,87.76 39.47,83.78
             42.00,79.79 45.02,76.95 48.55,75.27
             50.69,74.50 53.07,74.07 55.67,74.00
             58.29,73.92 60.51,74.80 62.34,76.64
             66.00,81.06 62.69,80.12 60.05,78.03
             58.67,77.72 57.37,78.18 56.14,79.41
             54.61,80.62 53.11,82.73 51.66,85.72
             50.20,88.71 49.01,92.73 48.09,97.80
             47.78,99.64 47.66,101.60 47.73,103.67
             47.82,105.73 49.12,117.31 51.19,122.42
             52.03,125.48 52.99,128.78 54.06,132.30
             55.29,136.29 56.48,140.43 57.62,144.72
             59.38,151.62 62.69,166.56 62.58,171.41
             63.65,186.89 60.97,200.38 54.53,211.88
             51.77,216.48 48.09,220.05 43.48,222.58
             38.89,225.11 33.75,226.38 28.08,226.38
             28.08,226.38 27.39,226.38 27.39,226.38
             22.03,226.38 17.09,225.22 12.56,222.92
             6.69,219.81 8.50,218.56 11.98,220.50 Z" />
</svg>
