<?xml version="1.0" encoding="UTF-8" standalone="no"?>
<!DOCTYPE svg PUBLIC "-//W3C//DTD SVG 20010904//EN"
              "http://www.w3.org/TR/2001/REC-SVG-20010904/DTD/svg10.dtd">

<svg xmlns="http://www.w3.org/2000/svg"
     width="33.3333in" height="1.33333in"
     viewBox="0 0 10000 400">
  <path id="s_path_1"
        fill="none" stroke="black" stroke-width="1"
        d="M 63.90,79.02
           C 64.94,82.40 63.51,88.13 59.59,96.19
             58.36,98.65 56.83,101.29 54.98,104.12
             53.15,106.96 51.16,110.06 49.02,113.44
             49.02,113.44 38.20,128.16 38.20,128.16
             38.20,128.16 31.06,137.36 31.06,137.36
             30.46,137.98 29.92,137.98 29.45,137.36
             28.70,136.90 28.62,136.37 29.23,135.75
             30.77,134.06 32.22,132.34 33.59,130.58
             34.98,128.82 36.29,127.09 37.52,125.41
             37.52,125.41 48.55,110.22 48.55,110.22
             52.22,104.54 55.21,99.48 57.52,95.05
             59.36,91.21 60.62,88.23 61.31,86.08
             62.00,83.92 62.27,82.23 62.12,81.02
             59.69,75.31 63.19,76.62 63.90,79.02 Z" />
</svg>
