<?xml version="1.0" encoding="UTF-8" standalone="no"?>
<!DOCTYPE svg PUBLIC "-//W3C//DTD SVG 20010904//EN"
              "http://www.w3.org/TR/2001/REC-SVG-20010904/DTD/svg10.dtd">

<svg xmlns="http://www.w3.org/2000/svg"
     width="33.3333in" height="1.33333in"
     viewBox="0 0 10000 400">
  <path id="s_path_3"
        fill="none" stroke="black" stroke-width="1"
        d="M 10.09,221.51
           C 6.82,219.44 4.39,216.92 2.78,213.95
             1.71,211.95 1.06,209.49 0.83,206.58
             0.60,203.67 1.71,200.38 4.16,196.70
             7.84,190.87 13.56,185.39 21.30,180.25
             29.04,175.12 37.35,170.17 46.25,165.42
             46.25,165.42 60.52,157.83 60.52,157.83
             68.64,153.54 76.15,149.32 83.05,145.19
             89.95,141.04 95.39,136.67 99.38,132.06
             99.99,131.46 100.52,131.39 100.98,131.84
             101.60,132.46 101.68,133.00 101.22,133.45
             96.93,138.36 91.21,142.92 84.08,147.14
             76.95,151.35 69.25,155.68 60.97,160.12
             60.97,160.12 46.48,167.95 46.48,167.95
             37.89,172.55 29.88,177.30 22.45,182.20
             15.02,187.11 9.53,192.32 6.00,197.84
             2.78,203.22 2.32,208.20 4.62,212.80
             6.14,215.71 8.07,217.96 10.43,219.57
             14.19,221.94 13.38,223.31 10.09,221.51 Z" />
</svg>
