<?xml version="1.0" encoding="UTF-8" standalone="no"?>
<!DOCTYPE svg PUBLIC "-//W3C//DTD SVG 20010904//EN"
              "http://www.w3.org/TR/2001/REC-SVG-20010904/DTD/svg10.dtd">

<svg xmlns="http://www.w3.org/2000/svg"
     width="33.3333in" height="1.33333in"
     viewBox="0 0 10000 400">
  <path id="t_path_3"
        fill="none" stroke="black" stroke-width="1"
        d="M 72.89,61.45
           C 71.36,61.92 69.82,62.35 68.28,62.73
             58.00,65.25 41.31,68.88 30.22,70.55
             25.70,71.16 21.60,71.47 17.92,71.47
             17.92,71.47 17.69,71.47 17.69,71.47
             12.32,71.47 8.26,70.55 5.50,68.70
             2.44,66.85 0.83,64.31 0.67,61.08
             0.67,59.85 0.95,58.70 1.48,57.62
             2.02,56.54 3.12,56.00 4.81,56.00
             6.04,56.00 7.08,56.45 7.92,57.34
             8.77,58.23 9.19,59.32 9.19,60.62
             9.19,61.92 8.77,62.97 7.92,63.78
             7.08,64.59 6.04,65.00 4.81,65.00
             4.81,65.00 4.12,65.00 4.12,65.00
             5.50,67.00 7.57,68.27 10.33,68.81
             13.09,69.34 15.54,69.61 17.69,69.61
             17.69,69.61 17.92,69.61 17.92,69.61
             21.60,69.61 25.85,69.27 30.69,68.58
             42.62,67.19 68.00,60.56 72.20,59.09
             72.20,59.09 82.13,56.38 82.84,56.22
             90.96,54.42 98.76,52.79 106.23,51.36
             114.37,49.79 121.43,49.00 127.41,49.00
             134.00,49.30 138.68,50.87 141.44,53.70
             142.20,54.45 142.92,55.39 143.61,56.50
             144.30,57.62 144.66,58.77 144.66,59.97
             144.66,61.17 144.23,62.14 143.39,62.89
             142.55,63.63 141.51,64.00 140.28,64.00
             139.05,64.00 138.05,63.59 137.28,62.78
             136.52,61.97 136.14,60.92 136.14,59.62
             136.14,58.32 136.52,57.27 137.28,56.47
             138.05,55.66 139.05,55.17 140.28,55.00
             139.51,53.93 138.05,52.93 135.91,52.02
             134.68,51.56 133.33,51.18 131.88,50.88
             130.43,50.56 128.94,50.41 127.41,50.41
             121.43,50.41 114.22,51.29 105.78,53.05
             98.24,54.62 90.53,56.35 82.64,58.24
             81.70,58.46 73.66,61.31 72.89,61.45 Z" />
</svg>
