<?xml version="1.0" encoding="UTF-8" standalone="no"?>
<!DOCTYPE svg PUBLIC "-//W3C//DTD SVG 20010904//EN"
              "http://www.w3.org/TR/2001/REC-SVG-20010904/DTD/svg10.dtd">

<svg xmlns="http://www.w3.org/2000/svg"
     width="33.3333in" height="1.33333in"
     viewBox="0 0 10000 400">
  <path id="t_path_2"
        fill="none" stroke="black" stroke-width="1"
        d="M 45.98,65.69
           C 48.74,59.70 51.69,54.06 54.83,48.77
             57.97,43.48 61.08,38.88 64.14,34.97
             67.21,31.05 70.28,28.10 73.34,26.11
             76.41,24.12 79.33,23.59 82.09,24.50
             82.92,24.87 83.64,25.33 84.26,25.90
             87.00,28.50 85.56,30.56 82.55,27.81
             81.47,27.51 80.29,28.43 78.98,30.58
             77.68,32.73 76.19,35.56 74.50,39.08
             73.12,42.00 71.63,45.30 70.02,48.98
             68.40,52.66 66.68,56.65 64.84,60.94
             64.84,60.94 63.69,63.77 63.69,63.77
             60.62,70.82 57.48,78.37 54.27,86.42
             51.05,94.46 47.75,102.70 44.38,111.14
             44.38,111.14 42.30,116.02 42.30,116.02
             38.92,124.65 35.70,133.09 32.64,141.34
             29.58,149.59 26.89,157.17 24.59,164.09
             20.14,177.34 19.03,186.32 21.25,191.03
             23.48,195.73 27.73,195.92 34.02,191.61
             39.08,188.21 43.64,184.44 47.70,180.28
             51.77,176.12 55.60,171.61 59.20,166.75
             62.80,161.90 66.25,156.81 69.55,151.50
             72.85,146.19 76.19,140.76 79.56,135.20
             80.02,134.43 80.55,134.36 81.17,134.97
             81.93,135.44 82.08,135.98 81.62,136.59
             78.41,141.84 75.11,147.15 71.73,152.55
             68.37,157.93 64.80,163.17 61.05,168.27
             57.29,173.35 53.18,178.16 48.73,182.70
             44.29,187.25 39.46,191.21 34.25,194.61
             29.80,197.54 25.58,199.00 21.59,199.00
             19.60,199.00 17.61,198.67 15.62,198.00
             11.79,196.30 9.23,192.88 7.92,187.72
             6.61,182.56 6.80,175.83 8.48,167.52
             10.63,157.82 13.28,148.12 16.42,138.44
             19.57,128.74 23.13,119.12 27.12,109.56
             27.74,108.18 28.58,106.06 29.66,103.22
             30.73,100.38 32.03,97.11 33.56,93.41
             35.09,89.71 36.82,85.67 38.73,81.28
             40.65,76.90 42.68,72.40 44.83,67.78
             44.83,67.78 45.98,65.69 45.98,65.69 Z" />
</svg>
