<?xml version="1.0" encoding="UTF-8" standalone="no"?>
<!DOCTYPE svg PUBLIC "-//W3C//DTD SVG 20010904//EN"
              "http://www.w3.org/TR/2001/REC-SVG-20010904/DTD/svg10.dtd">

<svg xmlns="http://www.w3.org/2000/svg"
     width="33.3333in" height="1.33333in"
     viewBox="0 0 10000 400">
  <path id="t_path_1"
        fill="none" stroke="black" stroke-width="1"
        d="M 78.19,57.48
           C 80.63,51.96 82.39,46.98 83.47,42.53
             84.54,38.09 84.93,34.56 84.62,31.95
             84.31,30.27 84.00,29.20 83.69,28.73
             82.25,27.31 83.31,24.25 85.52,27.38
             86.24,28.49 86.71,29.83 86.92,31.41
             87.68,36.16 86.30,42.90 82.78,51.64
             82.78,51.64 80.70,56.70 80.70,56.70
             80.70,56.70 79.80,58.92 79.80,58.92
             77.34,64.79 74.19,70.95 70.36,77.42
             65.61,85.75 60.74,93.38 55.75,100.31
             48.94,109.31 45.88,115.56 33.94,120.06
             28.75,121.69 19.25,136.69 17.62,138.50
             16.69,140.19 15.44,138.69 17.88,135.81
             19.12,134.00 27.19,121.62 31.94,119.38
             44.38,114.50 49.12,106.31 55.98,96.19
             60.20,90.21 64.30,83.77 68.30,76.88
             69.97,73.96 71.54,71.12 73.00,68.36
             74.46,65.60 75.80,62.92 77.03,60.31
             77.03,60.31 78.19,57.48 78.19,57.48 Z" />
</svg>
