<?xml version="1.0" encoding="UTF-8" standalone="no"?>
<!DOCTYPE svg PUBLIC "-//W3C//DTD SVG 20010904//EN"
              "http://www.w3.org/TR/2001/REC-SVG-20010904/DTD/svg10.dtd">

<svg xmlns="http://www.w3.org/2000/svg"
     width="33.3333in" height="1.33333in"
     viewBox="0 0 10000 400">
  <path id="u_path_1"
        fill="none" stroke="black" stroke-width="1"
        d="M 14.55,199.00
           C 10.10,198.39 6.84,196.74 4.77,194.06
             2.70,191.38 1.47,188.08 1.09,184.17
             0.71,180.26 1.02,176.00 2.02,171.41
             3.01,166.80 4.27,162.28 5.80,157.83
             7.33,153.38 8.98,149.24 10.75,145.41
             12.51,141.57 14.01,138.51 15.23,136.20
             16.45,134.06 18.02,132.56 19.94,131.72
             21.85,130.88 23.77,130.45 25.69,130.45
             27.60,130.45 29.37,130.65 30.98,131.03
             32.60,131.42 33.63,131.69 34.09,131.84
             33.48,133.07 32.44,135.38 30.98,138.75
             29.52,142.12 27.88,146.02 26.03,150.47
             24.20,154.92 22.39,159.56 20.62,164.39
             18.86,169.21 17.52,173.73 16.61,177.95
             15.69,182.17 15.35,185.78 15.58,188.77
             15.80,191.76 16.99,193.64 19.14,194.41
             21.13,195.17 23.35,194.82 25.80,193.38
             28.25,191.92 30.75,189.81 33.28,187.05
             35.81,184.29 38.34,181.03 40.88,177.27
             43.41,173.51 45.82,169.59 48.11,165.53
             50.41,161.47 52.60,157.48 54.67,153.58
             56.74,149.66 58.55,146.25 60.08,143.34
             60.08,143.34 63.77,136.20 63.77,136.20
             64.98,134.06 66.55,132.56 68.47,131.72
             70.38,130.88 72.30,130.45 74.22,130.45
             76.13,130.45 77.90,130.65 79.52,131.03
             81.13,131.42 82.16,131.69 82.62,131.84
             82.62,131.84 82.16,132.84 81.23,134.83
             80.32,136.82 79.13,139.43 77.67,142.66
             76.21,145.88 74.60,149.59 72.84,153.81
             71.08,158.02 69.36,162.43 67.67,167.03
             62.92,179.91 60.35,189.64 59.97,196.23
             59.58,202.83 60.77,206.74 63.53,207.97
             65.83,208.88 69.13,207.85 73.42,204.86
             77.71,201.87 82.54,197.01 87.91,190.27
             94.34,182.45 99.98,174.74 104.81,167.16
             109.64,159.56 114.44,151.86 119.19,144.03
             119.96,142.50 120.80,141.05 121.72,139.67
             122.63,138.29 123.48,136.90 124.25,135.52
             124.55,134.90 125.09,134.83 125.86,135.30
             126.47,135.60 126.55,136.14 126.09,136.91
             126.09,136.91 121.03,145.19 121.03,145.19
             116.43,153.00 111.82,160.67 107.22,168.19
             102.62,175.70 97.03,183.44 90.44,191.41
             88.29,194.01 86.03,196.66 83.66,199.34
             81.28,202.03 78.79,204.41 76.17,206.47
             73.57,208.54 70.80,210.19 67.89,211.42
             64.98,212.65 62.00,213.03 58.94,212.56
             55.25,212.10 52.41,210.61 50.42,208.08
             48.43,205.55 47.16,202.27 46.62,198.20
             46.08,194.13 46.23,189.38 47.08,183.94
             47.92,178.49 49.34,172.62 51.34,166.34
             51.34,166.34 52.72,161.73 52.72,161.73
             50.11,166.50 47.35,171.21 44.44,175.89
             41.52,180.57 38.45,184.71 35.23,188.31
             32.02,191.91 28.68,194.74 25.23,196.81
             21.79,198.89 18.22,199.61 14.55,199.00 Z" />
</svg>
