<?xml version="1.0" encoding="UTF-8" standalone="no"?>
<!DOCTYPE svg PUBLIC "-//W3C//DTD SVG 20010904//EN"
              "http://www.w3.org/TR/2001/REC-SVG-20010904/DTD/svg10.dtd">

<svg xmlns="http://www.w3.org/2000/svg"
     width="33.3333in" height="1.33333in"
     viewBox="0 0 10000 400">
  <path id="v_path_1"
        fill="none" stroke="black" stroke-width="1"
        d="M 68.86,122.64
           C 69.40,124.79 69.63,127.12 69.55,129.66
             69.47,132.19 69.09,134.87 68.41,137.70
             67.72,140.54 66.84,143.26 65.77,145.88
             64.69,148.25 62.75,151.42 62.51,151.90
             59.76,157.35 56.58,163.39 52.98,170.02
             49.08,177.23 44.90,183.93 40.45,190.14
             36.02,196.35 31.46,201.45 26.78,205.44
             22.10,209.43 17.46,211.11 12.86,210.50
             8.41,209.88 5.27,207.97 3.44,204.75
             1.59,201.53 0.59,197.55 0.44,192.80
             0.28,188.04 0.86,182.86 2.17,177.27
             3.48,171.67 5.01,166.23 6.77,160.94
             8.53,155.65 10.41,150.78 12.41,146.33
             14.40,141.88 16.01,138.51 17.23,136.20
             18.45,134.06 20.02,132.56 21.94,131.72
             23.85,130.88 25.77,130.45 27.69,130.45
             29.60,130.45 31.37,130.65 32.98,131.03
             34.60,131.42 35.63,131.69 36.09,131.84
             35.63,133.07 34.52,135.68 32.75,139.67
             30.99,143.65 29.07,148.25 27.00,153.47
             24.94,158.68 22.87,164.20 20.80,170.03
             18.72,175.86 17.11,181.30 15.97,186.36
             14.81,191.41 14.23,195.74 14.23,199.34
             14.23,202.95 15.31,205.13 17.45,205.91
             20.21,206.82 23.55,205.48 27.45,201.88
             31.37,198.27 35.36,193.52 39.42,187.62
             43.48,181.72 47.43,175.36 51.27,168.53
             54.81,162.22 57.89,156.47 60.52,151.28
             60.74,150.86 63.31,146.44 64.16,144.03
             65.53,140.50 66.41,136.94 66.80,133.34
             67.18,129.74 67.14,126.63 66.69,124.02
             65.00,119.88 67.19,116.19 68.86,122.64 Z" />
</svg>
