<?xml version="1.0" encoding="UTF-8" standalone="no"?>
<!DOCTYPE svg PUBLIC "-//W3C//DTD SVG 20010904//EN"
              "http://www.w3.org/TR/2001/REC-SVG-20010904/DTD/svg10.dtd">

<svg xmlns="http://www.w3.org/2000/svg"
     width="33.3333in" height="1.33333in"
     viewBox="0 0 10000 400">
  <path id="v_path_2"
        fill="none" stroke="black" stroke-width="1"
        d="M 66.15,122.17
           C 65.56,120.39 64.97,119.59 64.38,119.77
             63.61,120.00 62.62,121.57 61.39,124.48
             60.47,127.09 60.09,130.00 60.23,133.22
             60.39,136.44 61.31,139.59 63.00,142.66
             63.46,143.42 65.25,148.00 74.73,147.48
             78.11,147.03 81.55,146.07 85.08,144.61
             88.61,143.15 92.02,141.43 95.31,139.44
             98.61,137.44 101.57,135.59 104.17,133.91
             104.63,133.45 105.16,133.53 105.78,134.14
             106.24,134.91 106.16,135.45 105.55,135.75
             98.65,140.66 91.98,144.42 85.53,147.03
             79.09,149.64 73.35,150.94 68.30,150.94
             67.37,150.94 66.48,150.90 65.64,150.83
             64.80,150.75 63.99,150.62 63.23,150.47
             63.23,150.47 61.16,150.02 61.16,150.02
             57.78,148.63 55.48,146.56 54.27,143.80
             52.42,140.58 51.38,137.13 51.16,133.45
             50.93,129.78 51.43,126.32 52.66,123.09
             54.34,118.96 56.72,116.43 59.78,115.52
             62.54,114.75 64.77,115.36 66.45,117.34
             67.19,118.30 67.81,119.45 68.30,120.78
             69.25,126.00 67.50,125.75 66.15,122.17 Z" />
</svg>
