<?xml version="1.0" encoding="UTF-8" standalone="no"?>
<!DOCTYPE svg PUBLIC "-//W3C//DTD SVG 20010904//EN"
              "http://www.w3.org/TR/2001/REC-SVG-20010904/DTD/svg10.dtd">

<svg xmlns="http://www.w3.org/2000/svg"
     width="33.3333in" height="1.33333in"
     viewBox="0 0 10000 400">
  <path id="w_path_2"
        fill="none" stroke="black" stroke-width="1"
        d="M 112.52,122.38
           C 111.90,120.45 111.29,119.59 110.67,119.77
             109.91,120.00 108.91,121.57 107.69,124.48
             106.77,127.09 106.38,130.00 106.53,133.22
             106.69,136.44 107.61,139.59 109.30,142.66
             109.75,143.42 110.75,145.06 112.06,145.88
             114.66,147.41 117.66,147.95 121.03,147.48
             124.41,147.03 127.85,146.07 131.38,144.61
             134.91,143.15 138.32,141.43 141.61,139.44
             144.91,137.44 147.86,135.59 150.47,133.91
             150.93,133.45 151.46,133.53 152.08,134.14
             152.54,134.91 152.46,135.45 151.84,135.75
             144.95,140.66 138.28,144.42 131.84,147.03
             125.41,149.64 119.66,150.94 114.59,150.94
             113.66,150.94 112.78,150.90 111.94,150.83
             111.10,150.75 110.30,150.62 109.53,150.47
             107.12,150.31 101.79,146.56 100.56,143.80
             98.72,140.58 97.68,137.13 97.45,133.45
             97.22,129.78 97.72,126.32 98.95,123.09
             100.64,118.96 103.02,116.43 106.08,115.52
             108.84,114.75 111.06,115.36 112.75,117.34
             113.45,118.24 114.03,119.31 114.50,120.53
             115.81,125.62 113.69,125.38 112.52,122.38 Z" />
</svg>
