<?xml version="1.0" encoding="UTF-8" standalone="no"?>
<!DOCTYPE svg PUBLIC "-//W3C//DTD SVG 20010904//EN"
              "http://www.w3.org/TR/2001/REC-SVG-20010904/DTD/svg10.dtd">

<svg xmlns="http://www.w3.org/2000/svg"
     width="33.3333in" height="1.33333in"
     viewBox="0 0 10000 400">
  <path id="w_path_1"
        fill="none" stroke="black" stroke-width="1"
        d="M 115.16,122.64
           C 115.70,124.79 115.93,127.12 115.84,129.66
             115.77,132.19 115.39,134.87 114.70,137.70
             114.13,140.07 113.42,142.36 112.57,144.58
             112.41,145.02 109.16,151.20 108.98,151.57
             106.18,157.11 102.96,163.26 99.30,170.02
             95.39,177.23 91.21,183.93 86.77,190.14
             82.32,196.35 77.75,201.45 73.08,205.44
             68.40,209.43 63.76,211.11 59.16,210.50
             54.71,209.88 51.56,207.97 49.72,204.75
             47.88,201.53 46.89,197.62 46.73,193.03
             46.59,188.43 47.12,183.41 48.34,177.97
             49.57,172.52 51.03,167.11 52.72,161.73
             50.11,166.50 47.35,171.21 44.44,175.89
             41.52,180.57 38.45,184.71 35.23,188.31
             32.02,191.91 28.68,194.74 25.23,196.81
             21.79,198.89 18.22,199.61 14.55,199.00
             10.10,198.39 6.84,196.74 4.77,194.06
             2.70,191.38 1.47,188.08 1.09,184.17
             0.71,180.26 1.02,176.00 2.02,171.41
             3.01,166.80 4.27,162.28 5.80,157.83
             7.33,153.38 8.98,149.24 10.75,145.41
             12.51,141.57 14.01,138.51 15.23,136.20
             16.45,134.06 18.02,132.56 19.94,131.72
             21.85,130.88 23.77,130.45 25.69,130.45
             27.60,130.45 29.37,130.65 30.98,131.03
             32.60,131.42 33.63,131.69 34.09,131.84
             33.63,133.07 32.63,135.38 31.09,138.75
             29.56,142.12 27.88,146.02 26.03,150.47
             24.20,154.92 22.39,159.56 20.62,164.39
             18.86,169.21 17.52,173.73 16.61,177.95
             15.69,182.17 15.35,185.78 15.58,188.77
             15.80,191.76 16.99,193.64 19.14,194.41
             21.59,195.17 24.30,194.52 27.30,192.45
             30.30,190.38 33.29,187.43 36.28,183.59
             39.27,179.76 42.26,175.39 45.25,170.48
             48.24,165.58 50.96,160.82 53.41,156.22
             55.86,151.62 56.48,151.39 58.47,146.80
             60.46,142.20 62.14,138.66 63.53,136.20
             64.76,134.06 66.33,132.56 68.25,131.72
             70.16,130.88 72.08,130.45 74.00,130.45
             75.91,130.45 77.68,130.65 79.28,131.03
             80.89,131.42 81.93,131.69 82.39,131.84
             81.93,133.07 80.82,135.68 79.05,139.67
             77.29,143.65 75.37,148.25 73.30,153.47
             71.23,158.68 69.16,164.20 67.09,170.03
             65.02,175.86 63.41,181.30 62.27,186.36
             61.12,191.41 60.55,195.74 60.55,199.34
             60.55,202.95 61.62,205.13 63.77,205.91
             66.52,206.82 69.86,205.48 73.77,201.88
             77.67,198.27 81.66,193.52 85.72,187.62
             89.78,181.72 93.73,175.36 97.56,168.53
             101.13,162.17 104.24,156.38 106.88,151.15
             107.07,150.77 110.83,143.04 111.00,142.54
             112.07,139.50 112.76,136.43 113.09,133.34
             113.48,129.74 113.44,126.63 112.98,124.02
             111.75,118.12 113.50,116.19 115.16,122.64 Z" />
</svg>
