<?xml version="1.0" encoding="UTF-8" standalone="no"?>
<!DOCTYPE svg PUBLIC "-//W3C//DTD SVG 20010904//EN"
              "http://www.w3.org/TR/2001/REC-SVG-20010904/DTD/svg10.dtd">

<svg xmlns="http://www.w3.org/2000/svg"
     width="33.3333in" height="1.33333in"
     viewBox="0 0 10000 400">
  <path id="x_path_2"
        fill="none" stroke="black" stroke-width="1"
        d="M 17.30,169.00
           C 12.99,177.31 9.54,185.55 6.94,193.70
             4.34,201.85 2.88,209.61 2.56,217.00
             2.56,217.66 2.18,218.00 1.42,218.00
             0.65,218.00 0.27,217.66 0.27,217.00
             0.58,212.24 1.31,207.21 2.47,201.91
             3.62,196.61 5.26,191.19 7.41,185.66
             8.62,182.27 10.01,178.93 11.55,175.62
             13.08,172.32 14.69,169.14 16.38,166.06
             16.38,166.06 28.33,148.08 28.33,148.08
             34.62,140.10 41.02,133.93 47.53,129.56
             54.05,125.19 60.07,123.00 65.59,123.00
             66.35,123.00 66.73,123.34 66.73,124.00
             66.73,124.87 66.35,125.30 65.59,125.30
             59.30,125.30 52.55,128.21 45.34,134.03
             39.82,138.48 34.38,144.16 29.02,151.06
             29.02,151.06 17.30,169.00 17.30,169.00 Z" />
</svg>
