<?xml version="1.0" encoding="UTF-8" standalone="no"?>
<!DOCTYPE svg PUBLIC "-//W3C//DTD SVG 20010904//EN"
              "http://www.w3.org/TR/2001/REC-SVG-20010904/DTD/svg10.dtd">

<svg xmlns="http://www.w3.org/2000/svg"
     width="33.3333in" height="1.33333in"
     viewBox="0 0 10000 400">
  <path id="x_path_1"
        fill="none" stroke="black" stroke-width="1"
        d="M 29.68,153.78
           C 30.56,157.34 31.49,160.92 32.47,164.53
             33.70,169.05 34.93,173.23 36.16,177.06
             37.84,182.12 39.64,185.98 41.56,188.67
             43.48,191.36 45.47,193.09 47.53,193.86
             49.60,194.62 51.79,194.54 54.09,193.62
             56.39,192.70 58.69,191.24 60.98,189.25
             64.05,186.65 67.27,183.46 70.64,179.70
             74.02,175.95 77.47,171.61 81.00,166.70
             83.46,163.48 85.76,160.27 87.91,157.05
             90.05,153.82 91.97,150.82 93.66,148.06
             95.34,145.30 96.76,142.85 97.91,140.70
             99.05,138.56 99.85,136.87 100.31,135.64
             100.62,134.88 101.12,134.66 101.81,134.97
             102.50,135.27 102.69,135.80 102.39,136.56
             100.86,139.64 98.36,144.09 94.91,149.92
             91.46,155.75 87.44,161.80 82.84,168.08
             79.93,172.07 76.89,175.91 73.75,179.59
             70.61,183.27 67.39,186.57 64.09,189.48
             60.80,192.39 57.47,194.80 54.09,196.72
             50.72,198.64 47.42,199.67 44.20,199.83
             40.52,200.13 37.30,199.44 34.55,197.75
             31.79,196.06 29.29,193.77 27.06,190.86
             24.84,187.95 22.93,184.57 21.31,180.73
             20.04,177.69 18.94,174.61 18.00,171.47
             17.38,170.25 15.87,164.11 15.63,163.15
             14.76,159.60 14.09,156.19 13.61,152.92
             12.99,148.78 12.46,145.32 12.00,142.56
             11.54,140.11 11.81,137.96 12.80,136.12
             13.80,134.28 15.06,132.79 16.59,131.64
             18.13,130.48 19.63,129.56 21.08,128.88
             22.54,128.19 23.49,127.77 23.95,127.61
             24.27,128.84 24.80,131.34 25.56,135.09
             26.16,138.03 26.86,141.34 27.66,145.00
             27.87,146.00 29.46,152.87 29.68,153.78 Z" />
</svg>
