<?xml version="1.0" encoding="UTF-8" standalone="no"?>
<!DOCTYPE svg PUBLIC "-//W3C//DTD SVG 20010904//EN"
              "http://www.w3.org/TR/2001/REC-SVG-20010904/DTD/svg10.dtd">

<svg xmlns="http://www.w3.org/2000/svg"
     width="33.3333in" height="1.33333in"
     viewBox="0 0 10000 400">
  <path id="y_path_1"
        fill="none" stroke="black" stroke-width="1"
        d="M 92.31,199.48
           C 87.87,198.87 84.61,197.23 82.55,194.55
             80.48,191.86 79.25,188.56 78.86,184.66
             78.48,180.74 78.78,176.48 79.78,171.89
             80.77,167.29 82.04,162.76 83.58,158.31
             85.11,153.87 86.76,149.73 88.52,145.89
             90.28,142.06 91.77,138.99 93.00,136.69
             94.23,134.54 95.80,133.05 97.72,132.20
             99.63,131.36 101.55,130.94 103.47,130.94
             105.38,130.94 107.14,131.13 108.75,131.52
             110.36,131.90 111.40,132.17 111.86,132.33
             111.40,133.56 110.40,135.86 108.86,139.23
             107.33,142.60 105.64,146.51 103.80,150.95
             101.96,155.40 100.16,160.04 98.41,164.88
             96.64,169.70 95.30,174.22 94.38,178.44
             93.46,182.66 93.11,186.26 93.34,189.25
             93.57,192.24 94.76,194.12 96.91,194.89
             99.21,195.65 101.74,195.12 104.50,193.28
             107.26,191.44 110.09,188.76 113.00,185.23
             115.91,181.70 118.79,177.68 121.62,173.16
             124.47,168.62 127.11,164.14 129.56,159.70
             132.02,155.26 134.21,151.08 136.12,147.17
             138.04,143.26 139.61,140.23 140.84,138.08
             140.99,137.46 141.30,136.93 141.77,136.47
             141.77,136.47 141.84,136.31 141.98,136.00
             141.98,136.00 142.22,135.78 142.22,135.78
             144.21,133.32 146.81,131.83 150.03,131.30
             153.26,130.76 155.72,130.56 157.41,130.72
             155.41,143.29 152.75,156.21 149.45,169.47
             146.16,182.73 142.14,195.73 137.39,208.45
             132.64,221.18 127.23,233.48 121.17,245.36
             115.12,257.24 108.33,268.10 100.81,277.92
             87.94,294.79 74.22,306.74 59.66,313.80
             51.06,317.93 42.86,320.00 35.05,320.00
             28.76,320.00 22.85,318.62 17.33,315.86
             10.12,312.48 5.52,307.66 3.53,301.38
             1.54,296.01 1.70,289.57 3.98,282.05
             5.37,277.91 7.37,273.62 9.97,269.17
             12.57,264.72 15.76,260.31 19.52,255.94
             23.28,251.57 27.50,247.24 32.17,242.95
             36.85,238.66 41.87,234.68 47.23,231.00
             52.60,227.31 57.96,224.01 63.33,221.09
             68.70,218.19 73.98,215.89 79.20,214.20
             90.55,210.07 100.82,208.84 110.02,210.53
             110.94,210.53 111.25,210.91 110.94,211.67
             110.94,212.74 110.55,213.05 109.80,212.59
             101.52,211.22 92.01,212.29 81.28,215.81
             70.54,219.34 59.65,225.02 48.61,232.83
             38.03,240.19 28.98,248.32 21.47,257.20
             13.96,266.10 8.90,274.61 6.30,282.75
             3.54,291.33 3.42,297.96 5.95,302.64
             8.48,307.32 12.38,310.34 17.67,311.72
             22.96,313.10 29.02,313.07 35.84,311.61
             42.67,310.15 48.92,307.43 54.59,303.44
             65.48,296.08 75.75,286.04 85.41,273.31
             92.62,263.96 98.98,253.84 104.50,242.95
             110.02,232.07 114.89,221.07 119.11,209.95
             123.33,198.84 126.97,187.92 130.03,177.19
             133.09,166.45 135.85,156.48 138.31,147.28
             135.71,152.34 132.75,158.01 129.45,164.30
             126.16,170.58 122.55,176.45 118.64,181.89
             114.73,187.33 110.55,191.81 106.11,195.34
             101.66,198.88 97.06,200.25 92.31,199.48 Z
			 M 139.45,212.11
           C 138.69,211.80 138.35,211.38 138.42,210.84
             138.50,210.31 139.00,210.05 139.92,210.05
             152.95,209.89 165.07,201.84 176.27,185.89
             179.48,181.45 182.55,176.62 185.45,171.41
             188.37,166.19 191.05,161.20 193.50,156.45
             195.96,151.70 198.14,147.44 200.06,143.69
             201.98,139.93 203.39,137.20 204.31,135.52
             204.62,134.90 205.12,134.79 205.81,135.17
             206.50,135.56 206.61,136.14 206.16,136.91
             204.32,139.81 202.41,143.30 200.41,147.36
             198.41,151.42 196.27,155.68 193.97,160.12
             191.66,164.57 189.17,169.14 186.48,173.81
             183.80,178.49 180.94,182.98 177.88,187.27
             172.66,194.48 166.98,200.41 160.84,205.09
             154.72,209.77 147.59,212.11 139.45,212.11 Z" />
</svg>
