<?xml version="1.0" encoding="UTF-8" standalone="no"?>
<!DOCTYPE svg PUBLIC "-//W3C//DTD SVG 20010904//EN"
              "http://www.w3.org/TR/2001/REC-SVG-20010904/DTD/svg10.dtd">

<svg xmlns="http://www.w3.org/2000/svg"
     width="33.3333in" height="1.33333in"
     viewBox="0 0 10000 400">
  <path id="z_path_2"
        fill="none" stroke="black" stroke-width="1"
        d="M 0.16,208.78
           C 0.16,205.86 1.31,203.64 3.61,202.11
             5.91,200.58 8.71,199.50 12.02,198.89
             15.31,198.28 18.68,197.93 22.12,197.86
             25.57,197.78 28.45,197.73 30.75,197.73
             40.00,198.62 42.25,201.06 46.22,202.73
             49.12,203.86 57.67,207.20 62.14,208.89
             67.59,210.96 73.61,212.00 80.20,212.00
             83.27,212.00 86.29,211.54 89.28,210.61
             92.27,209.69 95.34,208.20 98.48,206.12
             101.63,204.06 105.00,201.30 108.61,197.86
             112.21,194.41 116.08,190.23 120.22,185.33
             127.43,176.73 133.94,167.84 139.77,158.64
             145.60,149.45 150.20,141.47 153.56,134.72
             154.18,133.96 154.72,133.81 155.19,134.27
             156.10,134.57 156.25,135.03 155.64,135.64
             152.11,142.54 147.43,150.62 141.61,159.91
             135.79,169.19 129.19,178.12 121.83,186.70
             114.16,196.06 106.65,203.41 99.30,208.78
             90.86,214.93 83.11,218.00 76.06,218.00
             69.16,218.00 62.55,216.96 56.27,214.89
             49.98,212.82 43.93,210.63 38.11,208.34
             33.56,205.81 29.00,204.56 24.55,203.38
             22.55,202.76 20.59,202.26 18.67,201.88
             16.76,201.49 14.95,201.30 13.27,201.30
             9.75,201.30 7.06,202.10 5.22,203.70
             3.38,205.32 2.45,207.05 2.45,208.89
             2.81,213.38 0.25,212.44 0.16,208.78 Z" />
</svg>
