<?xml version="1.0" encoding="UTF-8" standalone="no"?>
<!DOCTYPE svg PUBLIC "-//W3C//DTD SVG 20010904//EN"
              "http://www.w3.org/TR/2001/REC-SVG-20010904/DTD/svg10.dtd">

<svg xmlns="http://www.w3.org/2000/svg"
     width="33.3333in" height="1.33333in"
     viewBox="0 0 10000 400">
  <path id="z_path_1"
        fill="none" stroke="black" stroke-width="1"
        d="M 2.53,210.41
           C 2.80,212.79 3.78,214.00 5.45,214.06
             7.45,214.14 9.75,213.49 12.36,212.11
             14.96,210.73 17.45,209.09 19.83,207.17
             21.37,205.93 22.57,204.96 23.44,204.27
             29.12,199.69 32.14,196.53 32.14,196.53
             36.72,192.53 41.19,187.99 45.58,182.91
             50.41,177.31 55.16,171.49 59.84,165.44
             64.52,159.38 69.20,153.36 73.88,147.38
             78.55,141.40 83.34,135.95 88.25,131.05
             87.63,131.05 87.05,131.09 86.52,131.16
             85.98,131.23 85.49,131.27 85.03,131.27
             80.12,131.27 75.98,130.62 72.61,129.31
             69.23,128.01 65.71,126.75 62.03,125.52
             58.66,124.30 55.47,123.27 52.48,122.42
             49.49,121.58 46.62,121.31 43.86,121.61
             37.88,122.68 32.36,127.67 27.30,136.56
             26.68,137.18 26.14,137.33 25.69,137.02
             25.07,136.56 24.92,136.02 25.23,135.41
             30.90,125.75 36.96,120.46 43.41,119.55
             46.47,118.93 49.61,119.09 52.83,120.00
             56.05,120.92 59.42,121.99 62.95,123.22
             66.33,124.45 69.89,125.68 73.64,126.91
             77.40,128.12 81.54,128.78 86.06,128.86
             90.58,128.93 95.45,128.28 100.66,126.91
             105.88,125.52 111.55,122.84 117.69,118.84
             118.30,118.54 118.76,118.70 119.06,119.31
             119.53,119.77 119.46,120.31 118.84,120.92
             115.01,123.68 111.06,127.17 107.00,131.39
             102.94,135.60 98.83,140.23 94.69,145.30
             90.55,150.36 86.38,155.65 82.16,161.17
             77.94,166.70 73.75,172.02 69.61,177.16
             65.47,182.29 61.33,187.05 57.19,191.42
             53.05,195.79 49.07,199.43 45.23,202.34
             43.00,203.62 39.06,205.88 36.50,207.64
             32.36,210.86 28.30,213.39 24.31,215.23
             20.32,217.08 16.49,218.00 12.81,218.00
             8.82,218.00 5.68,217.11 3.38,215.33
             1.87,214.08 0.89,212.63 0.44,210.97
             -0.19,206.69 2.50,208.94 2.53,210.41 Z" />
</svg>
