<?xml version="1.0" encoding="UTF-8" standalone="no"?>
<!DOCTYPE svg PUBLIC "-//W3C//DTD SVG 20010904//EN"
              "http://www.w3.org/TR/2001/REC-SVG-20010904/DTD/svg10.dtd">

<svg xmlns="http://www.w3.org/2000/svg"
     width="33.3333in" height="1.33333in"
     viewBox="0 0 10000 400">
  <path id="A_cap_path_3"
        fill="none" stroke="black" stroke-width="1"
        d="M 247.19,119.41
           C 248.41,119.41 250.35,119.60 253.03,119.98
             255.72,120.36 257.98,121.62 259.83,123.78
             258.60,123.78 257.60,124.19 256.83,125.00
             256.07,125.81 255.69,126.81 255.69,128.00
             255.69,129.19 256.07,130.15 256.83,130.89
             257.60,131.63 258.60,132.00 259.83,132.00
             261.05,132.00 262.09,131.62 262.94,130.88
             263.78,130.12 264.20,129.12 264.20,127.91
             264.20,125.94 263.62,124.27 262.47,122.91
             261.32,121.54 259.94,120.45 258.33,119.61
             256.72,118.78 254.96,118.14 253.05,117.69
             251.13,117.23 249.41,117.00 247.88,117.00
             243.97,116.75 236.59,117.47 229.23,118.73
             224.48,119.51 219.58,120.54 214.52,121.84
             209.46,123.15 204.48,124.49 199.56,125.88
             194.66,127.25 189.71,128.59 184.73,129.89
             179.75,131.20 174.88,132.23 170.12,133.00
             168.94,133.25 168.09,133.75 167.19,133.94
             164.73,134.21 162.27,134.51 159.89,134.70
             157.52,134.90 155.25,135.00 153.11,135.00
             153.11,135.00 152.88,135.00 152.88,135.00
             150.73,135.00 148.31,134.73 145.62,134.17
             142.95,133.61 140.92,132.29 139.55,130.22
             139.55,130.22 140.00,130.22 140.00,130.22
             141.23,130.22 142.27,129.85 143.11,129.11
             143.95,128.37 144.38,127.41 144.38,126.22
             144.38,125.03 143.95,124.03 143.11,123.22
             142.27,122.41 141.23,122.00 140.00,122.00
             138.31,122.00 137.20,122.53 136.66,123.59
             136.12,124.66 135.86,125.80 135.86,127.02
             136.32,130.21 137.93,132.73 140.69,134.55
             143.60,136.38 147.66,137.30 152.88,137.30
             152.88,137.30 153.11,137.30 153.11,137.30
             155.10,137.30 157.16,137.23 159.31,137.08
             161.47,136.92 163.63,136.68 165.78,136.38
             165.78,136.38 168.75,136.00 168.75,136.00
             173.66,135.06 178.79,133.90 184.16,132.50
             189.52,131.11 194.89,129.71 200.27,128.31
             205.02,127.06 209.77,125.78 214.52,124.47
             219.27,123.15 223.88,122.09 228.31,121.31
             235.88,120.16 238.78,119.47 247.19,119.41 Z" />
</svg>
