<?xml version="1.0" encoding="UTF-8" standalone="no"?>
<!DOCTYPE svg PUBLIC "-//W3C//DTD SVG 20010904//EN"
              "http://www.w3.org/TR/2001/REC-SVG-20010904/DTD/svg10.dtd">

<svg xmlns="http://www.w3.org/2000/svg"
     width="33.3333in" height="1.33333in"
     viewBox="0 0 10000 400">
  <path id="A_cap_path_2"
        fill="none" stroke="black" stroke-width="1"
        d="M 246.98,120.01
           C 246.37,121.73 244.66,126.55 244.66,126.55
             241.12,137.13 237.67,147.61 234.30,157.97
             230.92,168.34 228.09,177.89 225.80,186.62
             223.18,196.30 221.57,204.05 220.95,209.89
             220.35,215.72 220.66,219.48 221.88,221.17
             222.64,222.24 223.88,222.47 225.56,221.86
             227.25,221.24 229.05,220.24 230.97,218.86
             232.88,217.48 234.76,215.99 236.59,214.38
             238.44,212.76 239.82,211.49 240.73,210.58
             245.18,206.43 249.86,201.25 254.77,195.05
             259.67,188.83 264.96,181.65 270.64,173.52
             275.39,166.61 279.30,160.74 282.36,155.91
             285.43,151.06 287.85,147.15 289.61,144.16
             291.38,141.17 292.61,138.98 293.30,137.59
             293.98,136.21 294.33,135.52 294.33,135.52
             294.64,134.76 295.18,134.61 295.94,135.06
             296.55,135.37 296.71,135.82 296.41,136.44
             296.41,136.59 296.02,137.37 295.25,138.75
             294.48,140.12 293.21,142.31 291.45,145.31
             289.69,148.30 287.27,152.21 284.20,157.05
             281.14,161.88 277.23,167.75 272.48,174.66
             248.87,208.88 230.93,226.00 218.66,226.00
             217.89,226.00 216.74,225.66 215.20,225.00
             211.68,223.93 208.93,221.48 206.94,217.66
             204.94,213.53 204.24,208.02 204.86,201.14
             205.47,194.26 206.89,186.57 209.11,178.09
             211.34,169.61 214.18,160.51 217.62,150.80
             220.98,141.35 224.43,131.79 228.01,122.13
             228.11,121.86 229.47,118.13 229.47,117.83
             233.00,108.48 236.33,99.43 239.47,90.69
             242.61,81.95 245.26,73.82 247.41,66.30
             252.01,49.75 253.01,38.71 250.41,33.19
             249.48,31.19 248.02,29.81 246.03,29.05
             241.43,27.51 236.86,28.23 232.34,31.23
             227.82,34.23 223.30,38.79 218.77,44.92
             214.24,51.05 209.68,58.41 205.08,67.00
             200.48,75.59 195.73,84.70 190.83,94.36
             187.61,100.65 184.27,107.06 180.83,113.58
             177.61,119.66 174.28,125.70 170.85,131.71
             170.61,132.14 168.23,136.88 167.98,137.32
             165.17,142.09 162.32,146.70 159.44,151.14
             156.29,155.98 153.03,160.56 149.66,164.88
             131.72,188.14 113.24,199.84 94.23,200.00
             85.49,200.00 78.05,197.86 71.92,193.56
             66.10,189.59 61.50,183.89 58.12,176.47
             58.12,176.47 56.38,173.06 55.70,170.72
             54.18,165.99 53.18,160.90 52.70,155.44
             52.17,149.30 52.37,142.95 53.30,136.38
             54.37,129.02 56.21,122.12 58.81,115.69
             61.41,109.24 64.71,103.72 68.70,99.12
             73.45,93.45 78.89,89.54 85.03,87.39
             88.41,86.01 92.24,85.36 96.53,85.44
             100.82,85.51 104.80,86.31 108.48,87.84
             110.87,88.84 113.01,90.13 114.91,91.74
             119.81,95.44 117.56,96.88 113.55,93.31
             111.80,92.10 109.84,91.31 107.67,90.91
             104.38,90.29 100.82,90.48 96.98,91.48
             93.15,92.48 89.70,94.12 86.64,96.42
             82.80,99.48 79.43,103.09 76.52,107.23
             73.61,111.37 71.20,115.86 69.28,120.69
             67.36,125.52 65.94,130.51 65.02,135.64
             64.10,140.78 63.72,145.88 63.88,150.94
             64.01,156.45 64.77,161.54 66.14,166.20
             66.50,168.31 67.95,170.81 68.16,171.24
             72.78,181.11 78.18,187.87 84.34,191.55
             90.78,195.38 97.56,196.65 104.69,195.34
             111.82,194.04 119.11,190.55 126.55,184.88
             133.98,179.20 141.07,171.99 147.81,163.25
             150.88,159.27 153.91,155.02 156.91,150.50
             159.64,146.36 162.34,142.06 165.02,137.62
             165.27,137.21 167.65,133.12 167.91,132.67
             171.61,126.28 175.11,119.88 178.41,113.47
             181.94,106.62 185.39,99.97 188.77,93.53
             193.67,83.72 198.50,74.45 203.25,65.70
             208.00,56.96 212.68,49.45 217.28,43.17
             222.19,36.42 226.94,31.67 231.55,28.91
             233.54,27.68 235.98,26.76 238.89,26.14
             241.80,25.53 244.72,25.34 247.64,25.58
             250.55,25.81 253.35,26.46 256.03,27.53
             258.72,28.61 260.91,30.14 262.59,32.12
             267.04,37.19 268.34,44.47 266.50,53.97
             264.97,61.79 262.52,71.15 259.14,82.03
             255.85,92.65 252.19,104.00 248.18,116.08
             248.08,116.39 247.11,119.64 246.98,120.01 Z" />
</svg>
