<?xml version="1.0" encoding="UTF-8" standalone="no"?>
<!DOCTYPE svg PUBLIC "-//W3C//DTD SVG 20010904//EN"
              "http://www.w3.org/TR/2001/REC-SVG-20010904/DTD/svg10.dtd">

<svg xmlns="http://www.w3.org/2000/svg"
     width="33.3333in" height="1.33333in"
     viewBox="0 0 10000 400">
  <path id="A_cap_path_1"
        fill="none" stroke="black" stroke-width="1"
        d="M 116.08,95.50
           C 118.38,97.96 119.45,101.48 119.30,106.08
             119.14,111.76 116.91,118.16 112.62,125.30
             108.33,132.42 102.43,139.66 94.92,147.02
             90.47,151.16 85.87,155.00 81.11,158.53
             76.36,162.05 71.53,165.12 66.62,167.72
             66.62,167.72 56.28,172.45 56.28,172.45
             53.06,173.84 49.69,174.99 46.16,175.91
             38.64,177.59 31.90,177.64 25.92,176.03
             19.94,174.42 15.04,171.16 11.20,166.25
             8.13,162.56 6.05,158.39 4.98,153.72
             3.91,149.04 3.91,144.55 4.98,140.25
             5.75,141.02 6.75,141.41 7.98,141.41
             9.20,141.41 10.23,141.03 11.08,140.27
             11.92,139.50 12.34,138.51 12.34,137.30
             12.34,136.09 11.92,135.07 11.08,134.25
             10.23,133.42 9.20,133.00 7.98,133.00
             6.60,133.00 5.52,133.53 4.77,134.59
             4.77,134.59 3.84,136.19 3.84,136.19
             1.84,141.04 1.34,146.36 2.34,152.12
             3.34,157.90 5.68,162.98 9.36,167.39
             11.35,169.82 14.41,172.36 18.55,175.02
             22.69,177.67 28.22,179.00 35.12,179.00
             38.64,179.00 42.48,178.54 46.62,177.61
             48.31,177.31 50.04,176.89 51.80,176.36
             53.55,175.82 55.36,175.16 57.20,174.39
             57.20,174.39 67.55,169.92 67.55,169.92
             72.45,167.16 77.39,163.98 82.38,160.38
             87.36,156.77 92.08,152.82 96.53,148.53
             104.35,141.19 110.41,133.76 114.70,126.25
             118.99,118.74 121.29,112.00 121.59,106.02
             121.59,101.42 120.33,97.63 117.80,94.64
             114.94,90.88 110.56,91.06 116.08,95.50 Z" />
</svg>
