<?xml version="1.0" encoding="UTF-8" standalone="no"?>
<!DOCTYPE svg PUBLIC "-//W3C//DTD SVG 20010904//EN"
              "http://www.w3.org/TR/2001/REC-SVG-20010904/DTD/svg10.dtd">

<svg xmlns="http://www.w3.org/2000/svg"
     width="33.3333in" height="1.33333in"
     viewBox="0 0 10000 400">
  <path id="amp_path_3"
        fill="none" stroke="black" stroke-width="1"
        d="M 114.55,188.28
           C 114.55,188.28 92.69,209.67 92.69,209.67
             86.41,215.81 80.43,221.71 74.75,227.38
             69.07,233.05 63.93,238.69 59.33,244.28
             54.73,249.88 50.86,255.41 47.72,260.85
             44.58,266.29 42.48,271.85 41.41,277.53
             39.26,288.26 39.83,297.12 43.12,304.10
             46.41,311.07 52.05,315.41 60.03,317.10
             65.15,318.26 70.69,318.06 76.65,316.51
             78.98,315.87 80.00,317.28 77.14,317.97
             72.55,319.34 67.92,320.21 63.25,320.56
             57.11,321.03 51.21,320.49 45.53,318.95
             39.86,317.42 35.19,314.66 31.52,310.69
             30.29,309.30 29.09,307.61 27.94,305.61
             26.79,303.62 25.88,301.24 25.19,298.48
             24.50,295.73 24.11,292.51 24.03,288.83
             23.96,285.15 24.38,281.01 25.30,276.40
             26.37,271.04 28.40,265.60 31.39,260.08
             34.38,254.55 38.48,248.58 43.70,242.14
             48.30,236.46 53.47,230.78 59.22,225.11
             64.97,219.44 70.99,213.54 77.28,207.40
             82.49,202.35 87.77,197.18 93.14,191.89
             98.52,186.60 103.73,181.12 108.80,175.44
             108.80,175.44 110.41,173.83 110.41,173.83
             119.91,163.10 128.57,151.68 136.39,139.56
             144.21,127.45 149.96,114.26 153.64,100.00
             155.17,94.32 155.89,88.88 155.81,83.67
             155.74,78.46 155.02,73.48 153.64,68.72
             152.87,66.12 151.79,63.59 150.41,61.14
             149.03,58.68 147.38,56.65 145.47,55.05
             143.55,53.43 141.36,52.40 138.91,51.94
             136.46,51.47 133.78,52.01 130.88,53.55
             130.10,53.85 129.57,53.62 129.27,52.86
             128.95,52.39 129.10,51.85 129.72,51.23
             135.08,48.63 140.37,47.56 145.58,48.03
             150.80,48.49 155.48,50.48 159.62,54.00
             165.29,58.60 169.05,65.05 170.89,73.33
             172.73,81.60 172.35,90.65 169.73,100.47
             167.59,109.05 164.68,117.18 161.00,124.84
             157.32,132.51 153.10,139.87 148.34,146.92
             143.59,153.97 138.49,160.72 133.05,167.17
             127.61,173.61 121.98,179.82 116.16,185.79
             116.16,185.79 114.55,188.28 114.55,188.28 Z" />
</svg>
