<?xml version="1.0" encoding="UTF-8" standalone="no"?>
<!DOCTYPE svg PUBLIC "-//W3C//DTD SVG 20010904//EN"
              "http://www.w3.org/TR/2001/REC-SVG-20010904/DTD/svg10.dtd">

<svg xmlns="http://www.w3.org/2000/svg"
     width="33.3333in" height="1.33333in"
     viewBox="0 0 10000 400">
  <path id="amp_path_1"
        fill="none" stroke="black" stroke-width="1"
        d="M 66.92,41.99
           C 68.26,40.85 69.80,39.87 71.53,39.06
             74.45,37.68 77.52,36.83 80.73,36.53
             83.95,36.22 87.09,36.48 90.16,37.33
             93.23,38.17 95.84,39.67 97.98,41.81
             100.43,44.42 101.85,47.68 102.23,51.59
             102.62,55.50 101.97,59.60 100.28,63.89
             98.44,68.49 94.79,73.94 89.34,80.23
             83.91,86.51 77.74,93.49 70.84,101.15
             70.23,101.77 69.65,102.35 69.11,102.89
             68.58,103.42 65.78,106.44 65.78,106.44
             61.18,111.50 56.57,116.71 51.97,122.08
             47.38,127.44 43.08,132.81 39.09,138.19
             28.66,152.45 23.38,164.10 23.23,173.14
             23.23,176.51 23.54,179.43 24.16,181.87
             26.14,189.24 29.32,193.23 33.69,193.84
             38.06,194.46 42.93,192.69 48.30,188.55
             52.29,185.64 56.00,182.19 59.45,178.20
             62.90,174.21 66.12,169.99 69.11,165.55
             72.10,161.10 74.94,156.46 77.62,151.64
             80.31,146.81 82.96,142.01 85.56,137.26
             85.56,137.26 86.70,134.97 86.70,134.97
             86.70,134.97 87.86,132.65 87.86,132.65
             90.62,127.45 93.34,122.43 96.02,117.61
             98.70,112.78 101.43,108.29 104.19,104.14
             106.79,100.15 109.97,97.05 113.73,94.83
             117.49,92.60 121.29,91.48 125.12,91.48
             126.66,91.48 128.34,91.72 130.17,92.19
             132.02,92.65 133.70,93.33 135.23,94.25
             136.77,95.17 138.08,96.28 139.16,97.59
             140.23,98.90 140.77,100.31 140.77,101.84
             140.77,103.07 140.34,104.07 139.50,104.84
             138.66,105.60 137.62,105.98 136.39,105.98
             135.16,105.98 134.16,105.60 133.39,104.84
             132.63,104.07 132.25,103.07 132.25,101.84
             132.25,99.70 133.24,98.32 135.23,97.70
             132.33,95.10 128.96,93.79 125.12,93.79
             121.59,93.79 118.14,94.83 114.77,96.90
             111.39,98.97 108.48,101.84 106.03,105.51
             103.27,109.51 100.58,113.92 97.97,118.75
             95.36,123.57 92.69,128.59 89.94,133.81
             89.94,133.81 88.31,137.03 88.31,137.03
             88.31,137.03 87.17,139.33 87.17,139.33
             84.10,145.01 80.99,150.60 77.84,156.12
             74.71,161.65 71.30,166.86 67.62,171.76
             61.95,179.43 56.04,185.56 49.91,190.15
             47.76,191.84 45.34,193.49 42.66,195.11
             39.98,196.71 37.14,197.90 34.16,198.67
             31.16,199.44 28.18,199.67 25.19,199.36
             22.20,199.05 19.24,197.83 16.33,195.69
             13.27,193.38 10.93,190.28 9.31,186.37
             7.71,182.46 6.98,178.05 7.12,173.14
             7.28,168.23 8.70,162.79 11.38,156.81
             14.06,150.83 18.09,144.16 23.45,136.79
             28.05,130.36 33.19,124.00 38.86,117.72
             44.54,111.43 50.06,105.37 55.44,99.55
             55.44,99.55 59.80,94.72 59.80,94.72
             59.80,94.72 61.97,92.87 61.97,92.87
             67.33,86.74 72.08,81.14 76.22,76.08
             80.37,71.01 83.21,66.65 84.74,62.97
             86.42,58.52 86.99,54.65 86.45,51.36
             85.92,48.06 84.97,45.56 83.60,43.87
             82.37,42.34 81.02,41.35 79.56,40.89
             78.10,40.43 76.65,40.36 75.19,40.67
             73.74,40.97 72.24,41.58 70.71,42.50
             69.81,43.03 69.00,43.62 68.26,44.26
             64.56,48.42 60.12,48.11 66.92,41.99 Z" />
</svg>
