<?xml version="1.0" encoding="UTF-8" standalone="no"?>
<!DOCTYPE svg PUBLIC "-//W3C//DTD SVG 20010904//EN"
              "http://www.w3.org/TR/2001/REC-SVG-20010904/DTD/svg10.dtd">

<svg xmlns="http://www.w3.org/2000/svg"
     width="33.3333in" height="1.33333in"
     viewBox="0 0 10000 400">
  <path id="amp_path_2"
        fill="none" stroke="black" stroke-width="1"
        d="M 108.27,174.39
           C 105.19,168.33 101.91,162.51 98.44,156.94
             94.87,151.20 91.23,145.51 87.51,139.85
             87.40,139.68 85.50,137.15 85.39,136.98
             84.78,136.02 82.80,132.89 82.80,132.89
             79.73,128.29 76.74,123.80 73.83,119.44
             71.19,115.48 68.75,111.57 66.50,107.69
             66.26,107.27 59.47,93.95 59.31,93.56
             56.97,87.97 55.42,82.49 54.62,77.11
             53.78,71.36 54.28,65.80 56.12,60.44
             57.34,57.06 58.64,54.07 60.02,51.47
             61.40,48.87 62.86,46.57 64.41,44.58
             67.47,41.08 69.97,42.64 66.80,45.72
             63.74,49.25 60.97,54.38 58.52,61.12
             56.83,66.19 56.37,71.33 57.13,76.55
             57.85,81.41 59.30,86.47 61.49,91.73
             61.65,92.11 68.00,105.54 68.20,105.89
             70.35,109.84 72.80,113.85 75.55,117.94
             78.55,122.38 81.58,126.91 84.64,131.51
             84.64,131.51 86.17,134.08 86.59,134.79
             86.66,134.90 88.53,137.35 88.64,137.51
             92.36,143.04 96.05,148.79 99.70,154.75
             103.26,160.53 106.64,166.54 109.86,172.75
             110.04,173.11 116.35,186.26 116.62,186.93
             117.23,188.42 118.22,190.86 118.22,190.86
             127.88,215.85 129.87,240.38 124.20,264.45
             121.90,274.11 118.30,282.77 113.39,290.44
             108.79,297.64 103.27,303.62 96.83,308.37
             92.54,311.60 87.40,314.33 81.42,316.55
             80.28,316.97 79.13,317.36 77.98,317.72
             75.92,318.34 74.87,316.91 77.50,316.28
             83.79,314.52 89.77,311.49 95.45,307.21
             101.89,302.30 107.37,296.20 111.89,288.91
             116.42,281.63 119.76,273.46 121.91,264.42
             125.27,250.16 126.07,236.74 124.31,224.17
             122.60,211.97 119.49,200.33 114.96,189.28
             114.83,188.95 108.45,174.74 108.27,174.39 Z" />
</svg>
