<?xml version="1.0" encoding="UTF-8" standalone="no"?>
<!DOCTYPE svg PUBLIC "-//W3C//DTD SVG 20010904//EN"
              "http://www.w3.org/TR/2001/REC-SVG-20010904/DTD/svg10.dtd">

<svg xmlns="http://www.w3.org/2000/svg"
     width="33.3333in" height="1.33333in"
     viewBox="0 0 10000 400">
  <path id="apo_path_1"
        fill="none" stroke="black" stroke-width="1"
        d="M 25.06,58.70
           C 24.30,62.08 23.65,66.11 23.11,70.78
             22.58,75.46 22.12,80.21 21.73,85.05
             21.35,89.87 20.96,94.47 20.58,98.84
             20.20,103.21 19.71,106.77 19.09,109.53
             18.16,109.84 17.01,110.06 15.62,110.22
             14.25,110.38 13.41,109.53 13.11,107.69
             13.11,107.69 12.19,59.62 12.19,59.62
             12.80,59.31 13.84,58.85 15.30,58.23
             16.75,57.62 18.21,57.16 19.66,56.86
             21.11,56.56 22.38,56.48 23.45,56.64
             24.52,56.79 25.06,57.48 25.06,58.70 Z" />
</svg>
