<?xml version="1.0" encoding="UTF-8" standalone="no"?>
<!DOCTYPE svg PUBLIC "-//W3C//DTD SVG 20010904//EN"
              "http://www.w3.org/TR/2001/REC-SVG-20010904/DTD/svg10.dtd">

<svg xmlns="http://www.w3.org/2000/svg"
     width="33.3333in" height="1.33333in"
     viewBox="0 0 10000 400">
  <path id="B_cap_path_1"
        fill="none" stroke="black" stroke-width="1"
        d="M 95.73,85.83
           C 92.20,85.83 88.84,86.45 85.62,87.68
             79.62,89.82 74.48,93.73 70.20,99.41
             66.52,104.00 63.56,109.53 61.34,115.97
             59.12,122.41 57.70,129.31 57.09,136.66
             56.17,148.78 57.55,159.66 61.23,169.32
             61.23,169.32 63.07,174.29 63.30,175.07
             63.45,175.38 63.64,175.73 63.87,176.11
             64.11,176.49 64.30,176.83 64.44,177.14
             68.43,184.36 73.34,189.87 79.16,193.71
             85.76,197.84 93.20,199.91 101.48,199.91
             107.45,199.91 112.90,198.91 117.80,196.93
             122.72,194.93 127.21,192.32 131.27,189.10
             135.34,185.88 138.98,182.17 142.20,177.96
             145.41,173.74 148.32,169.33 150.93,164.72
             153.84,159.66 156.57,154.25 159.10,148.50
             161.63,142.75 164.04,136.86 166.34,130.80
             168.64,124.74 170.75,118.61 172.66,112.39
             174.58,106.19 176.46,100.17 178.30,94.35
             180.29,88.06 182.25,81.96 184.16,76.07
             186.08,70.16 188.03,64.64 190.02,59.50
             192.02,54.36 194.09,49.75 196.24,45.69
             198.39,41.63 200.68,38.30 203.13,35.69
             205.59,33.25 208.12,31.56 210.73,30.64
             213.33,29.72 215.78,29.71 218.09,30.63
             218.70,30.94 219.16,30.79 219.48,30.18
             219.78,29.41 219.54,28.87 218.77,28.57
             214.78,26.57 211.10,25.53 207.73,25.46
             204.36,25.39 201.34,25.85 198.65,26.85
             195.97,27.84 193.71,29.06 191.87,30.52
             190.02,31.98 188.64,33.17 187.73,34.08
             185.12,36.69 182.70,40.18 180.48,44.55
             178.26,48.92 176.11,53.94 174.04,59.61
             171.98,65.29 169.91,71.43 167.84,78.02
             165.76,84.61 163.73,91.36 161.74,98.25
             158.21,110.21 154.53,122.02 150.70,133.68
             146.87,145.33 142.58,155.99 137.82,165.64
             135.83,169.48 133.61,173.31 131.15,177.14
             128.70,180.98 125.98,184.39 122.99,187.38
             120.00,190.37 116.70,192.82 113.10,194.74
             109.50,196.66 105.55,197.61 101.26,197.61
             96.50,197.61 92.23,196.96 88.48,195.66
             84.73,194.36 81.43,192.67 78.59,190.60
             75.75,188.53 73.34,186.23 71.35,183.71
             69.36,181.18 67.75,178.68 66.52,176.22
             66.52,176.22 65.37,174.16 65.37,174.16
             64.44,172.91 62.84,167.86 62.84,167.86
             61.00,162.34 59.81,156.52 59.27,150.38
             58.74,144.25 58.90,138.19 59.74,132.21
             60.59,126.23 62.04,120.48 64.10,114.96
             66.17,109.44 68.82,104.61 72.04,100.47
             74.50,97.40 77.68,94.49 81.59,91.74
             85.49,88.98 90.36,87.67 96.20,87.82
             99.10,87.82 99.26,85.83 95.73,85.83 Z" />
</svg>
