<?xml version="1.0" encoding="UTF-8" standalone="no"?>
<!DOCTYPE svg PUBLIC "-//W3C//DTD SVG 20010904//EN"
              "http://www.w3.org/TR/2001/REC-SVG-20010904/DTD/svg10.dtd">

<svg xmlns="http://www.w3.org/2000/svg"
     width="33.3333in" height="1.33333in"
     viewBox="0 0 10000 400">
  <path id="B_cap_path_4"
        fill="none" stroke="black" stroke-width="1"
        d="M 164.44,219.29
           C 162.32,217.79 160.82,215.39 160.37,211.10
             159.75,206.19 161.17,200.06 164.62,192.71
             168.06,185.34 174.08,178.21 182.66,171.32
             190.18,165.18 198.04,159.74 206.24,154.99
             228.70,141.91 255.20,134.16 270.07,134.05
             270.84,134.05 271.23,133.59 271.23,132.68
             271.23,132.06 270.84,131.75 270.07,131.75
             246.82,133.41 227.32,141.53 205.55,152.80
             197.04,157.62 188.87,163.18 181.05,169.47
             172.77,176.37 166.56,183.81 162.43,191.79
             158.75,198.99 157.29,205.51 158.05,211.33
             158.52,216.24 162.44,220.53 163.32,220.66
             166.06,220.66 166.58,221.02 164.44,219.29 Z" />
</svg>
