<?xml version="1.0" encoding="UTF-8" standalone="no"?>
<!DOCTYPE svg PUBLIC "-//W3C//DTD SVG 20010904//EN"
              "http://www.w3.org/TR/2001/REC-SVG-20010904/DTD/svg10.dtd">

<svg xmlns="http://www.w3.org/2000/svg"
     width="33.3333in" height="1.33333in"
     viewBox="0 0 10000 400">
  <path id="B_cap_path_3"
        fill="none" stroke="black" stroke-width="1"
        d="M 164.22,221.22
           C 165.60,221.98 167.06,222.48 168.59,222.71
             170.12,222.95 171.66,223.07 173.19,223.07
             182.54,223.07 193.12,219.38 204.94,212.02
             210.76,208.34 216.20,204.09 221.25,199.25
             226.31,194.42 230.76,189.32 234.59,183.96
             239.04,177.68 242.38,171.24 244.59,164.64
             246.82,158.05 247.94,151.53 247.94,145.10
             247.94,143.87 247.90,142.68 247.83,141.53
             247.75,140.38 247.64,139.19 247.48,137.96
             247.48,137.96 247.02,135.66 247.02,135.66
             245.94,131.06 244.25,126.65 241.95,122.44
             239.66,118.22 236.60,114.28 232.77,110.60
             229.09,106.91 225.33,103.92 221.48,101.63
             217.65,99.33 214.28,97.56 211.38,96.33
             209.83,95.72 208.37,95.14 206.98,94.61
             205.61,94.07 204.16,93.65 202.62,93.35
             210.13,92.12 217.95,89.59 226.08,85.75
             234.21,81.92 241.19,76.79 247.02,70.35
             255.45,61.14 258.98,51.09 257.59,40.21
             256.22,29.48 250.77,21.28 241.27,15.60
             233.75,10.85 224.55,8.25 213.67,7.79
             208.61,7.63 203.51,7.89 198.38,8.58
             193.24,9.27 188.37,10.46 183.77,12.14
             178.40,13.99 173.11,16.52 167.89,19.74
             162.68,22.96 157.85,26.64 153.41,30.79
             143.59,39.67 137.23,49.25 134.31,59.53
             133.85,61.07 133.47,62.91 133.16,65.05
             132.85,67.20 132.70,69.34 132.70,71.49
             132.70,73.64 132.89,75.71 133.28,77.71
             133.66,79.70 134.32,81.38 135.23,82.75
             136.30,84.44 137.69,85.36 139.38,85.52
             142.75,85.52 144.44,84.22 144.44,81.61
             144.59,80.39 144.25,79.31 143.41,78.39
             142.56,77.47 141.52,77.00 140.30,77.00
             138.15,77.00 136.85,78.00 136.39,80.00
             135.32,77.40 134.89,74.11 135.12,70.11
             135.35,66.12 135.85,62.75 136.62,59.99
             138.00,54.78 140.41,49.80 143.86,45.05
             147.32,40.29 151.27,35.92 155.70,31.94
             160.15,27.95 164.86,24.46 169.84,21.47
             174.83,18.47 179.71,16.14 184.47,14.46
             190.59,12.30 196.84,11.27 203.20,11.35
             209.57,11.42 215.43,12.57 220.80,14.80
             226.16,17.02 230.72,20.32 234.48,24.69
             238.24,29.06 240.58,34.39 241.50,40.68
             242.41,47.27 241.53,53.64 238.84,59.77
             236.16,65.89 232.45,71.34 227.69,76.10
             222.94,80.85 217.57,84.64 211.59,87.47
             205.61,90.31 199.71,91.72 193.89,91.72
             193.89,91.72 192.28,91.72 192.28,91.72
             191.51,91.72 191.12,92.11 191.12,92.88
             191.12,93.65 191.51,94.03 192.28,94.03
             192.28,94.03 193.89,94.03 193.89,94.03
             199.41,94.50 204.35,96.33 208.72,99.55
             213.09,102.77 216.89,106.61 220.11,111.05
             223.33,115.50 225.89,120.37 227.81,125.66
             229.73,130.95 230.99,135.89 231.61,140.49
             231.61,140.49 231.84,142.79 231.84,142.79
             231.84,142.79 231.84,145.10 231.84,145.10
             231.84,153.53 229.88,162.00 225.97,170.50
             222.06,179.02 216.35,187.03 208.84,194.53
             206.70,196.84 203.66,199.63 199.75,202.93
             195.84,206.23 191.78,209.29 187.56,212.13
             183.34,214.97 179.20,217.16 175.14,218.69
             171.08,220.22 167.82,220.37 165.38,219.14
             162.61,218.07 160.70,219.53 164.22,221.22 Z" />
</svg>
