<?xml version="1.0" encoding="UTF-8" standalone="no"?>
<!DOCTYPE svg PUBLIC "-//W3C//DTD SVG 20010904//EN"
              "http://www.w3.org/TR/2001/REC-SVG-20010904/DTD/svg10.dtd">

<svg xmlns="http://www.w3.org/2000/svg"
     width="33.3333in" height="1.33333in"
     viewBox="0 0 10000 400">
  <path id="C_cap_path_2"
        fill="none" stroke="black" stroke-width="1"
        d="M 176.41,33.17
           C 174.26,31.03 171.77,29.92 168.94,29.84
             166.10,29.76 163.15,30.34 160.08,31.56
             157.02,32.79 153.83,34.59 150.53,36.97
             147.24,39.34 144.10,41.91 141.11,44.67
             138.12,47.43 135.28,50.23 132.59,53.06
             129.91,55.90 127.57,58.46 125.58,60.77
             124.50,62.00 123.50,63.23 122.58,64.45
             121.66,65.68 120.74,66.91 119.83,68.12
             119.83,68.12 118.22,70.20 118.22,70.20
             111.78,78.95 106.11,88.34 101.20,98.38
             96.30,108.42 92.16,118.96 88.78,130.00
             83.41,148.40 82.04,163.73 84.64,176.00
             85.71,181.37 87.21,185.54 89.12,188.53
             91.04,191.52 93.34,193.59 96.02,194.75
             98.70,195.90 101.80,196.24 105.33,195.78
             108.86,195.32 112.70,194.25 116.84,192.56
             123.89,189.80 130.91,185.62 137.88,180.03
             144.85,174.43 151.30,168.64 157.20,162.66
             163.11,156.68 168.05,151.09 172.03,145.88
             176.02,140.66 178.55,137.13 179.62,135.30
             179.94,134.68 180.40,134.53 181.02,134.83
             181.77,135.45 181.93,135.98 181.47,136.44
             180.24,138.59 177.52,142.34 173.30,147.72
             169.09,153.09 163.99,158.80 158.02,164.86
             152.04,170.91 145.52,176.73 138.45,182.33
             131.40,187.92 124.43,192.10 117.53,194.86
             110.63,197.62 103.89,199.00 97.30,199.00
             95.14,199.00 93.07,198.89 91.08,198.66
             89.09,198.43 87.09,197.93 85.09,197.16
             80.96,195.93 77.47,193.52 74.62,189.92
             71.79,186.32 69.77,181.76 68.55,176.23
             65.93,163.66 67.38,148.02 72.91,129.31
             76.28,117.81 80.54,106.93 85.67,96.66
             90.80,86.38 96.75,76.87 103.50,68.12
             103.50,68.12 105.11,66.06 105.11,66.06
             105.11,66.06 109.94,60.08 109.94,60.08
             116.84,52.26 123.97,45.62 131.33,40.19
             138.69,34.74 145.82,30.79 152.72,28.34
             156.25,27.12 159.39,26.46 162.16,26.39
             164.91,26.31 167.33,26.50 169.39,26.97
             171.46,27.43 173.19,28.12 174.56,29.03
             175.95,29.95 177.10,30.79 178.02,31.56
             180.47,33.87 178.55,35.32 176.41,33.17 Z" />
</svg>
