<?xml version="1.0" encoding="UTF-8" standalone="no"?>
<!DOCTYPE svg PUBLIC "-//W3C//DTD SVG 20010904//EN"
              "http://www.w3.org/TR/2001/REC-SVG-20010904/DTD/svg10.dtd">

<svg xmlns="http://www.w3.org/2000/svg"
     width="33.3333in" height="1.33333in"
     viewBox="0 0 10000 400">
  <path id="C_cap_path_1"
        fill="none" stroke="black" stroke-width="1"
        d="M 105.22,66.06
           C 105.22,66.06 93.27,63.98 93.27,63.98
             82.37,62.30 71.90,60.84 61.86,59.62
             51.82,58.40 42.58,58.47 34.16,59.84
             25.10,61.23 17.90,64.38 12.53,69.28
             6.24,74.96 2.18,82.55 0.34,92.05
             0.34,95.42 1.72,97.11 4.49,97.11
             5.70,97.11 6.73,96.73 7.58,95.97
             8.42,95.20 8.84,94.20 8.84,92.97
             8.84,91.74 8.42,90.70 7.58,89.86
             6.73,89.02 5.70,88.59 4.49,88.59
             4.02,88.59 3.72,88.67 3.56,88.83
             6.01,79.93 10.15,73.45 15.97,69.39
             21.80,65.33 28.70,62.80 36.67,61.81
             44.65,60.81 53.47,60.89 63.13,62.05
             72.79,63.20 82.76,64.61 93.03,66.30
             93.03,66.30 103.61,68.12 103.61,68.12
             103.61,68.12 118.33,70.20 118.33,70.20
             125.54,70.96 132.55,71.46 139.38,71.70
             146.20,71.93 152.60,71.43 158.58,70.20
             165.02,69.13 170.46,66.68 174.91,62.84
             178.90,59.16 181.50,55.17 182.73,50.88
             183.81,47.36 183.92,43.84 183.08,40.31
             182.23,36.78 180.58,33.87 178.13,31.56
             177.21,30.79 174.37,31.03 176.52,33.17
             178.66,35.32 180.08,37.89 180.77,40.88
             181.46,43.87 181.35,46.97 180.42,50.19
             179.20,54.64 176.63,58.43 172.72,61.58
             168.81,64.73 163.95,66.84 158.13,67.91
             152.45,69.12 146.39,69.66 139.95,69.52
             133.52,69.36 126.84,68.90 119.94,68.12
             119.94,68.12 105.22,66.06 105.22,66.06 Z" />
</svg>
