<?xml version="1.0" encoding="UTF-8" standalone="no"?>
<!DOCTYPE svg PUBLIC "-//W3C//DTD SVG 20010904//EN"
              "http://www.w3.org/TR/2001/REC-SVG-20010904/DTD/svg10.dtd">

<svg xmlns="http://www.w3.org/2000/svg"
     width="33.3333in" height="1.33333in"
     viewBox="0 0 10000 400">
  <path id="com_path_1"
        fill="none" stroke="black" stroke-width="1"
        d="M 23.92,186.19
           C 24.08,188.95 23.73,191.82 22.89,194.81
             22.05,197.80 20.74,200.71 18.97,203.55
             17.21,206.39 14.98,209.04 12.30,211.48
             9.62,213.94 6.44,215.78 2.77,217.00
             2.61,217.00 2.45,217.00 2.30,217.00
             1.68,217.00 1.30,217.00 1.16,217.00
             1.00,216.39 1.23,215.86 1.84,215.39
             4.14,213.70 6.29,210.98 8.28,207.22
             10.27,203.47 11.91,199.45 13.22,195.16
             14.53,190.87 15.26,186.77 15.41,182.86
             15.56,178.95 14.95,176.07 13.56,174.23
             12.96,173.62 12.73,173.08 12.88,172.61
             13.19,171.85 13.65,171.62 14.27,171.92
             20.39,173.92 23.61,178.68 23.92,186.19 Z" />
</svg>
