<?xml version="1.0" encoding="UTF-8" standalone="no"?>
<!DOCTYPE svg PUBLIC "-//W3C//DTD SVG 20010904//EN"
              "http://www.w3.org/TR/2001/REC-SVG-20010904/DTD/svg10.dtd">

<svg xmlns="http://www.w3.org/2000/svg"
     width="33.3333in" height="1.33333in"
     viewBox="0 0 10000 400">
  <path id="D_cap_path_3"
        fill="none" stroke="black" stroke-width="1"
        d="M 163.98,221.08
           C 165.98,221.99 167.83,222.57 169.52,222.80
             171.20,223.04 172.96,223.16 174.80,223.16
             183.23,223.16 192.20,220.32 201.70,214.64
             209.22,210.19 216.35,204.48 223.09,197.52
             229.84,190.54 235.90,182.68 241.27,173.94
             247.79,163.30 252.95,151.73 256.72,139.24
             257.03,138.23 258.85,131.58 259.10,130.52
             261.10,122.28 262.44,113.76 263.12,104.94
             263.27,102.64 263.38,99.84 263.45,96.55
             263.54,93.25 263.54,89.64 263.45,85.73
             263.38,81.82 263.11,77.64 262.66,73.19
             262.20,68.74 261.51,64.29 260.59,59.84
             256.60,41.15 249.32,27.50 238.75,18.91
             228.78,10.78 216.13,7.56 200.80,9.25
             200.80,9.25 200.56,9.25 200.56,9.25
             197.49,9.55 194.42,10.01 191.36,10.62
             188.30,11.24 185.08,12.09 181.70,13.16
             176.64,14.69 171.58,16.99 166.52,20.06
             161.45,23.12 156.70,26.88 152.25,31.33
             147.81,35.78 144.02,40.42 140.88,45.25
             137.73,50.07 135.54,54.87 134.31,59.62
             133.85,61.16 133.47,63.00 133.16,65.14
             132.85,67.29 132.70,69.43 132.70,71.58
             132.70,73.73 132.89,75.80 133.28,77.80
             133.66,79.79 134.32,81.47 135.23,82.84
             136.30,84.69 137.91,85.61 140.06,85.61
             141.29,85.61 142.33,85.27 143.17,84.58
             144.02,83.89 144.44,82.93 144.44,81.70
             144.44,80.48 144.05,79.40 143.28,78.48
             142.52,77.56 141.52,77.09 140.30,77.09
             138.30,77.09 136.93,78.09 136.16,80.09
             135.24,77.49 134.89,74.20 135.12,70.20
             135.35,66.21 135.85,62.84 136.61,60.08
             137.84,55.48 139.98,50.85 143.05,46.17
             146.12,41.50 149.72,37.12 153.86,33.06
             158.00,28.99 162.53,25.39 167.44,22.25
             172.34,19.11 177.33,16.77 182.39,15.23
             196.04,11.40 207.99,12.13 218.27,17.42
             228.54,22.70 236.20,32.94 241.27,48.12
             243.11,53.34 244.45,58.66 245.30,64.11
             246.14,69.55 246.75,74.80 247.12,79.86
             247.51,84.92 247.62,89.60 247.47,93.89
             247.32,98.18 247.17,101.87 247.02,104.94
             246.55,110.76 245.83,116.40 244.83,121.84
             244.06,126.06 243.17,130.11 242.17,134.01
             241.88,135.14 239.95,141.85 239.63,142.82
             236.80,151.27 233.62,158.76 230.11,165.31
             226.20,172.59 222.41,178.76 218.73,183.81
             215.52,188.26 211.72,192.90 207.34,197.73
             202.98,202.57 198.34,206.86 193.42,210.61
             188.52,214.37 183.61,217.13 178.70,218.89
             173.80,220.66 169.20,220.70 164.91,219.02
             162.13,217.87 160.78,219.65 163.98,221.08 Z" />
</svg>
