<?xml version="1.0" encoding="UTF-8" standalone="no"?>
<!DOCTYPE svg PUBLIC "-//W3C//DTD SVG 20010904//EN"
              "http://www.w3.org/TR/2001/REC-SVG-20010904/DTD/svg10.dtd">

<svg xmlns="http://www.w3.org/2000/svg"
     width="33.3333in" height="1.33333in"
     viewBox="0 0 10000 400">
  <path id="D_cap_path_4"
        fill="none" stroke="black" stroke-width="1"
        d="M 163.52,218.22
           C 161.16,216.59 159.78,214.10 159.39,210.73
             159.09,208.12 159.35,205.28 160.19,202.22
             161.03,199.16 162.38,196.02 164.22,192.80
             168.82,184.98 175.72,177.31 184.92,169.80
             195.80,161.06 205.70,154.43 214.59,149.91
             223.49,145.38 232.15,142.04 240.58,139.89
             240.58,139.89 257.61,136.20 257.61,136.20
             258.67,135.90 260.20,135.64 262.19,135.41
             264.19,135.18 266.26,134.95 268.41,134.72
             270.55,134.49 272.66,134.30 274.73,134.14
             276.80,133.98 278.46,133.91 279.69,133.91
             280.29,133.91 280.59,133.45 280.59,132.53
             280.29,131.92 279.83,131.61 279.22,131.61
             276.61,131.45 273.12,131.61 268.75,132.08
             264.38,132.54 260.90,133.07 258.30,133.69
             258.30,133.69 241.27,137.36 241.27,137.36
             239.12,137.82 237.05,138.36 235.05,138.97
             233.05,139.59 230.99,140.28 228.84,141.05
             221.18,143.95 213.66,147.56 206.30,151.86
             198.94,156.15 191.28,161.52 183.31,167.95
             172.73,176.70 165.55,184.86 161.80,192.45
             158.05,200.04 156.48,206.20 157.09,210.95
             157.48,215.01 159.21,218.07 162.28,220.11
             165.61,222.52 168.61,220.78 163.52,218.22 Z" />
</svg>
