<?xml version="1.0" encoding="UTF-8" standalone="no"?>
<!DOCTYPE svg PUBLIC "-//W3C//DTD SVG 20010904//EN"
              "http://www.w3.org/TR/2001/REC-SVG-20010904/DTD/svg10.dtd">

<svg xmlns="http://www.w3.org/2000/svg"
     width="33.3333in" height="1.33333in"
     viewBox="0 0 10000 400">
  <path id="E_cap_path_1"
        fill="none" stroke="black" stroke-width="1"
        d="M 166.30,28.83
           C 167.83,29.79 169.21,30.98 170.44,32.42
             173.50,36.26 175.03,40.70 175.03,45.75
             175.03,51.11 173.34,55.85 169.97,59.98
             166.29,64.12 161.30,66.34 155.02,66.64
             150.57,66.80 145.73,66.30 140.52,65.16
             135.30,64.00 129.95,62.66 124.44,61.14
             123.21,60.83 122.05,60.52 120.98,60.22
             119.91,59.91 118.76,59.60 117.53,59.30
             117.53,59.30 103.05,55.86 103.05,55.86
             95.38,54.17 87.75,52.64 80.16,51.27
             72.56,49.89 65.16,48.98 57.95,48.52
             40.63,47.45 27.45,49.81 18.41,55.62
             11.34,60.22 6.44,67.42 3.69,77.22
             4.91,76.76 6.09,76.95 7.23,77.80
             8.39,78.64 8.97,79.75 8.97,81.12
             8.97,82.66 8.47,83.77 7.47,84.45
             6.48,85.14 5.52,85.48 4.59,85.48
             3.06,85.48 1.99,85.11 1.38,84.34
             0.76,83.57 0.45,82.62 0.45,81.47
             0.45,80.32 0.68,78.98 1.14,77.45
             1.61,75.92 2.07,74.47 2.53,73.09
             3.91,69.11 5.89,65.39 8.50,61.95
             11.11,58.51 14.03,55.71 17.25,53.56
             26.45,47.59 40.09,45.15 58.19,46.22
             65.55,46.82 73.18,47.82 81.08,49.20
             88.97,50.58 96.83,52.11 104.66,53.80
             104.66,53.80 118.91,57.55 118.91,57.55
             118.91,57.55 125.12,59.16 125.12,59.16
             130.49,60.69 135.70,62.03 140.75,63.19
             145.81,64.34 150.57,64.84 155.02,64.69
             161.15,64.53 165.63,62.50 168.47,58.59
             171.31,54.68 172.73,50.50 172.73,46.05
             172.73,44.06 172.35,41.99 171.58,39.84
             170.82,37.70 169.71,35.78 168.25,34.09
             167.30,32.99 166.21,32.07 164.99,31.33
             160.29,28.87 163.27,26.73 166.30,28.83 Z" />
</svg>
