<?xml version="1.0" encoding="UTF-8" standalone="no"?>
<!DOCTYPE svg PUBLIC "-//W3C//DTD SVG 20010904//EN"
              "http://www.w3.org/TR/2001/REC-SVG-20010904/DTD/svg10.dtd">

<svg xmlns="http://www.w3.org/2000/svg"
     width="33.3333in" height="1.33333in"
     viewBox="0 0 10000 400">
  <path id="E_cap_path_3"
        fill="none" stroke="black" stroke-width="1"
        d="M 147.75,94.76
           C 147.06,92.89 145.49,91.40 143.06,90.30
             139.84,88.77 135.16,88.00 129.03,88.00
             122.74,88.15 116.45,89.06 110.17,90.75
             110.17,90.75 101.22,93.87 96.38,96.28
             91.77,98.43 87.36,101.03 83.14,104.09
             78.92,107.16 74.89,110.53 71.06,114.22
             67.08,118.20 63.52,122.45 60.38,126.98
             57.23,131.51 54.66,136.14 52.67,140.89
             48.07,151.63 46.69,161.14 48.53,169.42
             50.68,178.46 54.35,185.29 59.56,189.89
             67.08,196.95 77.74,200.47 91.55,200.47
             96.60,200.47 101.54,199.74 106.38,198.28
             111.21,196.82 115.88,194.91 120.41,192.53
             124.93,190.16 129.22,187.44 133.28,184.38
             137.34,181.30 141.14,178.16 144.67,174.94
             153.10,167.27 160.11,159.95 165.70,152.97
             171.30,145.99 175.64,140.28 178.70,135.83
             179.17,135.07 179.10,134.53 178.48,134.22
             177.71,133.76 177.18,133.84 176.88,134.45
             173.80,138.90 169.50,144.62 163.98,151.59
             158.46,158.57 151.57,165.74 143.30,173.09
             138.54,177.24 133.39,181.31 127.88,185.30
             122.35,189.28 116.68,192.30 110.86,194.38
             105.04,196.44 99.13,197.20 93.16,196.67
             87.18,196.13 81.43,193.48 75.91,188.73
             69.77,183.53 66.01,176.93 64.62,168.95
             62.94,160.53 64.24,151.48 68.55,141.81
             70.38,137.22 72.83,132.74 75.89,128.38
             78.96,124.00 82.49,119.82 86.48,115.83
             88.93,113.37 91.49,111.11 94.17,109.05
             96.86,106.98 99.73,104.98 102.65,103.13
             106.39,100.74 108.78,99.83 113.16,97.56
             113.16,97.56 117.68,94.66 121.20,93.44
             124.73,92.21 127.80,91.44 130.41,91.12
             134.39,90.51 137.92,90.86 140.98,92.17
             143.08,93.07 144.50,94.05 145.23,95.12
             146.56,97.84 148.53,97.19 147.75,94.76 Z" />
</svg>
