<?xml version="1.0" encoding="UTF-8" standalone="no"?>
<!DOCTYPE svg PUBLIC "-//W3C//DTD SVG 20010904//EN"
              "http://www.w3.org/TR/2001/REC-SVG-20010904/DTD/svg10.dtd">

<svg xmlns="http://www.w3.org/2000/svg"
     width="33.3333in" height="1.33333in"
     viewBox="0 0 10000 400">
  <path id="E_cap_path_2"
        fill="none" stroke="black" stroke-width="1"
        d="M 145.81,96.66
           C 145.81,97.88 145.24,99.02 144.09,100.09
             142.95,101.17 141.45,102.12 139.61,102.97
             137.77,103.81 135.80,104.51 133.73,105.05
             131.67,105.58 129.80,105.84 128.11,105.84
             125.19,106.00 122.81,105.66 120.97,104.81
             119.13,103.97 117.60,103.01 116.38,101.94
             115.29,100.97 114.39,99.85 113.68,98.59
             113.49,98.26 110.70,93.26 109.64,89.27
             109.51,88.78 109.38,88.21 109.25,87.55
             108.95,84.17 109.21,80.42 110.05,76.30
             110.89,72.16 112.31,68.18 114.31,64.34
             114.31,64.34 115.84,61.95 116.79,60.46
             117.22,59.79 119.59,56.68 119.95,56.23
             121.74,54.01 123.84,51.65 126.27,49.16
             129.18,46.17 132.36,43.34 135.81,40.66
             139.26,37.97 142.74,35.63 146.27,33.64
             149.80,31.64 153.10,30.34 156.17,29.72
             158.62,29.26 160.88,29.45 162.95,30.30
             168.27,32.84 169.09,29.60 164.04,27.65
             161.71,26.63 159.08,26.08 156.17,26.00
             154.18,26.00 152.11,26.12 149.95,26.34
             147.80,26.57 145.59,27.07 143.30,27.84
             138.85,28.92 134.40,30.61 129.95,32.91
             125.50,35.20 121.29,37.95 117.30,41.16
             114.85,43.00 112.59,45.00 110.52,47.14
             108.75,48.96 107.08,50.83 105.49,52.77
             105.21,53.11 102.65,56.50 102.44,56.83
             101.87,57.75 101.30,58.70 100.73,59.66
             99.97,60.96 99.21,62.22 98.44,63.44
             94.14,71.87 92.46,79.75 93.38,87.09
             93.51,89.75 94.28,92.39 95.68,95.04
             96.74,97.00 102.09,103.00 103.45,103.81
             106.58,106.03 110.02,107.30 113.73,107.66
             117.80,108.04 121.82,108.16 125.81,108.00
             132.25,107.70 137.61,106.40 141.91,104.09
             146.05,101.95 148.12,99.34 148.12,96.28
             147.78,92.59 145.19,92.91 145.81,96.66 Z" />
</svg>
