<?xml version="1.0" encoding="UTF-8" standalone="no"?>
<!DOCTYPE svg PUBLIC "-//W3C//DTD SVG 20010904//EN"
              "http://www.w3.org/TR/2001/REC-SVG-20010904/DTD/svg10.dtd">

<svg xmlns="http://www.w3.org/2000/svg"
     width="33.3333in" height="1.33333in"
     viewBox="0 0 10000 400">
  <path id="F_cap_path_1"
        fill="none" stroke="black" stroke-width="1"
        d="M 175.20,104.48
           C 176.15,101.57 178.48,94.44 178.48,94.44
             180.47,88.15 182.43,82.05 184.34,76.16
             186.26,70.25 188.21,64.73 190.20,59.59
             192.20,54.45 194.27,49.84 196.42,45.78
             198.57,41.72 200.86,38.39 203.31,35.78
             205.77,33.34 208.30,31.65 210.91,30.73
             213.51,29.81 215.96,29.80 218.27,30.72
             218.88,31.03 219.34,30.88 219.66,30.27
             219.96,29.50 219.72,28.96 218.95,28.66
             214.97,26.66 211.30,25.62 207.92,25.55
             204.55,25.48 201.52,25.94 198.83,26.94
             196.15,27.93 193.89,29.15 192.05,30.61
             190.21,32.07 188.83,33.26 187.91,34.17
             185.30,36.78 182.88,40.27 180.66,44.64
             178.44,49.01 176.29,54.03 174.22,59.70
             172.16,65.38 170.09,71.52 168.02,78.11
             165.94,84.70 163.91,91.45 161.92,98.34
             161.92,98.34 159.83,105.29 158.91,108.39
             158.64,109.27 157.58,113.04 157.48,113.36
             154.65,122.67 151.69,131.73 148.58,140.55
             145.36,149.67 141.83,158.07 138.00,165.73
             136.01,169.57 133.79,173.40 131.33,177.23
             128.88,181.07 126.16,184.48 123.17,187.47
             120.18,190.46 116.88,192.91 113.28,194.83
             109.68,196.75 105.73,197.70 101.44,197.70
             96.68,197.70 92.41,197.05 88.66,195.75
             84.91,194.45 81.61,192.76 78.77,190.69
             75.93,188.62 73.52,186.32 71.53,183.80
             69.54,181.27 67.93,178.77 66.70,176.31
             66.70,176.31 66.34,175.66 66.02,175.09
             65.77,174.64 62.77,167.20 62.65,166.82
             61.02,161.64 59.95,156.19 59.45,150.47
             58.92,144.34 59.08,138.28 59.92,132.30
             60.77,126.32 62.22,120.57 64.28,115.05
             66.35,109.53 69.00,104.70 72.22,100.56
             74.68,97.49 77.86,94.58 81.77,91.83
             85.67,89.07 90.54,87.76 96.38,87.91
             100.98,88.18 100.47,85.91 95.91,85.92
             92.38,85.92 89.02,86.54 85.80,87.77
             79.80,89.91 74.66,93.82 70.38,99.50
             66.70,104.09 63.74,109.62 61.52,116.06
             59.30,122.50 57.88,129.40 57.27,136.75
             56.39,148.38 57.62,158.86 60.97,168.22
             61.11,168.62 63.82,175.82 64.05,176.20
             64.29,176.58 64.48,176.92 64.62,177.23
             68.61,184.45 73.52,189.96 79.34,193.80
             85.94,197.93 93.38,200.00 101.66,200.00
             107.63,200.00 113.08,199.00 117.98,197.02
             122.89,195.02 127.38,192.41 131.44,189.19
             135.51,185.97 139.16,182.26 142.38,178.05
             145.59,173.83 148.50,169.42 151.11,164.81
             155.86,156.53 160.11,147.53 163.88,137.80
             167.44,128.56 170.70,119.29 173.63,109.99
             173.79,109.48 174.95,105.23 175.20,104.48 Z" />
</svg>
