<?xml version="1.0" encoding="UTF-8" standalone="no"?>
<!DOCTYPE svg PUBLIC "-//W3C//DTD SVG 20010904//EN"
              "http://www.w3.org/TR/2001/REC-SVG-20010904/DTD/svg10.dtd">

<svg xmlns="http://www.w3.org/2000/svg"
     width="33.3333in" height="1.33333in"
     viewBox="0 0 10000 400">
  <path id="F_cap_path_4"
        fill="none" stroke="black" stroke-width="1"
        d="M 174.11,108.47
           C 178.86,107.24 183.41,106.17 187.78,105.25
             192.16,104.32 195.88,103.86 198.95,103.86
             198.95,103.86 199.19,103.86 199.19,103.86
             201.79,103.86 203.71,104.48 204.94,105.70
             205.70,106.48 206.08,107.24 206.08,108.00
             206.08,108.77 206.46,109.16 207.23,109.16
             207.99,109.16 208.38,108.77 208.38,108.00
             208.38,106.47 207.84,105.17 206.77,104.09
             205.08,102.41 202.55,101.56 199.19,101.56
             196.11,101.56 192.43,101.98 188.14,102.83
             183.85,103.67 179.40,104.63 174.80,105.70
             174.80,105.70 158.47,109.84 158.47,109.84
             153.10,111.22 148.43,111.91 144.44,111.91
             142.75,111.91 141.18,111.64 139.72,111.11
             138.27,110.57 137.55,109.45 137.55,107.77
             137.55,107.01 137.16,106.62 136.39,106.62
             135.62,106.62 135.23,107.01 135.23,107.77
             135.23,112.07 138.30,114.22 144.44,114.22
             147.97,114.22 152.41,113.61 157.78,112.38
             157.78,112.38 174.11,108.47 174.11,108.47 Z" />
</svg>
