<?xml version="1.0" encoding="UTF-8" standalone="no"?>
<!DOCTYPE svg PUBLIC "-//W3C//DTD SVG 20010904//EN"
              "http://www.w3.org/TR/2001/REC-SVG-20010904/DTD/svg10.dtd">

<svg xmlns="http://www.w3.org/2000/svg"
     width="33.3333in" height="1.33333in"
     viewBox="0 0 10000 400">
  <path id="F_cap_path_3"
        fill="none" stroke="black" stroke-width="1"
        d="M 266.11,24.89
           C 266.57,25.66 267.02,26.70 267.48,28.00
             267.95,29.30 268.03,30.57 267.72,31.80
             267.41,33.02 266.80,33.93 265.88,34.55
             264.96,35.16 263.88,35.32 262.66,35.02
             261.43,34.70 260.50,34.09 259.89,33.17
             259.29,32.26 259.13,31.26 259.44,30.19
             259.75,28.96 260.36,28.00 261.28,27.31
             262.20,26.62 263.27,26.42 264.50,26.73
             264.50,26.58 264.42,26.42 264.27,26.27
             262.12,23.20 258.29,21.06 252.77,19.83
             246.02,18.45 238.55,17.88 230.34,18.11
             222.14,18.34 213.75,18.76 205.16,19.38
             196.57,19.84 188.14,20.18 179.86,20.41
             171.58,20.64 163.99,20.06 157.09,18.69
             152.19,17.76 148.35,16.07 145.59,13.62
             144.36,12.40 143.52,11.09 143.06,9.72
             142.60,8.34 142.38,6.80 142.38,5.11
             142.38,4.04 142.87,3.01 143.86,2.02
             144.86,1.02 146.05,0.67 147.44,0.97
             148.66,1.28 149.61,1.90 150.30,2.81
             150.99,3.73 151.19,4.80 150.88,6.03
             150.57,7.26 149.92,8.18 148.92,8.80
             147.93,9.40 146.89,9.55 145.81,9.25
             145.51,9.25 145.28,9.17 145.12,9.02
             146.20,11.32 148.00,13.05 150.53,14.20
             153.06,15.35 155.40,16.15 157.55,16.61
             164.14,17.84 171.58,18.34 179.86,18.11
             188.14,17.88 196.50,17.53 204.94,17.06
             213.68,16.46 222.18,16.04 230.45,15.81
             238.73,15.57 246.33,16.15 253.23,17.53
             259.37,18.76 263.66,21.21 266.11,24.89 Z" />
</svg>
