<?xml version="1.0" encoding="UTF-8" standalone="no"?>
<!DOCTYPE svg PUBLIC "-//W3C//DTD SVG 20010904//EN"
              "http://www.w3.org/TR/2001/REC-SVG-20010904/DTD/svg10.dtd">

<svg xmlns="http://www.w3.org/2000/svg"
     width="33.3333in" height="1.33333in"
     viewBox="0 0 10000 400">
  <path id="F_cap_path_2"
        fill="none" stroke="black" stroke-width="1"
        d="M 97.55,87.94
           C 99.93,88.08 101.95,88.64 103.61,89.64
             105.52,90.79 107.10,92.20 108.33,93.89
             109.55,95.58 110.40,97.42 110.86,99.42
             111.32,101.41 111.47,103.32 111.31,105.16
             111.01,111.29 108.33,118.46 103.27,126.67
             98.21,134.87 91.62,143.03 83.48,151.16
             80.27,154.53 76.93,157.64 73.48,160.48
             70.04,163.32 66.55,165.81 63.02,167.95
             62.13,168.57 61.22,169.43 61.22,169.43
             57.24,171.43 53.48,173.06 49.56,174.36
             45.66,175.66 41.86,176.39 38.17,176.55
             34.49,176.70 30.85,176.00 27.25,174.47
             23.64,172.94 20.23,170.34 17.02,166.66
             13.80,162.97 11.49,158.79 10.11,154.12
             8.73,149.45 8.43,144.96 9.20,140.66
             9.96,141.43 10.96,141.81 12.19,141.81
             13.41,141.81 14.45,141.43 15.30,140.67
             16.14,139.90 16.48,138.90 16.33,137.67
             16.17,136.45 15.67,135.41 14.83,134.56
             13.98,133.72 12.95,133.30 11.73,133.30
             10.50,133.30 9.62,133.65 9.08,134.34
             8.55,135.03 8.12,135.76 7.81,136.52
             6.13,141.42 5.95,146.79 7.25,152.62
             8.55,158.45 11.20,163.59 15.19,168.03
             18.71,171.87 22.50,174.70 26.56,176.55
             30.62,178.38 34.72,179.45 38.86,179.77
             43.00,180.07 47.14,179.80 51.28,178.95
             55.43,178.11 59.49,176.84 63.48,175.16
             63.48,175.16 65.55,174.25 65.55,174.25
             71.84,171.49 78.01,167.96 84.06,163.67
             90.12,159.37 95.84,154.46 101.20,148.94
             108.55,141.59 114.19,134.15 118.09,126.64
             122.01,119.12 123.82,112.37 123.52,106.39
             123.52,103.02 122.36,99.49 120.06,95.81
             117.76,92.14 113.23,89.30 106.48,87.30
             103.39,86.49 100.30,86.04 97.20,85.94
             94.78,85.82 95.02,88.13 97.55,87.94 Z" />
</svg>
