<?xml version="1.0" encoding="UTF-8" standalone="no"?>
<!DOCTYPE svg PUBLIC "-//W3C//DTD SVG 20010904//EN"
              "http://www.w3.org/TR/2001/REC-SVG-20010904/DTD/svg10.dtd">

<svg xmlns="http://www.w3.org/2000/svg"
     width="33.3333in" height="1.33333in"
     viewBox="0 0 10000 400">
  <path id="G_cap_path_2"
        fill="none" stroke="black" stroke-width="1"
        d="M 175.75,32.55
           C 173.75,30.82 171.48,29.91 168.94,29.84
             166.10,29.76 163.15,30.34 160.08,31.56
             157.02,32.79 153.83,34.59 150.53,36.97
             147.24,39.34 144.10,41.91 141.11,44.67
             138.12,47.43 135.28,50.23 132.59,53.06
             129.91,55.90 127.57,58.46 125.58,60.77
             124.50,62.00 123.50,63.23 122.58,64.45
             121.66,65.68 120.74,66.91 119.83,68.12
             119.83,68.12 118.22,70.20 118.22,70.20
             111.78,78.95 106.11,88.34 101.20,98.38
             96.30,108.42 92.16,118.96 88.78,130.00
             83.41,148.40 82.04,163.73 84.64,176.00
             85.71,181.37 87.21,185.54 89.12,188.53
             91.04,191.52 93.34,193.59 96.02,194.75
             98.70,195.90 101.80,196.24 105.33,195.78
             108.86,195.32 112.70,194.25 116.84,192.56
             123.12,190.11 129.48,186.46 135.92,181.64
             142.37,176.81 148.35,171.63 153.88,166.11
             159.39,160.59 164.26,155.30 168.47,150.25
             172.69,145.19 175.80,141.20 177.80,138.28
             178.40,136.29 179.47,134.73 181.00,133.58
             182.54,132.42 184.16,131.62 185.84,131.16
             187.53,130.69 189.18,130.42 190.78,130.34
             192.39,130.27 193.66,130.23 194.58,130.23
             192.59,142.81 189.94,155.73 186.64,168.98
             183.35,182.25 179.32,195.26 174.56,208.02
             169.81,220.79 164.41,233.13 158.34,245.06
             152.29,257.00 145.51,267.89 138.00,277.75
             125.12,294.68 111.40,306.68 96.83,313.77
             88.24,317.92 80.04,320.00 72.22,320.00
             65.94,320.00 60.04,318.61 54.52,315.84
             47.30,312.46 42.70,307.61 40.70,301.30
             38.71,295.91 38.87,289.45 41.17,281.91
             42.55,277.75 44.54,273.44 47.14,268.97
             49.75,264.50 52.94,260.07 56.69,255.69
             60.45,251.30 64.66,246.95 69.34,242.64
             74.02,238.33 79.04,234.33 84.41,230.64
             89.77,226.94 95.13,223.63 100.50,220.70
             105.88,217.77 111.16,215.47 116.38,213.78
             127.73,209.62 138.00,208.39 147.20,210.08
             148.12,210.08 148.43,210.46 148.12,211.23
             148.12,212.32 147.74,212.62 146.97,212.16
             138.69,210.77 129.18,211.85 118.44,215.39
             107.71,218.93 96.83,224.63 85.80,232.48
             75.21,239.87 66.16,248.02 58.64,256.95
             51.13,265.89 46.07,274.44 43.47,282.59
             40.71,291.21 40.59,297.86 43.12,302.56
             45.66,307.26 49.57,310.30 54.86,311.69
             60.15,313.07 66.21,313.03 73.03,311.56
             79.85,310.10 86.10,307.38 91.77,303.38
             102.65,295.99 112.93,285.91 122.59,273.12
             129.95,263.43 136.42,252.99 142.02,241.83
             147.62,230.67 152.57,219.36 156.86,207.91
             161.15,196.45 164.83,185.24 167.89,174.28
             170.96,163.31 173.73,153.23 176.19,144.03
             173.43,147.71 169.89,152.00 165.59,156.91
             161.30,161.81 156.55,166.72 151.33,171.62
             146.12,176.53 140.60,181.09 134.78,185.31
             128.96,189.53 123.21,192.71 117.53,194.86
             110.63,197.62 103.89,199.00 97.30,199.00
             95.14,199.00 93.07,198.89 91.08,198.66
             89.09,198.43 87.09,197.93 85.09,197.16
             80.96,195.93 77.47,193.52 74.62,189.92
             71.79,186.32 69.77,181.76 68.55,176.23
             65.93,163.66 67.38,148.02 72.91,129.31
             76.28,117.81 80.54,106.93 85.67,96.66
             90.80,86.38 96.75,76.87 103.50,68.12
             103.50,68.12 105.11,66.06 105.11,66.06
             105.11,66.06 109.94,60.08 109.94,60.08
             116.84,52.26 123.97,45.62 131.33,40.19
             138.69,34.74 145.82,30.79 152.72,28.34
             156.25,27.12 159.39,26.46 162.16,26.39
             164.91,26.31 167.33,26.50 169.39,26.97
             171.46,27.43 173.19,28.12 174.56,29.03
             175.60,29.72 176.51,30.36 177.28,30.96
             179.39,32.31 177.74,34.34 175.75,32.55 Z
			 M 176.41,212.11
           C 175.64,211.80 175.30,211.38 175.38,210.84
             175.45,210.31 175.95,210.05 176.88,210.05
             189.91,209.89 202.02,201.84 213.20,185.89
             216.43,181.45 219.50,176.62 222.41,171.41
             225.32,166.19 228.00,161.20 230.45,156.45
             232.91,151.70 235.10,147.44 237.02,143.69
             238.93,139.93 240.35,137.20 241.27,135.52
             241.58,134.90 242.08,134.79 242.77,135.17
             243.45,135.56 243.57,136.14 243.11,136.91
             241.27,139.81 239.35,143.30 237.36,147.36
             235.37,151.42 233.22,155.68 230.92,160.12
             228.62,164.57 226.12,169.14 223.44,173.81
             220.76,178.49 217.88,182.98 214.81,187.27
             209.60,194.48 203.93,200.41 197.80,205.09
             191.66,209.77 184.53,212.11 176.41,212.11 Z" />
</svg>
