<?xml version="1.0" encoding="UTF-8" standalone="no"?>
<!DOCTYPE svg PUBLIC "-//W3C//DTD SVG 20010904//EN"
              "http://www.w3.org/TR/2001/REC-SVG-20010904/DTD/svg10.dtd">

<svg xmlns="http://www.w3.org/2000/svg"
     width="33.3333in" height="1.33333in"
     viewBox="0 0 10000 400">
  <path id="G_cap_path_1"
        fill="none" stroke="black" stroke-width="1"
        d="M 178.02,31.56
           C 180.47,33.87 182.12,36.78 182.97,40.31
             183.81,43.84 183.70,47.36 182.62,50.88
             181.39,55.17 178.79,59.16 174.80,62.84
             170.35,66.68 164.91,69.13 158.47,70.20
             152.49,71.43 146.09,71.93 139.27,71.70
             132.79,71.47 126.14,71.01 119.31,70.31
             118.95,70.28 103.20,68.07 102.70,67.98
             100.23,67.56 92.92,66.30 92.92,66.30
             82.65,64.61 72.68,63.20 63.02,62.05
             53.36,60.89 44.54,60.81 36.56,61.81
             28.59,62.80 21.69,65.33 15.86,69.39
             10.04,73.45 5.90,79.93 3.45,88.83
             3.61,88.67 3.91,88.59 4.38,88.59
             5.59,88.59 6.62,89.02 7.47,89.86
             8.31,90.70 8.73,91.74 8.73,92.97
             8.73,94.20 8.31,95.20 7.47,95.97
             6.62,96.73 5.59,97.11 4.38,97.11
             1.61,97.11 0.23,95.42 0.23,92.05
             2.07,82.55 6.13,74.96 12.42,69.28
             17.79,64.38 24.99,61.23 34.05,59.84
             42.47,58.47 51.71,58.40 61.75,59.62
             71.79,60.84 82.26,62.30 93.16,63.98
             93.16,63.98 101.26,65.39 104.06,65.88
             104.64,65.98 120.56,68.20 120.92,68.24
             127.43,68.95 133.75,69.37 139.84,69.52
             146.28,69.66 152.34,69.12 158.02,67.91
             163.84,66.84 168.70,64.73 172.61,61.58
             176.52,58.43 179.09,54.64 180.31,50.19
             181.24,46.97 181.35,43.87 180.66,40.88
             179.97,37.89 178.55,35.32 176.41,33.17
             173.59,30.92 176.17,29.66 178.02,31.56 Z" />
</svg>
