<?xml version="1.0" encoding="UTF-8" standalone="no"?>
<!DOCTYPE svg PUBLIC "-//W3C//DTD SVG 20010904//EN"
              "http://www.w3.org/TR/2001/REC-SVG-20010904/DTD/svg10.dtd">

<svg xmlns="http://www.w3.org/2000/svg"
     width="33.3333in" height="1.33333in"
     viewBox="0 0 10000 400">
  <path id="H_cap_path_1"
        fill="none" stroke="black" stroke-width="1"
        d="M 222.11,29.00
           C 223.64,31.00 223.79,33.16 222.56,35.47
             221.34,37.62 219.16,39.42 216.02,40.89
             212.87,42.35 209.54,43.08 206.02,43.08
             204.94,43.08 203.83,43.08 202.67,43.08
             201.52,43.08 200.34,43.00 199.11,42.84
             199.11,42.84 184.16,40.53 184.16,40.53
             178.95,39.46 173.54,38.23 167.94,36.84
             162.34,35.46 156.71,34.07 151.05,32.69
             140.92,30.07 131.02,27.70 121.36,25.55
             111.70,23.40 103.50,22.33 96.77,22.33
             96.77,22.33 96.53,22.33 96.53,22.33
             90.55,22.33 86.33,23.71 83.88,26.47
             83.88,26.47 83.19,27.16 83.19,27.16
             83.19,27.16 83.42,27.16 83.42,27.16
             84.65,27.16 85.69,27.58 86.53,28.42
             87.38,29.27 87.80,30.30 87.80,31.53
             87.80,32.75 87.38,33.75 86.53,34.52
             85.69,35.29 84.65,35.67 83.42,35.67
             80.96,35.67 79.58,34.45 79.28,31.98
             79.28,31.98 79.28,31.06 79.28,31.06
             79.58,28.62 80.58,26.54 82.27,24.84
             85.48,21.62 90.24,20.00 96.53,20.00
             96.53,20.00 96.77,20.00 96.77,20.00
             103.66,20.00 111.97,21.08 121.70,23.23
             131.44,25.39 141.38,27.78 151.50,30.39
             157.32,31.92 163.14,33.38 168.97,34.77
             174.80,36.15 180.33,37.39 185.55,38.47
             185.55,38.47 200.72,40.53 200.72,40.53
             201.63,40.68 202.55,40.75 203.47,40.75
             204.39,40.75 205.24,40.75 206.02,40.75
             209.54,40.75 212.63,40.10 215.31,38.80
             218.00,37.50 219.73,36.00 220.50,34.31
             221.11,33.09 221.11,31.82 220.50,30.52
             217.75,26.75 220.88,27.31 222.11,29.00 Z" />
</svg>
