<?xml version="1.0" encoding="UTF-8" standalone="no"?>
<!DOCTYPE svg PUBLIC "-//W3C//DTD SVG 20010904//EN"
              "http://www.w3.org/TR/2001/REC-SVG-20010904/DTD/svg10.dtd">

<svg xmlns="http://www.w3.org/2000/svg"
     width="33.3333in" height="1.33333in"
     viewBox="0 0 10000 400">
  <path id="H_cap_path_4"
        fill="none" stroke="black" stroke-width="1"
        d="M 293.66,24.73
           C 296.41,25.96 298.02,28.27 298.48,31.64
             299.25,36.39 297.87,43.14 294.34,51.87
             292.97,55.87 291.21,60.05 289.06,64.42
             286.91,68.79 284.54,73.27 281.94,77.86
             277.18,86.14 272.30,93.73 267.31,100.64
             262.33,107.54 257.85,112.75 253.87,116.28
             253.87,116.28 247.00,121.00 232.25,125.44
             227.19,127.13 221.97,128.59 216.61,129.83
             211.24,131.06 206.34,132.06 201.89,132.83
             194.99,134.06 187.86,135.02 180.50,135.72
             173.13,136.41 166.08,136.90 159.34,137.20
             159.34,137.20 151.00,137.25 145.55,136.45
             143.39,136.00 141.63,135.31 140.25,134.39
             137.49,132.57 135.88,130.05 135.42,126.84
             135.42,125.62 135.69,124.46 136.22,123.39
             136.76,122.32 137.87,121.78 139.56,121.78
             140.79,121.78 141.83,122.20 142.67,123.05
             143.52,123.89 143.94,124.92 143.94,126.14
             143.94,127.37 143.52,128.37 142.67,129.14
             141.83,129.90 140.79,130.28 139.56,130.28
             139.56,130.28 139.09,130.28 139.09,130.28
             139.86,131.51 140.90,132.43 142.20,133.05
             143.50,133.66 144.85,134.12 146.23,134.42
             152.50,135.50 160.48,134.91 160.48,134.91
             165.86,134.75 171.69,134.37 177.97,133.75
             184.26,133.14 190.63,132.34 197.06,131.34
             203.50,130.34 209.82,129.08 216.03,127.55
             222.24,126.02 228.03,124.33 233.41,122.48
             245.75,119.25 255.25,113.00 255.94,110.91
             259.47,106.92 263.34,101.93 267.55,95.95
             271.77,89.98 275.87,83.54 279.86,76.64
             285.68,66.67 290.01,57.74 292.84,49.84
             295.69,41.95 296.80,36.01 296.19,32.02
             295.88,30.33 295.58,29.26 295.27,28.80
             294.96,28.34 290.28,23.66 293.66,24.73 Z" />
</svg>
