<?xml version="1.0" encoding="UTF-8" standalone="no"?>
<!DOCTYPE svg PUBLIC "-//W3C//DTD SVG 20010904//EN"
              "http://www.w3.org/TR/2001/REC-SVG-20010904/DTD/svg10.dtd">

<svg xmlns="http://www.w3.org/2000/svg"
     width="33.3333in" height="1.33333in"
     viewBox="0 0 10000 400">
  <path id="H_cap_path_5"
        fill="none" stroke="black" stroke-width="1"
        d="M 293.41,24.98
           C 290.03,23.91 286.46,24.91 282.70,27.98
             278.95,31.05 275.16,35.38 271.33,40.97
             267.49,46.56 263.81,52.89 260.28,59.95
             256.76,67.01 253.50,73.87 250.52,80.53
             247.52,87.20 244.99,93.22 242.92,98.59
             240.85,103.96 239.35,107.71 238.44,109.86
             237.52,112.01 236.60,114.15 235.67,116.30
             234.75,118.45 233.91,120.59 233.16,122.73
             233.16,122.73 232.00,125.69 232.00,125.69
             226.94,139.50 222.88,153.47 219.81,167.59
             218.12,175.89 217.93,182.61 219.23,187.75
             220.54,192.90 223.10,196.31 226.94,198.00
             228.94,198.67 230.93,199.00 232.92,199.00
             236.91,199.00 241.12,197.55 245.56,194.64
             250.78,191.27 255.61,187.32 260.06,182.81
             264.51,178.29 268.61,173.51 272.36,168.45
             276.12,163.40 279.69,158.20 283.06,152.84
             286.44,147.48 289.73,142.20 292.95,137.00
             293.41,136.39 293.25,135.85 292.48,135.39
             291.87,134.78 291.33,134.85 290.88,135.61
             287.50,141.13 284.16,146.53 280.88,151.81
             277.58,157.09 274.13,162.15 270.53,166.97
             266.93,171.79 263.09,176.27 259.03,180.41
             254.97,184.53 250.41,188.28 245.34,191.66
             239.05,195.94 234.79,195.75 232.56,191.08
             230.34,186.41 231.46,177.50 235.91,164.33
             238.21,157.43 240.89,149.89 243.95,141.70
             247.02,133.51 250.25,125.12 253.62,116.53
             253.62,116.53 255.69,111.16 255.69,111.16
             258.45,104.11 261.24,97.13 264.08,90.23
             266.92,83.33 269.64,76.73 272.25,70.45
             274.85,64.16 277.30,58.37 279.61,53.08
             281.91,47.79 283.98,43.23 285.81,39.39
             287.50,35.87 288.99,33.04 290.30,30.89
             291.61,28.75 292.80,27.82 293.88,28.12
             296.75,29.62 298.62,27.38 293.41,24.98 Z" />
</svg>
