<?xml version="1.0" encoding="UTF-8" standalone="no"?>
<!DOCTYPE svg PUBLIC "-//W3C//DTD SVG 20010904//EN"
              "http://www.w3.org/TR/2001/REC-SVG-20010904/DTD/svg10.dtd">

<svg xmlns="http://www.w3.org/2000/svg"
     width="33.3333in" height="1.33333in"
     viewBox="0 0 10000 400">
  <path id="I_cap_path_1"
        fill="none" stroke="black" stroke-width="1"
        d="M 212.52,29.00
           C 214.20,31.00 214.51,33.16 213.44,35.47
             212.52,37.62 210.57,39.42 207.58,40.89
             204.59,42.35 201.33,43.08 197.80,43.08
             196.72,43.08 195.61,43.08 194.45,43.08
             193.72,43.08 192.94,43.05 192.12,42.98
             187.66,42.66 178.59,40.84 174.74,40.33
             169.67,39.31 164.45,38.15 159.05,36.84
             153.30,35.46 147.51,34.07 141.69,32.69
             131.41,30.07 121.32,27.70 111.42,25.55
             101.54,23.40 93.22,22.33 86.48,22.33
             86.48,22.33 86.25,22.33 86.25,22.33
             80.43,22.33 76.36,23.71 74.06,26.47
             74.06,26.47 73.38,27.16 73.38,27.16
             73.38,27.16 74.06,27.16 74.06,27.16
             75.29,27.16 76.33,27.58 77.17,28.42
             78.02,29.27 78.44,30.30 78.44,31.53
             78.44,32.75 78.02,33.75 77.17,34.52
             76.33,35.29 75.29,35.67 74.06,35.67
             71.60,35.67 70.22,34.45 69.92,31.98
             69.92,31.98 69.92,31.75 69.92,31.75
             69.61,29.15 70.38,26.84 72.22,24.84
             75.13,21.62 79.73,20.00 86.02,20.00
             86.02,20.00 86.25,20.00 86.25,20.00
             93.14,20.00 101.54,21.08 111.42,23.23
             121.32,25.39 131.48,27.78 141.91,30.39
             148.04,31.92 154.05,33.38 159.95,34.77
             165.48,36.06 170.77,37.23 175.83,38.26
             180.50,39.22 190.44,40.53 193.53,40.69
             194.03,40.73 194.53,40.75 195.03,40.75
             195.96,40.75 196.80,40.75 197.56,40.75
             201.09,40.75 204.08,40.10 206.53,38.80
             208.99,37.50 210.60,36.00 211.38,34.31
             211.83,33.09 211.71,31.82 211.02,30.52
             209.40,28.33 211.27,27.33 212.52,29.00 Z" />
</svg>
