<?xml version="1.0" encoding="UTF-8" standalone="no"?>
<!DOCTYPE svg PUBLIC "-//W3C//DTD SVG 20010904//EN"
              "http://www.w3.org/TR/2001/REC-SVG-20010904/DTD/svg10.dtd">

<svg xmlns="http://www.w3.org/2000/svg"
     width="33.3333in" height="1.33333in"
     viewBox="0 0 10000 400">
  <path id="I_cap_path_2"
        fill="none" stroke="black" stroke-width="1"
        d="M 90.05,85.53
           C 86.60,85.53 83.27,86.15 80.05,87.39
             74.21,89.54 69.15,93.46 64.86,99.16
             61.33,103.77 58.52,109.31 56.45,115.78
             54.39,122.24 53.21,129.16 52.91,136.55
             52.45,148.41 53.98,159.08 57.49,168.59
             57.57,168.80 60.61,175.40 60.71,175.60
             60.91,176.02 61.22,176.53 61.64,177.16
             65.47,184.09 70.53,189.62 76.81,193.77
             83.41,197.92 90.92,200.00 99.36,200.00
             99.36,200.00 99.81,200.00 99.81,200.00
             119.13,199.84 135.16,188.07 147.89,164.69
             153.87,153.30 158.70,141.65 162.38,129.73
             166.06,117.81 169.59,105.92 172.95,94.08
             175.87,83.92 178.71,74.34 181.47,65.34
             184.23,56.34 187.30,48.84 190.67,42.84
             190.67,42.84 192.28,40.53 192.28,40.53
             192.89,39.46 193.51,38.50 194.12,37.66
             194.74,36.81 195.35,36.01 195.95,35.23
             198.11,33.09 200.22,31.40 202.28,30.17
             204.35,28.95 206.16,28.41 207.69,28.56
             208.91,28.56 209.87,28.98 210.56,29.81
             211.56,31.27 213.53,29.78 211.93,28.35
             210.58,27.00 208.70,26.03 206.31,25.44
             203.55,24.74 201.33,24.39 199.64,24.39
             195.19,24.23 191.36,25.20 188.14,27.28
             184.92,29.36 182.39,31.46 180.55,33.61
             179.32,34.85 178.09,36.47 176.88,38.47
             176.88,38.47 175.72,40.53 175.72,40.53
             172.20,46.99 168.90,55.30 165.83,65.45
             162.77,75.61 159.70,86.46 156.62,98.00
             155.25,102.93 154.10,107.20 153.17,110.81
             152.25,114.43 151.38,117.62 150.53,120.39
             149.69,123.16 148.92,125.74 148.23,128.12
             147.55,130.51 146.82,132.93 146.05,135.39
             144.97,138.93 143.71,142.97 142.25,147.50
             140.79,152.02 138.22,158.04 134.55,165.55
             124.58,186.86 112.85,197.52 99.36,197.52
             91.85,197.52 84.98,195.64 78.77,191.89
             72.55,188.13 67.46,182.88 63.48,176.12
             63.48,176.12 63.05,175.12 62.64,174.47
             62.53,174.30 59.64,167.49 59.56,167.26
             57.69,161.95 56.43,156.36 55.77,150.47
             55.08,144.34 55.04,138.28 55.66,132.30
             56.27,126.32 57.49,120.57 59.33,115.05
             61.17,109.53 63.71,104.70 66.94,100.56
             69.23,97.49 72.33,94.62 76.23,91.94
             79.91,89.42 84.42,88.08 89.77,87.93
             92.91,88.17 92.91,85.48 90.05,85.53 Z" />
</svg>
