<?xml version="1.0" encoding="UTF-8" standalone="no"?>
<!DOCTYPE svg PUBLIC "-//W3C//DTD SVG 20010904//EN"
              "http://www.w3.org/TR/2001/REC-SVG-20010904/DTD/svg10.dtd">

<svg xmlns="http://www.w3.org/2000/svg"
     width="33.3333in" height="1.33333in"
     viewBox="0 0 10000 400">
  <path id="I_cap_path_3"
        fill="none" stroke="black" stroke-width="1"
        d="M 90.84,87.91
           C 93.60,87.91 95.94,88.48 97.86,89.64
             99.77,90.79 101.38,92.25 102.69,94.02
             104.00,95.78 104.92,97.65 105.45,99.64
             105.99,101.63 106.27,103.47 106.27,105.16
             105.80,111.29 103.22,118.46 98.55,126.67
             93.88,134.87 87.55,143.03 79.58,151.16
             76.52,154.53 73.30,157.64 69.92,160.48
             66.55,163.32 63.18,165.83 59.81,167.97
             59.81,167.97 57.73,169.22 57.73,169.22
             54.52,171.52 50.99,173.32 47.16,174.62
             43.32,175.93 39.45,176.54 35.53,176.47
             31.62,176.40 27.75,175.56 23.92,173.95
             20.09,172.34 16.63,169.84 13.56,166.47
             10.20,162.78 7.74,158.61 6.20,153.94
             4.67,149.26 4.29,144.77 5.06,140.47
             5.82,141.24 6.82,141.62 8.05,141.62
             9.27,141.62 10.27,141.25 11.03,140.48
             11.80,139.71 12.19,138.71 12.19,137.48
             12.03,136.26 11.49,135.22 10.58,134.38
             9.66,133.53 8.59,133.11 7.36,133.11
             6.29,133.11 5.44,133.46 4.83,134.16
             4.21,134.84 3.75,135.57 3.45,136.33
             1.92,141.25 1.92,146.62 3.45,152.47
             4.98,158.31 7.82,163.46 11.95,167.92
             15.64,171.92 19.55,174.81 23.69,176.58
             27.83,178.35 32.05,179.35 36.34,179.58
             40.63,179.81 44.81,179.46 48.88,178.55
             52.94,177.62 56.80,176.46 60.48,175.08
             60.48,175.08 62.33,174.06 62.33,174.06
             68.46,171.30 74.55,167.78 80.61,163.48
             86.67,159.18 92.23,154.27 97.30,148.75
             104.35,141.39 109.71,133.93 113.39,126.39
             117.07,118.85 118.75,112.08 118.45,106.08
             118.14,102.85 116.83,99.35 114.53,95.58
             112.24,91.81 107.64,88.92 100.73,86.92
             97.46,86.10 94.28,85.64 91.19,85.55
             87.84,85.33 87.67,88.22 90.84,87.91 Z" />
</svg>
