<?xml version="1.0" encoding="UTF-8" standalone="no"?>
<!DOCTYPE svg PUBLIC "-//W3C//DTD SVG 20010904//EN"
              "http://www.w3.org/TR/2001/REC-SVG-20010904/DTD/svg10.dtd">

<svg xmlns="http://www.w3.org/2000/svg"
     width="33.3333in" height="1.33333in"
     viewBox="0 0 10000 400">
  <path id="J_cap_path_2"
        fill="none" stroke="black" stroke-width="1"
        d="M 89.94,87.91
           C 84.10,87.91 79.27,89.25 75.44,91.94
             71.60,94.62 68.54,97.49 66.23,100.56
             63.17,104.70 60.72,109.53 58.88,115.05
             57.04,120.57 55.85,126.32 55.31,132.30
             54.78,138.28 54.86,144.34 55.55,150.47
             56.21,156.39 57.46,161.99 59.33,167.33
             59.40,167.53 62.55,174.60 62.66,174.82
             62.86,175.23 63.06,175.72 63.25,176.31
             64.62,178.77 66.35,181.27 68.42,183.80
             70.49,186.32 72.98,188.62 75.89,190.69
             78.80,192.76 82.18,194.45 86.02,195.75
             89.85,197.05 94.14,197.70 98.91,197.70
             103.20,197.70 107.10,196.79 110.62,194.95
             114.16,193.11 117.38,190.70 120.28,187.70
             123.20,184.71 125.77,181.30 127.98,177.47
             130.21,173.64 132.25,169.73 134.09,165.73
             138.69,156.08 142.71,145.42 146.16,133.77
             149.61,122.11 152.88,110.30 155.94,98.34
             157.47,92.05 159.08,85.92 160.77,79.94
             162.45,73.96 164.14,68.33 165.83,63.05
             167.52,57.76 169.27,52.93 171.11,48.56
             172.74,44.69 174.49,41.33 176.35,38.48
             176.60,38.11 178.79,34.92 179.07,34.61
             181.48,31.95 184.24,29.66 187.33,27.73
             190.79,25.59 194.81,24.67 199.41,24.97
             201.41,25.28 203.59,25.71 205.97,26.25
             207.95,26.69 209.54,27.54 210.73,28.80
             212.07,30.16 210.53,31.44 209.29,29.98
             208.50,29.19 207.61,28.80 206.55,28.80
             205.00,28.64 203.24,29.18 201.25,30.41
             199.26,31.64 197.19,33.32 195.05,35.47
             194.43,36.24 193.82,37.01 193.20,37.78
             192.83,38.24 192.48,38.74 192.16,39.26
             191.96,39.60 189.71,43.57 189.47,44.03
             186.38,49.79 183.49,56.93 180.78,65.45
             177.86,74.65 175.02,84.31 172.27,94.44
             170.73,100.26 169.09,106.28 167.33,112.48
             165.57,118.70 163.65,124.83 161.58,130.89
             159.50,136.95 157.32,142.84 155.02,148.59
             152.71,154.34 150.19,159.75 147.44,164.81
             144.98,169.42 142.18,173.83 139.03,178.05
             135.88,182.26 132.32,185.97 128.33,189.19
             124.35,192.41 119.94,195.02 115.11,197.02
             110.29,199.00 104.96,200.00 99.12,200.00
             90.84,200.00 83.48,197.93 77.05,193.80
             70.91,189.96 65.70,184.45 61.41,177.23
             61.30,177.01 60.83,176.19 60.52,175.64
             60.40,175.42 57.80,169.04 57.72,168.85
             53.90,159.33 52.14,148.64 52.44,136.75
             52.75,129.40 53.90,122.50 55.89,116.06
             57.88,109.62 60.64,104.09 64.17,99.50
             68.46,93.82 73.52,89.91 79.34,87.77
             82.57,86.54 85.95,85.92 89.47,85.92
             92.56,85.84 92.69,88.04 89.94,87.91 Z" />
</svg>
