<?xml version="1.0" encoding="UTF-8" standalone="no"?>
<!DOCTYPE svg PUBLIC "-//W3C//DTD SVG 20010904//EN"
              "http://www.w3.org/TR/2001/REC-SVG-20010904/DTD/svg10.dtd">

<svg xmlns="http://www.w3.org/2000/svg"
     width="33.3333in" height="1.33333in"
     viewBox="0 0 10000 400">
  <path id="J_cap_path_1"
        fill="none" stroke="black" stroke-width="1"
        d="M 209.98,30.75
           C 210.91,32.05 211.07,33.32 210.45,34.55
             209.68,36.23 208.07,37.73 205.61,39.03
             203.16,40.34 200.18,40.98 196.66,40.98
             196.34,40.98 195.61,40.95 194.45,40.88
             189.26,40.65 182.70,37.65 178.25,35.55
             175.64,34.33 173.04,32.99 170.42,31.53
             167.82,30.07 165.13,28.50 162.38,26.81
             154.56,22.52 146.47,18.38 138.11,14.39
             129.75,10.40 121.66,8.11 113.84,7.50
             101.12,6.27 91.08,9.11 83.72,16.00
             77.28,22.44 74.44,31.56 75.20,43.38
             75.52,47.05 76.32,50.62 77.62,54.08
             78.93,57.53 80.80,60.55 83.27,63.16
             88.47,68.82 94.45,72.12 101.20,73.05
             102.43,73.20 103.96,73.31 105.80,73.39
             107.64,73.46 109.52,73.43 111.44,73.28
             113.35,73.12 115.16,72.78 116.84,72.25
             118.53,71.71 119.98,70.98 121.20,70.05
             122.59,68.83 123.28,67.07 123.28,64.77
             123.28,63.54 122.66,62.50 121.44,61.66
             120.21,60.81 119.13,60.39 118.22,60.39
             116.99,60.39 116.07,60.81 115.45,61.66
             114.85,62.50 114.55,63.54 114.55,64.77
             114.69,65.84 115.19,66.76 116.03,67.53
             116.88,68.29 117.76,68.75 118.69,68.91
             117.60,69.67 116.30,70.20 114.77,70.52
             113.23,70.82 111.62,71.01 109.94,71.09
             108.25,71.17 106.64,71.17 105.11,71.09
             103.58,71.01 102.27,70.90 101.20,70.75
             97.98,70.28 94.99,69.25 92.23,67.64
             89.47,66.03 87.02,64.03 84.88,61.66
             82.73,59.28 81.00,56.52 79.69,53.38
             78.38,50.23 77.66,46.90 77.52,43.38
             76.74,32.18 79.43,23.67 85.56,17.84
             88.62,14.78 92.57,12.52 97.41,11.06
             102.24,9.61 107.80,9.18 114.08,9.80
             121.59,10.41 129.44,12.67 137.64,16.58
             145.85,20.48 153.63,24.59 161.00,28.88
             163.76,30.42 166.48,31.92 169.16,33.38
             171.84,34.82 174.49,36.16 177.09,37.39
             179.43,38.52 188.26,43.26 196.66,43.61
             200.18,43.61 203.43,42.88 206.42,41.42
             209.41,39.96 211.44,38.16 212.52,36.02
             213.59,33.87 213.21,31.73 211.38,29.58
             210.07,27.42 207.64,28.29 209.98,30.75 Z" />
</svg>
