<?xml version="1.0" encoding="UTF-8" standalone="no"?>
<!DOCTYPE svg PUBLIC "-//W3C//DTD SVG 20010904//EN"
              "http://www.w3.org/TR/2001/REC-SVG-20010904/DTD/svg10.dtd">

<svg xmlns="http://www.w3.org/2000/svg"
     width="33.3333in" height="1.33333in"
     viewBox="0 0 10000 400">
  <path id="J_cap_path_3"
        fill="none" stroke="black" stroke-width="1"
        d="M 90.51,85.93
           C 93.69,86.01 96.87,86.47 100.05,87.30
             106.95,89.30 111.59,92.14 113.97,95.81
             116.34,99.49 117.61,103.02 117.77,106.39
             118.38,112.37 116.80,119.12 113.05,126.64
             109.29,134.15 103.96,141.59 97.06,148.94
             92.00,154.46 86.44,159.37 80.38,163.67
             74.32,167.96 68.30,171.49 62.33,174.25
             62.33,174.25 60.27,175.16 60.27,175.16
             56.43,176.70 52.98,177.77 49.91,178.38
             43.01,180.06 36.15,180.14 29.33,178.61
             22.50,177.08 16.64,173.55 11.73,168.03
             7.74,163.59 5.02,158.37 3.56,152.39
             2.10,146.41 1.99,141.12 3.22,136.52
             3.68,134.37 4.91,133.30 6.91,133.30
             8.12,133.30 9.19,133.61 10.11,134.22
             11.04,134.84 11.50,135.76 11.50,136.98
             11.80,138.21 11.57,139.33 10.80,140.33
             10.04,141.32 9.04,141.81 7.81,141.81
             6.44,141.81 5.36,141.43 4.59,140.66
             4.13,144.96 4.67,149.45 6.20,154.12
             7.74,158.79 10.20,162.97 13.56,166.66
             16.94,170.49 20.38,173.17 23.91,174.70
             27.44,176.23 31.04,176.93 34.72,176.78
             38.41,176.62 42.20,175.86 46.11,174.48
             50.02,173.10 53.97,171.41 57.95,169.41
             58.31,169.14 59.05,168.30 59.56,167.95
             66.31,163.51 72.83,157.91 79.12,151.16
             87.09,143.03 93.45,134.87 98.20,126.67
             102.96,118.46 105.41,111.29 105.56,105.16
             105.72,103.32 105.49,101.41 104.88,99.42
             104.26,97.42 103.30,95.54 102.00,93.78
             100.70,92.01 99.05,90.59 97.05,89.52
             95.28,88.58 93.24,88.04 90.89,87.93
             89.07,88.04 88.73,85.93 90.51,85.93 Z" />
</svg>
