<?xml version="1.0" encoding="UTF-8" standalone="no"?>
<!DOCTYPE svg PUBLIC "-//W3C//DTD SVG 20010904//EN"
              "http://www.w3.org/TR/2001/REC-SVG-20010904/DTD/svg10.dtd">

<svg xmlns="http://www.w3.org/2000/svg"
     width="33.3333in" height="1.33333in"
     viewBox="0 0 10000 400">
  <path id="K_cap_path_2"
        fill="none" stroke="black" stroke-width="1"
        d="M 59.50,175.93
           C 62.72,182.61 67.28,187.82 73.19,191.55
             79.09,195.26 85.80,197.12 93.31,197.12
             106.80,197.12 119.52,186.55 131.48,165.38
             134.10,161.12 136.52,156.59 138.73,151.79
             140.95,147.00 143.14,142.01 145.30,136.82
             145.30,136.82 145.98,134.79 145.98,134.79
             148.43,128.81 150.80,122.73 153.11,116.58
             155.41,110.42 157.63,104.27 159.78,98.12
             163.91,86.59 167.98,75.73 171.97,65.58
             175.96,55.42 180.02,47.12 184.16,40.66
             184.16,40.66 185.55,38.59 185.55,38.59
             186.92,36.75 188.30,35.12 189.69,33.73
             191.83,31.59 194.59,29.48 197.95,27.41
             201.33,25.33 205.24,24.36 209.69,24.52
             211.38,24.52 213.55,24.87 216.23,25.56
             218.92,26.25 220.88,27.43 222.11,29.12
             223.64,31.12 221.11,31.95 220.50,30.65
             219.88,29.34 218.81,28.69 217.28,28.69
             215.75,28.53 213.91,29.07 211.77,30.30
             209.62,31.52 207.39,33.22 205.09,35.36
             204.32,36.13 203.59,36.93 202.91,37.79
             202.22,38.62 201.49,39.59 200.72,40.66
             200.72,40.66 199.11,42.96 199.11,42.96
             195.12,48.96 191.32,56.47 187.72,65.47
             184.11,74.47 180.39,84.05 176.56,94.20
             173.96,100.97 171.35,107.78 168.75,114.62
             166.14,121.47 163.30,128.35 160.23,135.28
             160.23,135.28 159.09,137.58 159.09,137.58
             156.95,142.51 154.68,147.25 152.30,151.78
             149.92,156.31 147.43,160.66 144.83,164.81
             129.95,188.19 112.86,199.97 93.55,200.12
             93.55,200.12 93.08,200.12 93.08,200.12
             84.65,200.12 77.37,198.05 71.23,193.89
             65.40,190.05 60.80,184.52 57.44,177.28
             51.00,163.25 50.91,148.41 52.59,136.69
             53.66,129.33 55.50,122.44 58.11,116.00
             60.72,109.56 64.02,104.04 68.02,99.44
             72.77,93.77 78.21,89.86 84.34,87.70
             87.72,86.47 91.13,85.86 94.58,85.86
             100.75,86.62 99.25,88.12 94.92,88.23
             89.62,88.00 84.11,89.58 79.97,92.27
             75.83,94.94 72.46,97.83 69.84,100.89
             66.32,105.03 63.38,109.86 61.00,115.38
             58.62,120.89 56.86,126.65 55.70,132.62
             54.55,138.61 54.02,144.66 54.09,150.79
             54.16,156.94 54.75,163.75 59.50,175.93 Z" />
</svg>
