<?xml version="1.0" encoding="UTF-8" standalone="no"?>
<!DOCTYPE svg PUBLIC "-//W3C//DTD SVG 20010904//EN"
              "http://www.w3.org/TR/2001/REC-SVG-20010904/DTD/svg10.dtd">

<svg xmlns="http://www.w3.org/2000/svg"
     width="33.3333in" height="1.33333in"
     viewBox="0 0 10000 400">
  <path id="K_cap_path_3"
        fill="none" stroke="black" stroke-width="1"
        d="M 58.70,173.75
           C 65.14,171.01 71.54,167.52 77.91,163.27
             84.27,159.01 90.29,154.14 95.97,148.67
             103.78,141.37 109.83,133.96 114.13,126.45
             118.43,118.93 120.73,112.18 121.03,106.20
             121.03,104.67 120.84,102.99 120.45,101.16
             120.08,99.31 119.31,97.51 118.16,95.75
             117.01,93.98 115.40,92.33 113.33,90.80
             111.25,89.27 108.54,88.04 105.17,87.11
             103.25,86.13 94.87,85.87 94.87,85.87
             92.25,86.37 92.25,87.87 95.00,88.00
             95.37,88.37 99.87,88.00 101.94,89.84
             103.78,90.99 105.24,92.45 106.31,94.22
             107.38,95.98 108.11,97.86 108.50,99.84
             108.88,101.84 109.00,103.67 108.84,105.36
             107.93,111.50 104.74,118.67 99.30,126.87
             93.86,135.07 86.77,143.23 78.03,151.36
             71.13,158.11 63.99,163.71 56.64,168.16
             56.64,168.16 49.63,172.75 43.52,174.31
             39.54,175.61 35.59,176.21 31.67,176.14
             27.77,176.07 23.97,175.23 20.30,173.64
             16.62,172.04 13.40,169.57 10.64,166.23
             7.57,162.58 5.49,158.43 4.42,153.80
             3.35,149.16 3.35,144.72 4.42,140.47
             5.19,141.24 6.19,141.63 7.42,141.63
             8.64,141.63 9.67,141.25 10.52,140.48
             11.36,139.71 11.78,138.71 11.78,137.48
             11.78,136.26 11.36,135.22 10.52,134.37
             9.67,133.53 8.64,133.11 7.42,133.11
             6.35,133.11 5.46,133.46 4.77,134.16
             4.08,134.84 3.58,135.57 3.28,136.33
             1.28,141.25 0.78,146.63 1.78,152.47
             2.78,158.31 5.12,163.46 8.80,167.92
             12.17,171.92 15.85,174.81 19.83,176.58
             23.82,178.35 27.92,179.35 32.14,179.58
             36.36,179.81 40.57,179.46 44.78,178.55
             49.00,177.62 57.25,174.75 58.70,173.75 Z" />
</svg>
