<?xml version="1.0" encoding="UTF-8" standalone="no"?>
<!DOCTYPE svg PUBLIC "-//W3C//DTD SVG 20010904//EN"
              "http://www.w3.org/TR/2001/REC-SVG-20010904/DTD/svg10.dtd">

<svg xmlns="http://www.w3.org/2000/svg"
     width="33.3333in" height="1.33333in"
     viewBox="0 0 10000 400">
  <path id="K_cap_path_4"
        fill="none" stroke="black" stroke-width="1"
        d="M 334.81,39.62
           C 335.43,40.24 335.43,40.86 334.81,41.47
             334.20,42.09 333.66,42.09 333.20,41.47
             326.45,35.64 319.55,32.18 312.50,31.11
             305.45,30.04 298.51,30.57 291.69,32.72
             284.86,34.87 278.27,38.21 271.91,42.75
             265.54,47.28 259.83,52.17 254.77,57.41
             250.79,61.55 246.15,66.20 240.86,71.36
             235.57,76.52 230.00,81.48 224.17,86.25
             218.35,91.02 212.37,95.18 206.23,98.72
             200.11,102.26 194.21,104.42 188.53,105.19
             192.52,105.96 196.47,107.65 200.38,110.27
             204.29,112.87 207.55,115.95 210.16,119.48
             213.22,123.93 215.59,129.85 217.28,137.23
             218.51,143.84 219.05,150.71 218.89,157.86
             218.73,165.01 218.50,171.73 218.20,178.03
             218.05,180.34 217.77,183.33 217.39,187.02
             217.02,190.70 216.98,193.93 217.28,196.70
             217.59,199.46 218.55,201.30 220.16,202.22
             221.76,203.14 224.55,202.07 228.55,199.00
             232.69,195.47 236.80,191.21 240.86,186.22
             244.92,181.23 248.79,175.93 252.47,170.33
             256.14,164.73 259.55,158.97 262.70,153.06
             265.85,147.15 268.57,141.42 270.88,135.89
             271.18,135.12 271.63,134.89 272.25,135.20
             273.02,135.51 273.25,136.04 272.94,136.81
             270.63,142.20 267.95,147.82 264.89,153.67
             261.83,159.52 258.45,165.29 254.77,170.98
             251.09,176.68 247.18,182.15 243.03,187.39
             238.89,192.62 234.53,197.16 229.94,201.00
             224.88,205.13 220.43,207.20 216.59,207.20
             215.82,207.20 214.83,207.05 213.61,206.75
             210.23,205.83 207.70,203.91 206.02,200.98
             204.33,198.07 203.21,194.53 202.67,190.38
             202.14,186.22 201.95,181.56 202.09,176.41
             202.25,171.25 202.48,165.98 202.80,160.59
             203.10,155.82 203.33,151.02 203.48,146.17
             203.64,141.32 203.52,136.78 203.14,132.55
             202.75,128.32 202.06,124.43 201.06,120.89
             200.06,117.35 198.49,114.43 196.34,112.12
             192.98,108.59 188.30,106.81 182.31,106.81
             181.55,106.81 181.17,106.43 181.17,105.66
             180.86,104.89 181.16,104.50 182.09,104.50
             186.23,103.89 190.52,102.23 194.97,99.55
             199.41,96.85 203.75,93.58 207.97,89.73
             212.19,85.88 216.29,81.73 220.27,77.27
             224.25,72.80 228.02,68.56 231.55,64.56
             231.55,64.56 241.44,53.47 241.44,53.47
             248.33,46.24 255.88,40.37 264.08,35.84
             272.29,31.31 280.61,28.36 289.05,26.97
             297.63,25.28 305.75,25.51 313.42,27.66
             321.85,29.96 328.98,33.95 334.81,39.62 Z" />
</svg>
