<?xml version="1.0" encoding="UTF-8" standalone="no"?>
<!DOCTYPE svg PUBLIC "-//W3C//DTD SVG 20010904//EN"
              "http://www.w3.org/TR/2001/REC-SVG-20010904/DTD/svg10.dtd">

<svg xmlns="http://www.w3.org/2000/svg"
     width="33.3333in" height="1.33333in"
     viewBox="0 0 10000 400">
  <path id="L_cap_path_1"
        fill="none" stroke="black" stroke-width="1"
        d="M 157.14,31.19
           C 159.11,31.91 161.00,32.84 162.80,33.98
             164.87,35.29 166.67,36.78 168.20,38.47
             169.74,40.15 170.89,41.98 171.66,43.98
             173.50,49.35 172.35,55.10 168.20,61.23
             162.38,70.43 151.34,74.27 135.09,72.73
             128.04,71.96 120.52,70.59 112.55,68.59
             112.55,68.59 97.83,64.00 97.83,64.00
             97.83,64.00 85.19,60.09 85.19,60.09
             76.29,57.34 67.43,54.77 58.61,52.39
             49.80,50.01 41.63,48.51 34.12,47.89
             23.24,47.13 14.88,48.90 9.05,53.19
             7.67,54.26 5.95,55.91 3.88,58.14
             1.80,60.36 0.77,62.54 0.77,64.69
             0.77,65.92 1.14,66.92 1.91,67.69
             2.68,68.45 3.68,68.83 4.91,68.83
             6.13,68.83 7.17,68.45 8.02,67.69
             8.86,66.92 9.28,65.92 9.28,64.69
             9.28,63.62 8.89,62.66 8.12,61.81
             7.36,60.97 6.37,60.47 5.14,60.31
             10.50,52.65 20.16,49.28 34.12,50.20
             41.48,50.81 49.52,52.30 58.27,54.69
             67.00,57.06 75.74,59.63 84.48,62.39
             86.63,63.01 88.74,63.62 90.81,64.23
             92.88,64.84 94.99,65.45 97.14,66.06
             97.14,66.06 112.09,70.20 112.09,70.20
             116.07,71.28 119.98,72.20 123.81,72.97
             127.64,73.73 131.33,74.27 134.86,74.58
             142.98,75.35 149.80,74.89 155.33,73.20
             161.62,71.20 166.52,67.52 170.05,62.16
             174.65,55.26 175.88,48.82 173.73,42.84
             172.66,39.62 170.66,36.74 167.75,34.22
             165.01,31.85 161.60,29.91 157.52,28.40
             154.76,27.56 154.22,30.40 157.14,31.19 Z" />
</svg>
