<?xml version="1.0" encoding="UTF-8" standalone="no"?>
<!DOCTYPE svg PUBLIC "-//W3C//DTD SVG 20010904//EN"
              "http://www.w3.org/TR/2001/REC-SVG-20010904/DTD/svg10.dtd">

<svg xmlns="http://www.w3.org/2000/svg"
     width="33.3333in" height="1.33333in"
     viewBox="0 0 10000 400">
  <path id="L_cap_path_2"
        fill="none" stroke="black" stroke-width="1"
        d="M 29.05,198.33
           C 30.89,198.63 32.77,198.82 34.69,198.89
             36.60,198.96 38.33,199.00 39.88,199.00
             43.25,199.00 46.89,198.73 50.80,198.20
             54.70,197.66 58.27,196.78 61.48,195.56
             68.69,192.65 74.75,187.74 79.66,180.84
             79.66,180.84 82.06,177.44 84.03,173.94
             86.18,170.11 88.17,165.89 90.02,161.28
             93.08,153.16 95.64,144.46 97.70,135.19
             99.77,125.91 101.73,116.59 103.58,107.23
             104.96,100.64 106.30,94.20 107.61,87.92
             108.80,82.18 110.15,76.76 111.65,71.66
             111.80,71.17 112.97,67.34 113.19,66.72
             114.38,63.29 115.62,60.08 116.92,57.09
             118.45,53.56 120.14,50.42 121.98,47.66
             123.52,45.67 125.31,43.60 127.38,41.45
             129.45,39.31 131.71,37.39 134.16,35.70
             136.61,34.02 139.11,32.60 141.64,31.45
             144.17,30.30 146.74,29.72 149.34,29.72
             151.64,29.72 153.95,30.11 156.25,30.88
             159.04,31.89 160.18,29.40 156.70,28.11
             153.02,26.89 149.00,26.28 144.62,26.28
             140.26,26.28 135.85,26.89 131.41,28.11
             127.88,29.20 123.82,31.04 119.22,33.64
             114.61,36.25 110.32,40.31 106.34,45.83
             104.66,48.28 103.12,51.04 101.73,54.11
             100.59,56.66 99.49,59.37 98.45,62.24
             98.24,62.82 96.83,66.98 96.68,67.44
             94.87,72.89 93.26,78.76 91.84,85.05
             90.31,91.87 88.78,98.96 87.25,106.31
             85.26,115.98 83.15,125.49 80.92,134.84
             78.70,144.19 75.98,152.93 72.77,161.06
             71.99,162.90 71.22,164.62 70.45,166.23
             69.69,167.84 68.93,169.41 68.16,170.95
             67.47,172.38 65.41,176.00 65.41,176.00
             59.73,185.20 52.75,191.18 44.47,193.94
             39.10,195.62 34.35,196.40 30.20,196.25
             28.34,196.11 26.53,198.14 29.05,198.33 Z" />
</svg>
