<?xml version="1.0" encoding="UTF-8" standalone="no"?>
<!DOCTYPE svg PUBLIC "-//W3C//DTD SVG 20010904//EN"
              "http://www.w3.org/TR/2001/REC-SVG-20010904/DTD/svg10.dtd">

<svg xmlns="http://www.w3.org/2000/svg"
     width="33.3333in" height="1.33333in"
     viewBox="0 0 10000 400">
  <path id="L_cap_path_3"
        fill="none" stroke="black" stroke-width="1"
        d="M 29.58,196.22
           C 25.76,195.97 22.82,194.84 20.78,192.80
             18.79,190.80 18.18,188.42 18.94,185.66
             19.71,183.51 21.51,181.25 24.34,178.88
             27.18,176.50 31.51,174.70 37.34,173.47
             40.10,173.01 43.02,172.78 46.08,172.78
             51.95,172.78 58.12,173.77 64.56,175.73
             64.84,175.82 73.16,177.84 80.49,181.17
             83.27,182.30 85.98,183.49 88.62,184.75
             91.54,186.12 94.46,187.51 97.38,188.89
             105.66,192.87 113.66,196.55 121.41,199.92
             129.14,203.30 136.70,205.00 144.06,205.00
             150.81,205.00 157.10,203.23 162.92,199.70
             168.74,196.17 173.88,192.18 178.33,187.73
             190.14,176.39 202.56,159.06 215.59,135.75
             215.89,134.99 215.74,134.45 215.12,134.14
             214.36,133.68 213.83,133.84 213.52,134.61
             207.08,146.11 200.79,156.20 194.66,164.86
             188.52,173.52 182.54,180.61 176.72,186.12
             172.58,190.12 168.79,193.15 165.33,195.22
             161.88,197.28 158.39,198.55 154.86,199.03
             151.34,199.51 147.58,199.16 143.59,198.00
             139.61,196.84 134.94,194.95 129.56,192.34
             125.12,190.19 120.18,187.73 114.73,184.98
             109.29,182.23 103.19,179.77 96.45,177.61
             94.30,176.85 92.23,176.20 90.23,175.67
             88.50,175.20 86.71,174.70 84.86,174.17
             84.86,174.17 74.84,171.72 67.35,170.87
             64.54,170.59 61.71,170.35 58.84,170.14
             55.70,169.91 52.59,169.80 49.53,169.80
             47.38,169.80 45.27,169.88 43.20,170.03
             41.13,170.18 39.02,170.41 36.88,170.72
             31.35,171.79 26.75,173.71 23.08,176.47
             19.55,178.92 17.49,181.68 16.88,184.75
             15.64,188.27 16.41,191.41 19.17,194.17
             20.40,195.40 21.89,196.32 23.66,196.94
             25.19,197.47 26.76,197.90 28.36,198.21
             30.22,198.64 32.45,196.34 29.58,196.22 Z" />
</svg>
