<?xml version="1.0" encoding="UTF-8" standalone="no"?>
<!DOCTYPE svg PUBLIC "-//W3C//DTD SVG 20010904//EN"
              "http://www.w3.org/TR/2001/REC-SVG-20010904/DTD/svg10.dtd">

<svg xmlns="http://www.w3.org/2000/svg"
     width="33.3333in" height="1.33333in"
     viewBox="0 0 10000 400">
  <path id="M_cap_path_1"
        fill="none" stroke="black" stroke-width="1"
        d="M 113.16,91.14
           C 115.91,92.67 117.99,94.66 119.38,97.11
             120.13,98.50 120.63,99.92 120.86,101.38
             121.09,102.82 121.13,104.39 120.98,106.08
             120.37,111.76 117.68,118.16 112.92,125.30
             108.17,132.42 101.73,139.66 93.61,147.02
             85.79,154.07 77.58,160.05 69.00,164.95
             69.00,164.95 54.28,172.62 54.28,172.62
             52.29,173.40 50.34,174.09 48.42,174.70
             46.50,175.32 44.62,175.78 42.78,176.08
             35.11,177.77 28.36,177.84 22.53,176.31
             16.71,174.78 12.04,171.56 8.52,166.66
             5.75,162.97 3.99,158.79 3.22,154.12
             2.45,149.45 2.75,144.96 4.14,140.66
             4.91,141.43 5.91,141.81 7.12,141.81
             8.35,141.81 9.39,141.43 10.23,140.67
             11.08,139.90 11.58,138.90 11.73,137.67
             11.73,136.45 11.38,135.41 10.69,134.56
             10.00,133.72 9.04,133.30 7.81,133.30
             6.59,133.30 5.60,133.68 4.83,134.45
             4.07,135.23 3.45,136.15 2.98,137.22
             2.52,138.29 2.14,139.45 1.83,140.67
             1.52,141.89 1.30,142.96 1.16,143.88
             0.38,148.02 0.46,152.20 1.38,156.42
             2.30,160.64 3.99,164.51 6.44,168.03
             7.51,169.56 9.04,171.17 11.03,172.86
             13.03,174.55 15.48,176.04 18.39,177.34
             21.30,178.65 24.80,179.45 28.86,179.77
             32.92,180.07 37.64,179.61 43.02,178.38
             47.15,177.46 51.13,176.23 54.97,174.70
             54.97,174.70 69.23,167.58 69.23,167.58
             73.68,164.96 78.09,162.12 82.45,159.06
             86.83,156.00 91.00,152.62 94.98,148.94
             103.42,141.59 110.09,134.15 115.00,126.64
             119.91,119.12 122.66,112.37 123.28,106.39
             123.44,104.70 123.36,102.95 123.05,101.11
             122.74,99.27 122.09,97.50 121.09,95.81
             120.09,94.12 118.60,92.52 116.61,90.98
             115.90,90.43 115.11,89.93 114.24,89.46
             111.44,88.02 111.25,90.30 113.16,91.14 Z" />
</svg>
