<?xml version="1.0" encoding="UTF-8" standalone="no"?>
<!DOCTYPE svg PUBLIC "-//W3C//DTD SVG 20010904//EN"
              "http://www.w3.org/TR/2001/REC-SVG-20010904/DTD/svg10.dtd">

<svg xmlns="http://www.w3.org/2000/svg"
     width="33.3333in" height="1.33333in"
     viewBox="0 0 10000 400">
  <path id="M_cap_path_4"
        fill="none" stroke="black" stroke-width="1"
        d="M 182.23,180.05
           C 181.32,178.50 181.11,175.66 181.58,171.52
             182.12,166.84 184.61,160.21 189.06,151.62
             190.29,149.01 191.71,146.40 193.31,143.80
             194.80,141.41 196.32,139.00 197.87,136.60
             198.00,136.39 209.61,121.66 209.77,121.48
             216.23,113.84 223.28,106.16 230.92,98.45
             238.74,90.56 246.64,83.05 254.61,75.92
             262.58,68.79 270.28,62.16 277.72,56.03
             285.16,49.90 291.79,44.53 297.62,39.92
             292.86,46.06 288.11,53.34 283.36,61.77
             279.22,69.13 275.24,77.11 271.41,85.70
             267.57,94.29 264.04,103.41 260.81,113.06
             257.75,122.42 255.03,131.81 252.66,141.23
             250.28,150.66 248.40,159.75 247.02,168.50
             245.64,177.84 244.80,186.47 244.48,194.38
             244.18,202.27 244.64,209.28 245.88,215.41
             246.49,219.09 247.37,222.39 248.52,225.30
             249.66,228.21 251.00,230.74 252.55,232.89
             255.61,237.49 259.90,240.41 265.42,241.62
             266.18,241.78 266.83,241.86 267.38,241.86
             267.91,241.86 268.49,241.86 269.09,241.86
             273.24,241.86 277.27,240.25 281.17,237.03
             285.09,233.81 289.27,228.75 293.70,221.86
             296.00,218.17 298.54,213.68 301.30,208.39
             304.05,203.11 306.97,197.17 310.03,190.58
             313.10,183.98 316.40,176.97 319.92,169.53
             323.45,162.09 327.05,154.31 330.73,146.19
             331.35,144.65 332.04,143.11 332.80,141.58
             333.57,140.05 334.34,138.52 335.11,136.98
             335.41,136.21 335.18,135.68 334.42,135.38
             333.65,135.06 333.11,135.29 332.81,136.06
             332.81,136.06 328.67,145.27 328.67,145.27
             321.16,161.36 314.30,176.12 308.08,189.53
             301.87,202.95 296.39,213.34 291.64,220.70
             289.49,224.08 287.04,227.33 284.28,230.47
             281.52,233.61 278.83,235.80 276.22,237.03
             273.61,238.26 271.12,238.14 268.75,236.69
             266.38,235.23 264.50,231.51 263.12,225.53
             260.98,215.10 261.21,200.30 263.81,181.14
             265.19,171.63 266.95,161.86 269.09,151.81
             271.24,141.77 273.80,131.70 276.80,121.58
             279.80,111.45 283.29,101.45 287.27,91.56
             291.25,81.67 295.70,72.20 300.61,63.16
             304.29,56.41 308.04,50.01 311.88,43.95
             315.71,37.89 320.61,32.41 326.59,27.50
             325.68,26.89 324.34,26.54 322.58,26.47
             320.82,26.40 319.02,26.44 317.17,26.59
             315.33,26.74 313.71,26.97 312.33,27.28
             310.95,27.59 310.11,27.81 309.81,27.97
             306.13,30.73 301.72,34.11 296.58,38.09
             291.44,42.07 285.80,46.56 279.67,51.55
             273.55,56.53 267.14,61.89 260.47,67.64
             253.80,73.39 247.17,79.41 240.58,85.69
             234.30,91.82 228.47,97.73 223.09,103.41
             217.93,108.86 213.19,114.17 208.89,119.36
             208.72,119.56 197.49,133.96 197.33,134.17
             192.96,140.22 189.51,145.83 186.98,151.02
             183.00,158.84 180.48,165.51 179.41,171.03
             178.43,176.04 178.79,179.67 180.48,181.90
             182.03,183.91 183.56,181.62 182.23,180.05 Z" />
</svg>
