<?xml version="1.0" encoding="UTF-8" standalone="no"?>
<!DOCTYPE svg PUBLIC "-//W3C//DTD SVG 20010904//EN"
              "http://www.w3.org/TR/2001/REC-SVG-20010904/DTD/svg10.dtd">

<svg xmlns="http://www.w3.org/2000/svg"
     width="33.3333in" height="1.33333in"
     viewBox="0 0 10000 400">
  <path id="M_cap_path_2"
        fill="none" stroke="black" stroke-width="1"
        d="M 193.75,36.93
           C 193.91,37.73 194.04,38.57 194.12,39.47
             194.43,42.07 194.38,45.10 194.00,48.55
             193.61,52.00 192.81,55.71 191.59,59.70
             190.98,62.01 190.25,64.70 189.41,67.77
             188.64,70.55 187.71,73.59 186.63,76.88
             186.52,77.21 179.18,97.10 179.07,97.40
             176.38,104.49 173.31,111.78 169.86,119.28
             166.25,127.09 162.23,134.84 157.78,142.50
             152.88,151.09 147.93,158.71 142.94,165.39
             137.96,172.06 132.79,177.77 127.42,182.52
             122.36,187.42 116.57,191.56 110.05,194.94
             103.54,198.31 96.60,200.00 89.23,200.00
             80.80,200.00 73.75,197.93 68.08,193.80
             62.71,189.96 58.65,184.45 55.89,177.23
             55.89,177.23 55.47,176.07 55.20,175.32
             55.07,174.96 54.12,172.06 54.04,171.78
             52.52,166.20 51.79,160.24 51.86,153.89
             51.94,147.21 52.75,140.54 54.28,133.88
             55.81,127.21 58.03,120.85 60.94,114.80
             63.85,108.73 67.38,103.48 71.53,99.03
             76.89,93.36 82.49,89.52 88.31,87.53
             94.14,85.54 100.05,85.23 106.03,86.61
             106.03,86.61 108.80,87.30 108.80,87.30
             110.62,87.82 112.23,88.44 113.66,89.15
             115.25,89.86 114.53,91.94 112.52,90.80
             109.94,89.51 107.24,89.00 104.42,89.30
             101.96,89.45 99.50,90.29 97.05,91.83
             94.60,93.36 92.26,95.20 90.03,97.34
             87.81,99.49 85.74,101.79 83.83,104.25
             81.91,106.70 80.41,108.92 79.34,110.91
             75.98,116.59 73.34,122.84 71.42,129.66
             69.50,136.48 68.39,143.34 68.08,150.23
             67.79,155.16 68.05,159.81 68.85,164.17
             68.90,164.43 69.35,168.16 69.41,168.45
             71.26,176.90 74.07,183.40 77.84,187.92
             81.76,192.60 86.25,195.40 91.31,196.33
             96.38,197.25 101.85,196.37 107.75,193.69
             113.66,191.00 119.68,186.74 125.81,180.91
             131.02,176.16 136.11,170.53 141.09,164.02
             146.08,157.50 151.03,150.02 155.94,141.58
             160.38,133.61 164.45,125.56 168.12,117.44
             171.69,109.57 174.83,102.00 177.53,94.70
             177.62,94.46 185.14,73.92 185.25,73.60
             186.18,70.90 186.95,68.39 187.56,66.06
             188.25,63.46 188.83,61.09 189.30,58.94
             190.67,53.88 191.43,49.62 191.58,46.17
             191.73,42.71 191.66,39.91 191.36,37.77
             190.89,35.04 193.27,33.51 193.75,36.93 Z" />
</svg>
