<?xml version="1.0" encoding="UTF-8" standalone="no"?>
<!DOCTYPE svg PUBLIC "-//W3C//DTD SVG 20010904//EN"
              "http://www.w3.org/TR/2001/REC-SVG-20010904/DTD/svg10.dtd">

<svg xmlns="http://www.w3.org/2000/svg"
     width="33.3333in" height="1.33333in"
     viewBox="0 0 10000 400">
  <path id="M_cap_path_3"
        fill="none" stroke="black" stroke-width="1"
        d="M 181.02,182.52
           C 182.55,184.06 184.38,185.06 186.53,185.52
             188.68,185.98 190.90,186.09 193.20,185.86
             195.50,185.63 197.69,185.14 199.75,184.38
             201.82,183.61 203.55,182.61 204.92,181.38
             208.91,178.46 212.02,174.48 214.23,169.42
             216.46,164.36 217.50,158.84 217.34,152.86
             217.34,147.80 216.61,142.70 215.16,137.56
             213.70,132.43 211.74,127.25 209.30,122.03
             209.30,122.03 208.38,119.97 208.38,119.97
             206.53,116.14 204.61,112.38 202.62,108.70
             200.63,105.02 198.72,101.41 196.88,97.88
             194.73,94.36 192.77,90.95 191.02,87.66
             189.25,84.36 187.68,81.09 186.30,77.88
             186.30,77.88 184.92,74.56 184.92,74.56
             182.32,69.05 180.94,64.00 180.78,59.39
             180.47,54.95 180.81,50.96 181.81,47.44
             182.81,43.91 184.16,40.84 185.84,38.23
             187.68,35.62 188.98,34.20 189.75,33.97
             190.44,33.76 190.94,34.77 191.26,37.00
             191.56,39.38 194.18,39.11 193.59,36.17
             192.82,32.98 191.39,30.63 189.30,29.11
             185.92,26.66 182.24,26.74 178.25,29.34
             176.26,30.42 174.42,31.91 172.73,33.83
             171.05,35.75 169.59,38.01 168.36,40.61
             165.75,46.75 164.53,53.19 164.69,59.94
             164.99,64.84 166.36,70.17 168.81,75.92
             171.27,81.67 174.27,87.69 177.80,93.97
             177.80,93.97 179.41,96.50 179.41,96.50
             180.02,97.42 180.48,98.34 180.78,99.27
             183.84,104.63 186.91,110.23 189.97,116.06
             193.04,121.89 195.65,127.71 197.80,133.53
             197.80,133.53 198.47,135.97 198.47,135.97
             200.45,141.50 201.25,147.10 201.25,152.77
             201.25,156.76 200.79,160.36 199.88,163.58
             198.96,166.80 197.80,169.60 196.42,171.98
             195.04,174.36 193.58,176.31 192.05,177.84
             190.52,179.38 189.13,180.45 187.91,181.06
             187.14,181.37 186.27,181.56 185.27,181.64
             184.27,181.71 183.38,181.37 182.62,180.59
             181.47,179.22 179.62,181.22 181.02,182.52 Z" />
</svg>
