<?xml version="1.0" encoding="UTF-8" standalone="no"?>
<!DOCTYPE svg PUBLIC "-//W3C//DTD SVG 20010904//EN"
              "http://www.w3.org/TR/2001/REC-SVG-20010904/DTD/svg10.dtd">

<svg xmlns="http://www.w3.org/2000/svg"
     width="33.3333in" height="1.33333in"
     viewBox="0 0 10000 400">
  <path id="N_cap_path_3"
        fill="none" stroke="black" stroke-width="1"
        d="M 203.20,191.64
           C 203.74,192.87 204.24,193.79 204.70,194.41
             206.08,195.94 207.64,196.67 209.41,196.59
             211.18,196.51 212.91,196.24 214.59,195.78
             218.27,194.71 221.80,191.88 225.17,187.28
             228.55,182.68 230.23,176.92 230.23,170.02
             230.38,165.88 229.49,161.55 227.58,157.03
             225.67,152.50 223.18,147.78 220.11,142.88
             220.11,142.88 218.73,140.89 218.73,140.89
             216.12,136.90 213.16,132.80 209.86,128.59
             206.57,124.38 203.31,120.20 200.09,116.05
             197.18,112.53 194.38,108.93 191.69,105.25
             189.15,101.76 186.65,98.35 184.19,95.01
             184.05,94.82 181.83,91.63 181.67,91.39
             178.05,85.98 175.07,80.72 172.72,75.58
             170.27,70.20 168.97,64.99 168.81,59.94
             168.51,51.81 169.89,44.76 172.95,38.77
             175.57,33.26 179.02,29.58 183.31,27.73
             187.14,25.75 190.67,25.98 193.89,28.42
             195.86,30.17 197.20,32.80 197.90,36.30
             198.17,38.16 196.12,38.30 195.84,36.86
             195.31,35.02 194.55,34.21 193.55,34.44
             192.55,34.67 191.39,35.82 190.09,37.89
             188.79,39.95 187.68,42.67 186.77,46.05
             185.54,50.50 184.92,55.02 184.92,59.62
             184.92,61.92 185.23,64.29 185.84,66.75
             186.40,68.99 187.21,71.28 188.27,73.63
             188.37,73.87 190.24,78.15 190.37,78.40
             193.23,83.98 196.82,89.63 201.14,95.36
             205.66,101.34 210.30,107.39 215.05,113.52
             216.73,115.67 218.42,117.86 220.11,120.08
             221.80,122.30 223.48,124.48 225.17,126.62
             225.17,126.62 226.78,128.70 226.78,128.70
             232.14,136.07 236.78,143.28 240.69,150.33
             244.60,157.38 246.48,164.05 246.33,170.33
             246.33,175.85 245.33,180.84 243.33,185.28
             241.34,189.73 238.43,193.26 234.59,195.86
             231.38,198.01 227.80,199.34 223.89,199.88
             219.98,200.41 216.35,200.46 212.98,200.00
             209.75,200.00 207.10,199.35 205.03,198.05
             203.12,196.84 201.76,194.87 200.96,192.15
             200.49,189.82 202.62,189.64 203.20,191.64 Z" />
</svg>
