<?xml version="1.0" encoding="UTF-8" standalone="no"?>
<!DOCTYPE svg PUBLIC "-//W3C//DTD SVG 20010904//EN"
              "http://www.w3.org/TR/2001/REC-SVG-20010904/DTD/svg10.dtd">

<svg xmlns="http://www.w3.org/2000/svg"
     width="33.3333in" height="1.33333in"
     viewBox="0 0 10000 400">
  <path id="N_cap_path_4"
        fill="none" stroke="black" stroke-width="1"
        d="M 200.78,191.50
           C 200.02,187.67 200.25,183.56 201.47,179.19
             202.70,174.81 204.77,169.95 207.69,164.58
             209.38,161.36 211.10,157.76 212.86,153.78
             214.53,149.99 216.39,145.92 218.41,141.57
             218.52,141.34 225.40,126.14 225.51,125.89
             229.39,117.55 233.38,109.09 237.47,100.53
             241.69,91.71 246.25,83.16 251.16,74.88
             264.66,52.19 277.69,37.47 290.27,30.72
             293.79,28.73 297.61,27.54 301.75,27.16
             305.89,26.77 309.43,27.27 312.34,28.66
             313.57,29.27 314.88,30.31 316.25,31.77
             317.62,33.21 318.31,34.78 318.31,36.47
             318.31,37.70 317.89,38.70 317.05,39.47
             316.21,40.23 315.18,40.61 313.95,40.61
             312.72,40.61 311.72,40.23 310.95,39.47
             310.19,38.70 309.81,37.70 309.81,36.47
             309.81,33.87 311.04,32.41 313.48,32.11
             312.41,31.04 311.11,30.31 309.58,29.92
             308.05,29.54 306.44,29.34 304.75,29.34
             300.00,29.34 295.48,30.50 291.19,32.80
             284.59,36.32 278.30,41.57 272.31,48.55
             266.33,55.53 260.66,63.46 255.30,72.36
             249.93,81.25 244.87,90.59 240.11,100.41
             235.49,109.95 231.15,119.14 227.12,127.96
             227.00,128.21 219.93,143.32 219.83,143.54
             218.09,147.73 216.37,151.57 214.70,155.08
             212.94,158.76 211.22,162.12 209.53,165.19
             206.93,170.09 205.16,174.28 204.23,177.73
             203.32,181.18 202.78,184.06 202.62,186.36
             202.50,188.31 202.62,189.88 202.99,191.06
             203.47,192.84 201.33,193.53 200.78,191.50 Z" />
</svg>
