<?xml version="1.0" encoding="UTF-8" standalone="no"?>
<!DOCTYPE svg PUBLIC "-//W3C//DTD SVG 20010904//EN"
              "http://www.w3.org/TR/2001/REC-SVG-20010904/DTD/svg10.dtd">

<svg xmlns="http://www.w3.org/2000/svg"
     width="33.3333in" height="1.33333in"
     viewBox="0 0 10000 400">
  <path id="N_cap_path_1"
        fill="none" stroke="black" stroke-width="1"
        d="M 123.16,93.62
           C 125.69,96.46 126.88,100.18 126.73,104.78
             126.42,110.61 123.85,117.31 119.02,124.91
             114.19,132.50 107.56,140.13 99.12,147.80
             90.24,155.77 81.12,162.43 71.77,167.80
             65.72,171.03 57.27,174.70 57.27,174.70
             53.43,176.23 49.45,177.46 45.31,178.38
             39.95,179.61 35.27,180.03 31.28,179.66
             27.29,179.27 23.84,178.51 20.92,177.36
             18.02,176.20 15.60,174.78 13.69,173.09
             11.77,171.41 10.27,169.88 9.20,168.50
             5.67,163.74 3.75,158.22 3.45,151.94
             3.30,149.94 3.37,148.02 3.67,146.19
             3.98,144.34 4.29,142.58 4.59,140.89
             5.06,138.75 5.75,136.95 6.67,135.48
             7.59,134.03 8.89,133.30 10.58,133.30
             11.80,133.30 12.80,133.72 13.56,134.56
             14.33,135.41 14.64,136.45 14.48,137.67
             14.34,138.90 13.84,139.90 13.00,140.67
             12.16,141.43 11.12,141.81 9.89,141.81
             8.82,141.81 7.89,141.43 7.12,140.66
             5.59,144.96 5.21,149.53 5.97,154.36
             6.74,159.18 8.43,163.43 11.05,167.11
             14.57,171.71 19.24,174.78 25.06,176.31
             30.89,177.84 37.49,177.77 44.84,176.08
             46.69,175.78 48.60,175.28 50.59,174.59
             52.59,173.90 54.59,173.17 56.58,172.41
             56.58,172.41 65.62,168.38 71.30,164.95
             80.65,159.75 89.39,153.39 97.52,145.88
             105.80,138.36 112.27,130.95 116.95,123.67
             121.63,116.39 124.12,109.91 124.44,104.23
             124.44,100.10 123.36,96.92 121.20,94.70
             119.42,93.22 121.91,92.02 123.16,93.62 Z" />
</svg>
