<?xml version="1.0" encoding="UTF-8" standalone="no"?>
<!DOCTYPE svg PUBLIC "-//W3C//DTD SVG 20010904//EN"
              "http://www.w3.org/TR/2001/REC-SVG-20010904/DTD/svg10.dtd">

<svg xmlns="http://www.w3.org/2000/svg"
     width="33.3333in" height="1.33333in"
     viewBox="0 0 10000 400">
  <path id="N_cap_path_2"
        fill="none" stroke="black" stroke-width="1"
        d="M 195.95,37.29
           C 196.38,39.18 196.38,42.17 195.95,46.28
             195.65,48.12 195.34,50.12 195.03,52.27
             194.73,54.41 194.20,56.64 193.44,58.94
             192.97,60.93 192.31,63.23 191.47,65.83
             190.62,68.43 189.66,71.27 188.59,74.34
             188.48,74.10 181.99,91.88 182.16,92.12
             179.08,99.95 175.59,108.04 171.69,116.41
             167.78,124.76 163.45,133.08 158.70,141.36
             148.73,158.23 138.54,171.41 128.11,180.91
             123.20,185.36 118.25,188.96 113.27,191.72
             108.29,194.48 103.19,195.86 97.98,195.86
             90.77,195.86 84.98,193.26 80.61,188.05
             76.39,183.00 73.50,176.53 71.93,168.63
             71.87,168.35 71.21,164.44 71.16,164.18
             70.79,161.95 70.61,159.52 70.61,156.91
             70.30,149.55 71.07,142.16 72.91,134.72
             74.75,127.28 77.43,120.34 80.95,113.91
             82.18,111.76 83.87,109.16 86.02,106.09
             88.16,103.02 90.69,100.11 93.61,97.34
             96.37,94.74 99.55,92.87 103.16,91.72
             106.76,90.56 110.13,90.21 113.27,90.67
             116.15,91.09 118.61,92.26 120.65,94.16
             122.80,96.07 124.76,94.87 122.57,92.98
             120.15,90.48 117.20,88.67 113.73,87.53
             109.97,86.30 105.98,85.73 101.77,85.81
             97.55,85.89 93.84,86.62 90.62,88.00
             84.18,90.61 78.43,94.90 73.38,100.88
             69.23,105.78 65.62,111.61 62.55,118.36
             59.48,125.10 57.27,132.15 55.89,139.52
             53.79,151.47 53.96,162.18 56.38,171.66
             56.45,171.91 57.33,174.85 57.42,175.11
             57.90,176.39 59.34,180.22 59.34,180.22
             65.62,193.41 76.28,200.00 91.31,200.00
             98.82,200.00 105.83,198.28 112.34,194.83
             118.86,191.38 124.66,187.28 129.72,182.52
             140.14,173.17 150.42,159.84 160.55,142.50
             165.30,134.53 169.59,126.45 173.42,118.25
             177.25,110.04 180.70,102.11 183.77,94.44
             183.91,94.63 190.11,77.89 189.98,77.64
             191.21,74.12 192.32,70.83 193.31,67.77
             194.31,64.70 195.12,62.01 195.73,59.70
             197.88,51.88 198.76,45.29 198.38,39.92
             198.30,38.82 198.17,37.79 198.00,36.82
             197.64,34.97 195.44,35.22 195.95,37.29 Z" />
</svg>
