<?xml version="1.0" encoding="UTF-8" standalone="no"?>
<!DOCTYPE svg PUBLIC "-//W3C//DTD SVG 20010904//EN"
              "http://www.w3.org/TR/2001/REC-SVG-20010904/DTD/svg10.dtd">

<svg xmlns="http://www.w3.org/2000/svg"
     width="33.3333in" height="1.33333in"
     viewBox="0 0 10000 400">
  <path id="O_cap_path_1"
        fill="none" stroke="black" stroke-width="1"
        d="M 1.14,34.97
           C 1.91,35.73 2.91,36.11 4.14,36.11
             5.37,36.11 6.41,35.73 7.25,34.97
             8.09,34.20 8.52,33.20 8.52,31.97
             8.52,30.74 8.09,29.70 7.25,28.86
             6.41,28.02 5.37,27.59 4.14,27.59
             4.14,27.59 3.91,27.59 3.91,27.59
             3.91,27.59 5.06,26.45 5.06,26.45
             8.12,23.70 12.49,22.31 18.17,22.31
             24.61,22.31 32.08,23.35 40.59,25.42
             49.10,27.48 58.19,29.82 67.84,32.42
             74.29,34.11 80.69,35.80 87.05,37.48
             93.16,39.10 99.03,40.44 104.65,41.49
             104.88,41.54 117.36,43.16 120.90,43.23
             121.74,43.23 122.53,43.23 123.28,43.23
             124.20,43.23 125.12,43.16 126.05,43.00
             131.10,42.70 135.04,41.55 137.88,39.56
             140.72,37.56 142.22,35.49 142.38,33.34
             142.38,32.37 142.04,31.43 141.35,30.55
             139.78,28.81 138.67,30.53 139.70,32.26
             139.87,32.55 139.98,32.91 140.06,33.34
             140.06,34.57 138.88,36.03 136.50,37.72
             134.12,39.41 130.64,40.40 126.05,40.70
             125.42,40.83 123.59,40.93 123.59,40.93
             118.73,41.00 107.18,39.49 106.94,39.45
             101.32,38.53 95.26,37.22 88.78,35.53
             82.03,33.77 75.29,31.97 68.55,30.12
             58.88,27.52 49.75,25.18 41.17,23.11
             32.59,21.04 25.00,20.00 18.41,20.00
             12.11,20.00 7.21,21.61 3.69,24.83
             1.53,26.83 0.30,29.21 0.00,31.97
             0.00,32.59 0.38,34.20 1.14,34.97 Z" />
</svg>
