<?xml version="1.0" encoding="UTF-8" standalone="no"?>
<!DOCTYPE svg PUBLIC "-//W3C//DTD SVG 20010904//EN"
              "http://www.w3.org/TR/2001/REC-SVG-20010904/DTD/svg10.dtd">

<svg xmlns="http://www.w3.org/2000/svg"
     width="33.3333in" height="1.33333in"
     viewBox="0 0 10000 400">
  <path id="O_cap_path_2"
        fill="none" stroke="black" stroke-width="1"
        d="M 139.40,31.83
           C 138.90,31.31 138.16,31.16 137.19,31.39
             135.58,31.78 133.82,32.59 131.91,33.81
             129.99,35.04 128.14,36.39 126.38,37.84
             124.61,39.29 123.43,40.32 122.81,40.94
             122.81,40.94 120.30,43.23 120.30,43.23
             113.39,49.68 106.79,58.05 100.50,68.33
             94.22,78.60 88.47,90.48 83.27,103.98
             76.67,120.39 73.18,135.23 72.80,148.50
             72.41,161.77 75.05,172.39 80.73,180.36
             83.18,183.89 86.16,186.89 89.69,189.34
             93.22,191.79 97.05,193.55 101.19,194.62
             105.33,195.70 109.70,196.12 114.30,195.89
             118.90,195.66 123.43,194.70 127.88,193.02
             138.00,189.18 147.66,183.01 156.86,174.50
             166.05,165.99 174.34,155.67 181.70,143.55
             188.30,132.51 193.62,120.93 197.69,108.81
             201.75,96.70 204.01,85.27 204.47,74.53
             205.24,62.56 203.82,52.82 200.22,45.31
             196.61,37.79 191.13,32.81 183.77,30.36
             178.86,28.67 174.30,28.48 170.08,29.78
             165.87,31.09 162.38,32.66 159.62,34.50
             153.95,38.34 149.08,43.55 145.02,50.14
             140.95,56.73 138.46,63.64 137.55,70.84
             137.23,73.92 137.27,77.37 137.66,81.20
             138.04,85.04 138.92,88.68 140.30,92.14
             141.68,95.59 143.63,98.66 146.16,101.34
             148.69,104.02 152.02,105.82 156.17,106.73
             156.02,106.43 155.94,105.98 155.94,105.36
             156.09,104.13 156.59,103.09 157.44,102.25
             158.28,101.41 159.32,100.98 160.55,100.98
             161.77,100.98 162.76,101.41 163.53,102.25
             164.30,103.09 164.61,104.13 164.45,105.36
             164.30,106.59 163.75,107.62 162.83,108.47
             161.91,109.31 160.61,109.66 158.94,109.50
             153.10,108.89 148.73,107.16 145.81,104.33
             142.91,101.48 140.69,98.61 139.16,95.70
             137.47,92.17 136.24,88.23 135.47,83.86
             134.70,79.48 134.62,75.15 135.23,70.84
             136.16,63.18 138.85,55.89 143.30,48.98
             145.29,45.61 147.58,42.54 150.19,39.78
             152.79,37.02 155.63,34.65 158.70,32.66
             167.13,26.98 175.71,25.52 184.45,28.28
             192.73,30.89 198.72,36.48 202.41,45.08
             206.08,52.75 207.54,62.48 206.77,74.30
             206.46,79.66 205.73,85.30 204.58,91.20
             203.43,97.11 201.86,103.13 199.88,109.27
             197.88,115.26 195.53,121.28 192.84,127.34
             190.16,133.40 187.07,139.18 183.55,144.70
             176.34,156.52 168.29,166.64 159.39,175.08
             154.48,179.67 149.42,183.66 144.20,187.03
             138.99,190.41 133.71,193.09 128.34,195.09
             121.75,197.70 114.54,199.00 106.72,199.00
             101.51,199.00 96.68,198.67 92.23,198.00
             86.10,196.77 80.65,194.77 75.89,192.00
             71.14,189.23 67.46,186.00 64.86,182.30
             59.04,173.98 56.31,162.96 56.69,149.27
             57.07,135.56 60.56,120.31 67.16,103.53
             71.14,93.37 75.63,83.86 80.61,75.00
             85.60,66.15 90.70,58.41 95.91,51.78
             97.59,49.94 99.16,48.17 100.62,46.48
             102.08,44.79 103.66,43.17 105.34,41.62
             105.34,41.62 107.64,39.56 107.64,39.56
             108.87,38.64 110.02,37.75 111.09,36.91
             112.16,36.06 113.32,35.26 114.55,34.50
             121.29,30.20 128.11,28.05 135.02,28.05
             137.77,28.20 139.69,28.82 140.77,29.89
             142.86,31.56 140.69,33.38 139.40,31.83 Z" />
</svg>
