<?xml version="1.0" encoding="UTF-8" standalone="no"?>
<!DOCTYPE svg PUBLIC "-//W3C//DTD SVG 20010904//EN"
              "http://www.w3.org/TR/2001/REC-SVG-20010904/DTD/svg10.dtd">

<svg xmlns="http://www.w3.org/2000/svg"
     width="33.3333in" height="1.33333in"
     viewBox="0 0 10000 400">
  <path id="P_cap_path_3"
        fill="none" stroke="black" stroke-width="1"
        d="M 250.70,44.20
           C 254.23,52.64 256.00,62.07 256.00,72.50
             256.00,82.31 254.00,91.44 250.02,99.88
             246.04,108.30 240.36,115.51 233.00,121.48
             226.71,126.55 219.65,130.42 211.83,133.11
             204.02,135.79 195.89,137.12 187.45,137.12
             182.55,137.12 177.18,136.52 171.36,135.30
             170.74,135.30 170.44,134.91 170.44,134.14
             170.75,133.23 171.21,132.92 171.81,133.22
             181.16,134.91 189.94,134.34 198.14,131.50
             206.35,128.66 213.55,124.36 219.77,118.61
             225.98,112.86 230.89,105.96 234.50,97.92
             238.10,89.87 239.91,81.40 239.91,72.50
             239.91,65.14 238.64,57.66 236.11,50.08
             233.58,42.48 229.89,35.78 225.06,29.95
             220.24,24.12 214.38,19.71 207.47,16.72
             200.57,13.73 192.83,13.16 184.25,15.00
             178.73,16.07 173.36,18.18 168.14,21.33
             162.93,24.48 158.22,28.16 154.00,32.38
             149.78,36.59 146.13,41.18 143.06,46.17
             140.00,51.15 137.85,55.95 136.62,60.55
             135.86,63.31 135.37,66.68 135.14,70.67
             134.91,74.65 135.25,77.95 136.17,80.55
             136.94,78.56 138.32,77.56 140.31,77.56
             141.54,77.56 142.54,78.02 143.30,78.94
             144.07,79.86 144.45,80.93 144.45,82.16
             144.45,83.39 144.03,84.34 143.19,85.03
             142.34,85.72 141.30,86.06 140.08,86.06
             137.93,86.06 136.32,85.15 135.25,83.31
             134.33,81.93 133.68,80.24 133.30,78.25
             132.91,76.26 132.72,74.20 132.72,72.05
             132.72,69.89 132.87,67.74 133.17,65.59
             133.48,63.45 133.87,61.61 134.33,60.08
             135.71,55.02 138.05,49.88 141.34,44.67
             144.64,39.45 148.52,34.62 152.97,30.19
             157.72,25.43 162.74,21.55 168.03,18.56
             173.32,15.57 178.65,13.62 184.02,12.70
             194.13,10.86 203.63,10.94 212.53,12.94
             221.43,14.93 229.17,18.68 235.77,24.20
             242.36,29.57 247.34,36.23 250.70,44.20 Z" />
</svg>
