<?xml version="1.0" encoding="UTF-8" standalone="no"?>
<!DOCTYPE svg PUBLIC "-//W3C//DTD SVG 20010904//EN"
              "http://www.w3.org/TR/2001/REC-SVG-20010904/DTD/svg10.dtd">

<svg xmlns="http://www.w3.org/2000/svg"
     width="33.3333in" height="1.33333in"
     viewBox="0 0 10000 400">
  <path id="Q_cap_path_3"
        fill="none" stroke="black" stroke-width="1"
        d="M 145.81,183.36
           C 138.46,181.83 131.14,181.14 123.86,181.30
             116.58,181.45 109.48,182.51 102.58,184.50
             98.44,185.73 94.07,187.34 89.47,189.33
             89.47,189.33 83.65,191.91 80.73,193.94
             77.97,195.93 75.33,198.02 72.80,200.22
             70.27,202.41 68.08,204.97 66.23,207.89
             65.77,208.65 65.85,209.19 66.47,209.50
             66.93,209.96 67.46,209.88 68.08,209.27
             70.07,206.35 72.36,203.74 74.97,201.44
             77.58,199.14 80.42,197.01 83.48,195.02
             85.17,193.57 91.77,190.72 91.77,190.72
             93.77,189.95 95.72,189.26 97.64,188.66
             99.55,188.04 101.43,187.43 103.27,186.81
             109.40,185.12 115.49,184.40 121.55,184.62
             127.61,184.86 133.55,185.81 139.38,187.50
             139.38,187.50 142.14,188.42 142.14,188.42
             151.95,191.48 161.54,195.93 170.89,201.75
             180.24,207.58 189.60,213.72 198.95,220.16
             204.93,224.45 211.02,228.62 217.23,232.69
             223.44,236.75 229.69,240.39 235.98,243.61
             243.04,247.44 249.70,250.28 255.98,252.12
             262.27,253.97 268.33,255.04 274.16,255.34
             281.52,255.66 288.30,254.93 294.52,253.16
             300.72,251.39 305.66,248.29 309.34,243.84
             312.26,240.16 314.18,235.99 315.09,231.31
             316.02,226.63 316.10,222.38 315.33,218.55
             315.02,217.32 314.38,216.36 313.38,215.67
             312.38,214.98 311.34,214.79 310.27,215.09
             309.05,215.41 308.13,216.02 307.52,216.94
             306.90,217.85 306.74,218.93 307.05,220.16
             307.36,221.38 307.94,222.30 308.78,222.91
             309.62,223.52 310.66,223.68 311.88,223.38
             312.33,223.38 312.87,223.22 313.48,222.92
             313.80,225.98 313.49,229.27 312.56,232.80
             311.64,236.33 309.88,239.55 307.28,242.47
             302.99,247.83 296.39,251.13 287.50,252.36
             281.52,252.66 275.61,251.89 269.78,250.05
             263.96,248.21 258.17,245.76 252.42,242.69
             246.67,239.62 240.92,236.10 235.17,232.11
             229.42,228.13 223.63,224.14 217.81,220.16
             209.99,214.79 202.09,209.50 194.11,204.28
             186.14,199.07 177.71,194.55 168.81,190.72
             165.45,189.34 162.11,188.07 158.81,186.92
             155.52,185.78 152.11,184.82 148.58,184.05
             148.58,184.05 145.81,183.36 145.81,183.36 Z" />
</svg>
