<?xml version="1.0" encoding="UTF-8" standalone="no"?>
<!DOCTYPE svg PUBLIC "-//W3C//DTD SVG 20010904//EN"
              "http://www.w3.org/TR/2001/REC-SVG-20010904/DTD/svg10.dtd">

<svg xmlns="http://www.w3.org/2000/svg"
     width="33.3333in" height="1.33333in"
     viewBox="0 0 10000 400">
  <path id="que_path_1"
        fill="none" stroke="black" stroke-width="1"
        d="M 2.77,190.61
           C 3.52,188.13 4.98,186.08 7.12,184.45
             9.27,182.82 11.49,182.00 13.80,182.00
             16.25,182.00 18.02,182.82 19.09,184.45
             20.16,186.08 20.32,188.13 19.55,190.61
             18.79,192.95 17.33,194.93 15.17,196.56
             13.02,198.19 10.73,199.00 8.28,199.00
             5.98,199.00 4.29,198.19 3.22,196.56
             2.14,194.93 1.99,192.95 2.77,190.61 Z
           M 69.92,40.53
           C 72.98,43.59 74.29,48.16 73.83,54.22
             73.37,60.27 71.72,67.09 68.88,74.69
             66.04,82.27 62.48,90.28 58.19,98.72
             53.89,107.16 49.56,115.21 45.19,122.88
             40.82,130.54 36.72,137.52 32.89,143.81
             29.05,150.09 26.30,154.92 24.61,158.30
             24.30,158.45 23.54,158.45 22.31,158.30
             21.08,158.14 19.85,157.87 18.62,157.48
             17.41,157.10 16.38,156.56 15.53,155.88
             14.69,155.19 14.41,154.31 14.72,153.23
             19.62,145.26 24.38,137.20 28.97,129.08
             33.57,120.95 37.79,112.91 41.62,104.94
             45.46,96.96 48.72,89.18 51.41,81.59
             54.09,74.00 56.05,66.75 57.27,59.84
             58.49,52.49 58.27,47.97 56.58,46.28
             54.89,44.59 52.74,44.37 50.14,45.59
             39.25,51.73 25.38,62.77 8.52,78.70
             7.90,79.32 7.36,79.32 6.91,78.70
             6.29,78.25 6.29,77.71 6.91,77.09
             24.07,60.84 38.10,49.65 48.98,43.52
             58.95,38.00 65.93,37.00 69.92,40.53 Z" />
</svg>
