<?xml version="1.0" encoding="UTF-8" standalone="no"?>
<!DOCTYPE svg PUBLIC "-//W3C//DTD SVG 20010904//EN"
              "http://www.w3.org/TR/2001/REC-SVG-20010904/DTD/svg10.dtd">

<svg xmlns="http://www.w3.org/2000/svg"
     width="33.3333in" height="1.33333in"
     viewBox="0 0 10000 400">
  <path id="R_cap_path_3"
        fill="none" stroke="black" stroke-width="1"
        d="M 277.16,134.59
           C 277.93,134.91 278.16,135.45 277.84,136.20
             271.56,148.93 265.16,160.59 258.64,171.17
             252.13,181.75 244.20,191.69 234.84,201.00
             232.54,203.22 230.24,204.77 227.94,205.66
             225.63,206.55 223.49,207.00 221.50,207.00
             220.73,207.00 219.73,207.00 218.52,207.00
             215.14,206.03 212.64,203.88 211.03,200.55
             209.43,197.21 208.32,193.25 207.70,188.66
             207.09,184.05 206.89,178.88 207.12,173.12
             207.35,167.38 207.62,161.43 207.94,155.30
             208.24,149.62 208.50,144.02 208.73,138.50
             208.96,132.98 208.88,127.73 208.50,122.75
             208.12,117.77 207.36,113.29 206.20,109.30
             205.05,105.31 203.33,102.01 201.03,99.41
             198.11,96.34 194.20,94.66 189.30,94.34
             189.30,94.34 187.92,94.34 187.92,94.34
             187.15,94.34 186.77,93.96 186.77,93.20
             186.77,92.43 187.15,92.05 187.92,92.05
             187.92,92.05 189.30,92.05 189.30,92.05
             194.82,92.05 200.57,90.55 206.55,87.56
             212.52,84.57 217.93,80.66 222.77,75.83
             227.60,71.00 231.39,65.52 234.16,59.39
             236.91,53.26 237.91,47.12 237.14,40.98
             236.22,34.70 233.88,29.38 230.12,25.02
             226.36,20.64 221.80,17.34 216.44,15.12
             211.07,12.90 205.21,11.75 198.84,11.67
             192.48,11.59 186.23,12.62 180.09,14.77
             175.34,16.45 170.47,18.79 165.48,21.78
             160.50,24.77 155.79,28.26 151.34,32.25
             146.91,36.23 142.96,40.60 139.50,45.36
             136.05,50.11 133.64,55.09 132.27,60.31
             131.49,63.07 130.99,66.45 130.77,70.44
             130.54,74.42 130.96,77.71 132.03,80.31
             132.49,78.32 133.79,77.33 135.94,77.33
             137.16,77.33 138.20,77.79 139.05,78.70
             139.89,79.62 140.23,80.70 140.08,81.92
             140.08,83.15 139.66,84.11 138.81,84.80
             137.97,85.48 136.94,85.83 135.72,85.83
             133.88,85.83 132.26,84.91 130.88,83.08
             129.96,81.70 129.30,80.01 128.92,78.02
             128.54,76.03 128.34,73.96 128.34,71.81
             128.34,69.66 128.49,67.51 128.80,65.36
             129.11,63.21 129.49,61.38 129.95,59.84
             132.87,49.57 139.23,39.99 149.05,31.09
             153.49,26.96 158.32,23.28 163.53,20.06
             168.75,16.84 174.04,14.30 179.41,12.47
             184.01,10.78 188.88,9.59 194.02,8.91
             199.15,8.21 204.17,7.94 209.08,8.09
             219.96,8.55 229.24,11.16 236.91,15.92
             246.41,21.59 251.86,29.79 253.23,40.53
             254.62,51.42 251.09,61.46 242.66,70.66
             239.75,73.88 236.41,76.79 232.66,79.41
             228.89,82.01 225.02,84.31 221.03,86.30
             217.05,88.29 212.99,89.94 208.84,91.25
             204.71,92.55 200.72,93.43 196.89,93.89
             200.42,95.42 203.80,97.15 207.02,99.06
             210.23,100.98 213.14,103.93 215.75,107.92
             218.97,113.29 221.27,119.95 222.66,127.92
             223.88,135.29 224.37,143.07 224.14,151.28
             223.91,159.48 223.64,167.03 223.34,173.92
             222.88,180.83 222.61,186.94 222.53,192.25
             222.46,197.56 223.19,201.02 224.72,202.64
             225.95,203.93 227.41,203.89 229.09,202.52
             230.78,201.14 232.16,199.97 233.23,199.00
             237.98,194.40 242.23,189.72 245.98,184.97
             249.74,180.21 253.27,175.19 256.56,169.91
             259.86,164.62 263.05,159.14 266.11,153.47
             269.18,147.79 272.33,141.73 275.55,135.28
             276.00,134.52 276.54,134.29 277.16,134.59 Z" />
</svg>
