<?xml version="1.0" encoding="UTF-8" standalone="no"?>
<!DOCTYPE svg PUBLIC "-//W3C//DTD SVG 20010904//EN"
              "http://www.w3.org/TR/2001/REC-SVG-20010904/DTD/svg10.dtd">

<svg xmlns="http://www.w3.org/2000/svg"
     width="33.3333in" height="1.33333in"
     viewBox="0 0 10000 400">
  <path id="R_cap_path_2"
        fill="none" stroke="black" stroke-width="1"
        d="M 89.38,87.03
           C 89.00,88.29 95.50,87.29 99.11,89.55
             101.02,90.70 102.60,92.11 103.83,93.80
             105.05,95.49 105.90,97.33 106.36,99.33
             106.82,101.32 106.97,103.23 106.81,105.07
             106.51,111.20 103.83,118.37 98.77,126.58
             93.71,134.78 87.12,142.94 78.98,151.07
             75.77,154.44 72.43,157.55 68.98,160.39
             61.75,168.41 48.98,172.97 45.06,174.27
             41.16,175.57 37.36,176.30 33.67,176.46
             29.99,176.61 26.35,175.91 22.75,174.38
             19.14,172.85 15.73,170.25 12.52,166.57
             9.30,162.88 6.99,158.70 5.61,154.03
             4.23,149.36 3.93,144.87 4.70,140.57
             5.46,141.34 6.46,141.72 7.69,141.72
             8.91,141.72 9.95,141.34 10.80,140.58
             11.64,139.81 11.98,138.81 11.83,137.58
             11.67,136.36 11.17,135.32 10.33,134.47
             9.48,133.63 8.45,133.21 7.23,133.21
             6.00,133.21 5.12,133.56 4.58,134.25
             4.05,134.94 3.62,135.67 3.31,136.43
             1.63,141.33 1.45,146.70 2.75,152.53
             4.05,158.36 6.70,163.50 10.69,167.94
             14.21,171.78 18.00,174.61 22.06,176.46
             26.12,178.29 30.22,179.36 34.36,179.68
             38.50,179.98 42.64,179.71 46.78,178.86
             62.88,174.91 73.51,167.87 79.56,163.58
             85.62,159.28 91.34,154.37 96.70,148.85
             104.05,141.50 109.69,134.06 113.59,126.55
             117.51,119.03 119.32,112.28 119.02,106.30
             119.02,102.93 117.86,99.40 115.56,95.72
             113.26,92.05 108.73,89.21 101.98,87.21
             98.46,86.29 90.50,84.91 89.38,87.03 Z" />
</svg>
