<?xml version="1.0" encoding="UTF-8" standalone="no"?>
<!DOCTYPE svg PUBLIC "-//W3C//DTD SVG 20010904//EN"
              "http://www.w3.org/TR/2001/REC-SVG-20010904/DTD/svg10.dtd">

<svg xmlns="http://www.w3.org/2000/svg"
     width="33.3333in" height="1.33333in"
     viewBox="0 0 10000 400">
  <path id="R_cap_path_1"
        fill="none" stroke="black" stroke-width="1"
        d="M 91.23,85.83
           C 87.70,85.83 84.34,86.45 81.12,87.68
             75.12,89.82 69.98,93.73 65.70,99.41
             62.02,104.00 59.06,109.53 56.84,115.97
             54.62,122.41 53.20,129.31 52.59,136.66
             51.67,148.78 53.05,159.66 56.73,169.32
             56.73,169.32 58.57,174.29 58.80,175.07
             58.95,175.38 59.14,175.73 59.37,176.11
             59.61,176.49 59.80,176.83 59.94,177.14
             63.93,184.36 68.84,189.87 74.66,193.71
             81.26,197.84 88.70,199.91 96.98,199.91
             102.95,199.91 108.40,198.91 113.30,196.93
             118.22,194.93 122.71,192.32 126.77,189.10
             130.84,185.88 134.48,182.17 137.70,177.96
             140.91,173.74 143.82,169.33 146.43,164.72
             149.34,159.66 152.07,154.25 154.60,148.50
             157.13,142.75 159.54,136.86 161.84,130.80
             164.14,124.74 166.25,118.61 168.16,112.39
             170.08,106.19 171.96,100.17 173.80,94.35
             175.79,88.06 177.75,81.96 179.66,76.07
             181.58,70.16 183.53,64.64 185.52,59.50
             187.52,54.36 189.59,49.75 191.74,45.69
             193.89,41.63 196.18,38.30 198.63,35.69
             201.09,33.25 203.62,31.56 206.23,30.64
             208.83,29.72 211.28,29.71 213.59,30.63
             214.20,30.94 214.66,30.79 214.98,30.18
             215.28,29.41 215.04,28.87 214.27,28.57
             210.28,26.57 206.60,25.53 203.23,25.46
             199.86,25.39 196.84,25.85 194.15,26.85
             191.47,27.84 189.21,29.06 187.37,30.52
             185.52,31.98 184.14,33.17 183.23,34.08
             180.62,36.69 178.20,40.18 175.98,44.55
             173.76,48.92 171.61,53.94 169.54,59.61
             167.48,65.29 165.41,71.43 163.34,78.02
             161.26,84.61 159.23,91.36 157.24,98.25
             153.71,110.21 150.03,122.02 146.20,133.68
             142.37,145.33 138.08,155.99 133.32,165.64
             131.33,169.48 129.11,173.31 126.65,177.14
             124.20,180.98 121.48,184.39 118.49,187.38
             115.50,190.37 112.20,192.82 108.60,194.74
             105.00,196.66 101.05,197.61 96.76,197.61
             92.00,197.61 87.73,196.96 83.98,195.66
             80.23,194.36 76.93,192.67 74.09,190.60
             71.25,188.53 68.84,186.23 66.85,183.71
             64.86,181.18 63.25,178.68 62.02,176.22
             62.02,176.22 60.87,174.16 60.87,174.16
             59.94,172.91 58.34,167.86 58.34,167.86
             56.50,162.34 55.31,156.52 54.77,150.38
             54.24,144.25 54.40,138.19 55.24,132.21
             56.09,126.23 57.54,120.48 59.60,114.96
             61.67,109.44 64.32,104.61 67.54,100.47
             70.00,97.40 73.18,94.49 77.09,91.74
             80.99,88.98 85.86,87.67 91.70,87.82
             94.60,87.82 94.76,85.83 91.23,85.83 Z" />
</svg>
