<?xml version="1.0" encoding="UTF-8" standalone="no"?>
<!DOCTYPE svg PUBLIC "-//W3C//DTD SVG 20010904//EN"
              "http://www.w3.org/TR/2001/REC-SVG-20010904/DTD/svg10.dtd">

<svg xmlns="http://www.w3.org/2000/svg"
     width="33.3333in" height="1.33333in"
     viewBox="0 0 10000 400">
  <path id="S_cap_path_1"
        fill="none" stroke="black" stroke-width="1"
        d="M 95.00,87.91
           C 89.18,87.91 84.19,89.25 80.05,91.94
             75.91,94.62 72.54,97.49 69.94,100.56
             66.41,104.70 63.41,109.53 60.95,115.05
             58.50,120.57 56.70,126.32 55.55,132.30
             54.40,138.28 53.91,144.34 54.06,150.47
             54.21,156.36 54.99,161.96 56.41,167.29
             56.47,167.51 58.76,174.47 58.89,174.76
             59.16,175.37 59.58,176.31 59.58,176.31
             60.65,178.77 62.10,181.27 63.94,183.80
             65.78,186.32 68.08,188.62 70.84,190.69
             73.60,192.76 76.79,194.45 80.39,195.75
             83.99,197.05 88.25,197.70 93.16,197.70
             93.16,197.70 93.39,197.70 93.39,197.70
             97.99,197.70 102.13,196.37 105.81,193.69
             109.49,191.00 112.78,187.36 115.69,182.77
             118.60,178.16 121.25,172.76 123.62,166.55
             126.01,160.33 128.27,153.66 130.42,146.53
             132.57,139.40 134.60,132.00 136.52,124.33
             138.43,116.66 140.46,109.07 142.61,101.56
             144.60,94.36 146.55,87.30 148.47,80.41
             150.38,73.50 152.41,67.06 154.56,61.08
             156.72,55.10 158.98,49.81 161.36,45.22
             163.73,40.62 166.30,36.93 169.06,34.17
             170.13,33.10 171.70,31.80 173.77,30.27
             175.84,28.73 178.41,27.51 181.48,26.58
             187.92,24.43 194.28,25.12 200.56,28.66
             202.72,29.89 204.98,31.96 207.36,34.88
             209.73,37.78 211.38,41.61 212.30,46.36
             212.91,50.04 212.64,54.64 211.48,60.16
             210.34,65.68 206.77,71.81 200.80,78.56
             200.64,78.72 200.33,78.80 199.88,78.80
             199.57,78.80 199.34,78.72 199.19,78.56
             198.57,78.11 198.57,77.57 199.19,76.95
             204.71,70.66 208.04,64.91 209.19,59.70
             210.34,54.48 210.61,50.12 210.00,46.59
             209.23,42.61 207.85,39.27 205.86,36.59
             203.87,33.91 201.80,31.95 199.66,30.72
             197.51,29.80 195.09,29.81 192.41,30.73
             189.72,31.65 187.07,33.34 184.47,35.78
             181.71,38.39 179.21,41.84 176.98,46.14
             174.77,50.43 172.62,55.30 170.55,60.75
             168.48,66.19 166.49,72.05 164.58,78.34
             162.66,84.62 160.78,91.06 158.94,97.66
             157.25,103.18 155.64,109.54 154.11,116.75
             152.58,123.95 150.77,131.34 148.70,138.94
             146.63,146.53 144.13,154.01 141.22,161.38
             138.31,168.73 134.67,175.28 130.30,181.03
             125.93,186.78 120.72,191.42 114.66,194.95
             108.60,198.48 101.44,200.16 93.16,200.00
             84.57,200.00 77.21,197.93 71.08,193.80
             65.25,189.81 60.73,184.29 57.52,177.23
             57.29,176.91 57.07,176.46 56.85,175.90
             56.76,175.67 54.40,168.99 54.34,168.77
             51.59,158.99 51.04,148.31 52.69,136.75
             53.76,129.40 55.60,122.50 58.20,116.06
             60.80,109.62 64.10,104.09 68.09,99.50
             73.00,93.67 78.36,89.76 84.19,87.77
             87.80,86.32 91.97,85.69 96.68,85.88
             99.45,86.05 98.03,88.11 95.00,87.91 Z" />
</svg>
