<?xml version="1.0" encoding="UTF-8" standalone="no"?>
<!DOCTYPE svg PUBLIC "-//W3C//DTD SVG 20010904//EN"
              "http://www.w3.org/TR/2001/REC-SVG-20010904/DTD/svg10.dtd">

<svg xmlns="http://www.w3.org/2000/svg"
     width="33.3333in" height="1.33333in"
     viewBox="0 0 10000 400">
  <path id="S_cap_path_2"
        fill="none" stroke="black" stroke-width="1"
        d="M 97.53,85.92
           C 99.83,86.08 102.29,86.54 104.89,87.30
             108.27,88.23 110.98,89.45 113.05,90.98
             115.12,92.52 116.73,94.17 117.88,95.94
             119.03,97.70 119.80,99.50 120.19,101.34
             120.57,103.18 120.77,104.86 120.77,106.39
             120.61,112.37 118.38,119.12 114.09,126.64
             109.80,134.15 103.74,141.59 95.92,148.94
             90.10,154.46 84.04,159.41 77.75,163.78
             71.46,168.15 65.09,171.64 58.66,174.25
             58.66,174.25 56.59,175.16 56.59,175.16
             54.75,175.93 52.95,176.59 51.19,177.12
             49.43,177.66 47.70,178.07 46.02,178.38
             43.87,178.99 41.84,179.38 39.92,179.53
             38.00,179.69 36.20,179.77 34.52,179.77
             34.52,179.77 31.30,179.77 31.30,179.77
             25.30,179.31 20.47,177.81 16.80,175.28
             13.12,172.75 10.44,170.34 8.75,168.03
             5.07,163.59 2.78,158.41 1.86,152.52
             0.93,146.61 1.39,141.28 3.23,136.52
             3.99,134.37 5.30,133.30 7.14,133.30
             8.37,133.30 9.41,133.72 10.25,134.56
             11.09,135.41 11.52,136.45 11.52,137.67
             11.52,138.90 11.09,139.90 10.25,140.67
             9.41,141.43 8.37,141.81 7.14,141.81
             6.07,141.81 5.14,141.43 4.38,140.66
             3.30,144.96 3.27,149.45 4.27,154.12
             5.27,158.79 7.30,162.97 10.36,166.66
             16.18,173.55 23.93,177.16 33.59,177.47
             39.11,177.00 45.71,174.55 53.38,170.11
             53.38,170.11 54.52,169.41 54.52,169.41
             54.52,169.41 56.59,167.95 56.59,167.95
             60.11,165.81 63.68,163.32 67.28,160.48
             70.88,157.64 74.45,154.53 77.98,151.16
             86.72,143.03 93.81,134.87 99.25,126.67
             104.70,118.46 107.88,111.29 108.80,105.16
             108.95,103.47 108.84,101.63 108.45,99.64
             108.07,97.65 107.34,95.78 106.27,94.02
             105.19,92.25 103.73,90.79 101.89,89.64
             100.25,88.61 98.25,88.04 95.88,87.93
             93.78,87.95 94.78,85.78 97.53,85.92 Z" />
</svg>
