<?xml version="1.0" encoding="UTF-8" standalone="no"?>
<!DOCTYPE svg PUBLIC "-//W3C//DTD SVG 20010904//EN"
              "http://www.w3.org/TR/2001/REC-SVG-20010904/DTD/svg10.dtd">

<svg xmlns="http://www.w3.org/2000/svg"
     width="33.3333in" height="1.33333in"
     viewBox="0 0 10000 400">
  <path id="T_cap_path_2"
        fill="none" stroke="black" stroke-width="1"
        d="M 93.88,87.03
           C 93.50,88.29 100.00,87.29 103.61,89.55
             105.52,90.70 107.10,92.11 108.33,93.80
             109.55,95.49 110.40,97.33 110.86,99.33
             111.32,101.32 111.47,103.23 111.31,105.07
             111.01,111.20 108.33,118.37 103.27,126.58
             98.21,134.78 91.62,142.94 83.48,151.07
             80.27,154.44 76.93,157.55 73.48,160.39
             66.25,168.41 53.48,172.97 49.56,174.27
             45.66,175.57 41.86,176.30 38.17,176.46
             34.49,176.61 30.85,175.91 27.25,174.38
             23.64,172.85 20.23,170.25 17.02,166.57
             13.80,162.88 11.49,158.70 10.11,154.03
             8.73,149.36 8.43,144.87 9.20,140.57
             9.96,141.34 10.96,141.72 12.19,141.72
             13.41,141.72 14.45,141.34 15.30,140.58
             16.14,139.81 16.48,138.81 16.33,137.58
             16.17,136.36 15.67,135.32 14.83,134.47
             13.98,133.63 12.95,133.21 11.73,133.21
             10.50,133.21 9.62,133.56 9.08,134.25
             8.55,134.94 8.12,135.67 7.81,136.43
             6.13,141.33 5.95,146.70 7.25,152.53
             8.55,158.36 11.20,163.50 15.19,167.94
             18.71,171.78 22.50,174.61 26.56,176.46
             30.62,178.29 34.72,179.36 38.86,179.68
             43.00,179.98 47.14,179.71 51.28,178.86
             67.38,174.91 78.01,167.87 84.06,163.58
             90.12,159.28 95.84,154.37 101.20,148.85
             108.55,141.50 114.19,134.06 118.09,126.55
             122.01,119.03 123.82,112.28 123.52,106.30
             123.52,102.93 122.36,99.40 120.06,95.72
             117.76,92.05 113.23,89.21 106.48,87.21
             102.96,86.29 95.00,84.91 93.88,87.03 Z" />
</svg>
