<?xml version="1.0" encoding="UTF-8" standalone="no"?>
<!DOCTYPE svg PUBLIC "-//W3C//DTD SVG 20010904//EN"
              "http://www.w3.org/TR/2001/REC-SVG-20010904/DTD/svg10.dtd">

<svg xmlns="http://www.w3.org/2000/svg"
     width="33.3333in" height="1.33333in"
     viewBox="0 0 10000 400">
  <path id="U_cap_path_2"
        fill="none" stroke="black" stroke-width="1"
        d="M 246.77,28.61
           C 247.23,29.53 247.54,30.60 247.70,31.80
             248.47,36.55 247.09,43.29 243.56,52.03
             242.19,56.02 240.43,60.20 238.28,64.58
             236.13,68.95 233.76,73.42 231.16,78.02
             226.39,86.30 221.52,93.89 216.53,100.80
             211.55,107.70 207.07,112.91 203.09,116.44
             194.18,123.27 190.27,116.45 176.41,140.97
             173.80,145.88 171.00,150.86 168.02,155.92
             165.02,160.98 161.84,165.88 158.47,170.64
             155.86,174.16 153.07,177.77 150.08,181.45
             147.09,185.13 143.75,188.43 140.06,191.34
             136.38,194.25 132.44,196.45 128.22,197.92
             124.01,199.40 119.45,199.76 114.55,199.00
             110.71,198.54 107.95,196.78 106.27,193.70
             104.88,191.41 104.22,188.46 104.30,184.86
             104.38,181.26 104.96,177.23 106.03,172.78
             107.10,168.34 108.52,163.46 110.28,158.17
             112.05,152.88 114.01,147.40 116.16,141.73
             118.45,135.14 120.82,128.32 123.27,121.27
             125.72,114.21 127.80,107.24 129.48,100.34
             131.17,93.44 132.28,86.61 132.81,79.86
             133.35,73.11 133.01,66.82 131.78,61.00
             130.56,55.18 128.22,49.81 124.77,44.91
             121.32,40.00 116.45,35.86 110.17,32.48
             103.27,29.11 96.02,27.81 88.42,28.58
             80.84,29.34 74.13,31.79 68.31,35.94
             68.31,35.94 63.48,40.06 63.48,40.06
             59.34,44.05 55.61,48.66 52.31,53.88
             49.02,59.09 46.38,64.61 44.39,70.44
             42.40,76.26 41.10,82.16 40.48,88.14
             39.87,94.12 40.10,99.79 41.17,105.16
             41.63,107.30 42.24,109.49 43.00,111.72
             43.77,113.94 44.84,116.12 46.22,118.27
             47.60,120.41 49.33,122.41 51.41,124.25
             53.78,126.22 52.07,127.89 50.22,126.31
             49.16,125.39 48.14,124.40 47.16,123.33
             43.01,118.58 40.25,112.60 38.88,105.39
             37.64,99.87 37.38,94.01 38.06,87.80
             38.75,81.59 40.13,75.46 42.20,69.41
             44.27,63.34 47.04,57.59 50.48,52.16
             53.93,46.71 57.88,41.91 62.33,37.77
             62.33,37.77 66.94,34.09 66.94,34.09
             70.77,31.18 75.10,28.95 79.92,27.42
             84.75,25.89 89.77,24.98 94.98,24.67
             100.20,24.36 105.38,24.66 110.52,25.58
             115.65,26.50 120.44,28.11 124.89,30.41
             142.67,39.76 150.64,56.09 148.81,79.41
             148.04,89.52 145.97,99.95 142.59,110.69
             139.23,121.42 135.70,131.77 132.02,141.73
             130.02,147.26 128.14,152.51 126.38,157.48
             124.61,162.46 123.20,167.11 122.12,171.41
             121.05,175.70 120.44,179.53 120.28,182.91
             120.13,186.27 120.68,188.95 121.91,190.95
             123.89,194.17 126.54,195.21 129.83,194.06
             133.13,192.91 136.54,190.80 140.06,187.73
             143.59,184.66 146.89,181.25 149.95,177.50
             153.02,173.74 155.25,170.94 156.62,169.09
             161.84,161.74 166.63,154.00 171.00,145.88
             175.38,137.75 179.02,130.77 181.94,124.94
             191.45,111.64 194.91,116.64 205.09,111.00
             208.62,107.01 212.55,102.17 216.77,96.19
             220.98,90.21 225.09,83.77 229.08,76.88
             234.90,66.91 239.23,57.98 242.06,50.08
             244.91,42.18 246.02,36.24 245.41,32.25
             245.18,31.01 244.96,30.10 244.73,29.52
             243.80,27.82 245.87,26.42 246.77,28.61 Z" />
</svg>
