<?xml version="1.0" encoding="UTF-8" standalone="no"?>
<!DOCTYPE svg PUBLIC "-//W3C//DTD SVG 20010904//EN"
              "http://www.w3.org/TR/2001/REC-SVG-20010904/DTD/svg10.dtd">

<svg xmlns="http://www.w3.org/2000/svg"
     width="33.3333in" height="1.33333in"
     viewBox="0 0 10000 400">
  <path id="U_cap_path_3"
        fill="none" stroke="black" stroke-width="1"
        d="M 244.48,29.03
           C 244.18,28.57 243.80,28.27 243.34,28.11
             242.27,27.81 241.08,28.73 239.77,30.88
             238.46,33.02 236.97,35.86 235.30,39.38
             233.45,43.21 231.38,47.77 229.08,53.06
             226.77,58.36 224.32,64.15 221.72,70.44
             219.11,76.72 216.39,83.31 213.55,90.22
             211.07,96.24 208.63,102.31 206.22,108.44
             205.86,109.34 202.27,118.54 202.27,118.54
             199.19,126.39 196.24,134.09 193.42,141.62
             190.36,149.82 187.68,157.37 185.38,164.27
             180.93,177.45 179.81,186.39 182.03,191.06
             184.26,195.74 188.52,195.93 194.81,191.64
             199.88,188.27 204.44,184.51 208.50,180.38
             212.56,176.23 216.39,171.75 220.00,166.92
             223.60,162.09 227.05,157.03 230.34,151.73
             233.64,146.45 236.98,141.04 240.34,135.52
             240.81,134.76 241.35,134.68 241.95,135.30
             242.72,135.76 242.88,136.29 242.42,136.91
             239.20,142.12 235.91,147.40 232.53,152.77
             229.16,158.13 225.59,163.34 221.83,168.41
             218.08,173.47 213.98,178.26 209.53,182.78
             205.08,187.30 200.25,191.25 195.05,194.62
             190.60,197.54 186.38,199.00 182.39,199.00
             180.40,199.00 178.41,198.67 176.41,198.00
             172.57,196.31 170.00,192.90 168.70,187.77
             167.40,182.63 167.59,175.92 169.28,167.64
             170.20,163.20 171.23,158.75 172.38,154.31
             173.29,150.81 174.32,147.30 175.46,143.79
             175.77,142.85 182.50,123.35 182.79,122.57
             183.44,120.80 184.11,119.06 184.80,117.36
             185.80,114.90 186.83,112.37 187.91,109.77
             188.83,107.62 190.33,103.87 192.39,98.50
             194.46,93.12 196.99,87.11 199.98,80.44
             202.97,73.77 206.23,66.91 209.75,59.86
             213.28,52.80 216.96,46.47 220.80,40.88
             224.63,35.28 228.42,30.95 232.17,27.89
             235.93,24.82 239.50,23.82 242.88,24.89
             244.38,25.56 245.54,26.55 246.36,27.86
             247.67,29.78 245.18,30.44 244.48,29.03 Z" />
</svg>
