<?xml version="1.0" encoding="UTF-8" standalone="no"?>
<!DOCTYPE svg PUBLIC "-//W3C//DTD SVG 20010904//EN"
              "http://www.w3.org/TR/2001/REC-SVG-20010904/DTD/svg10.dtd">

<svg xmlns="http://www.w3.org/2000/svg"
     width="33.3333in" height="1.33333in"
     viewBox="0 0 10000 400">
  <path id="U_cap_path_1"
        fill="none" stroke="black" stroke-width="1"
        d="M 51.96,124.72
           C 53.93,126.34 56.32,127.64 59.11,128.62
             63.55,130.31 67.27,130.31 70.27,128.62
             73.25,126.94 75.59,124.02 77.28,119.88
             79.58,114.05 80.38,106.23 79.69,96.42
             79.00,86.61 76.89,76.03 73.38,64.69
             71.99,60.09 70.49,55.71 68.88,51.58
             67.36,47.66 65.67,44.02 63.81,40.65
             63.70,40.45 61.98,37.08 61.79,36.74
             60.18,33.73 58.13,30.82 55.66,28.00
             52.89,24.86 49.79,22.25 46.34,20.17
             42.89,18.10 39.14,16.80 35.08,16.27
             31.02,15.73 26.84,16.30 22.55,17.98
             18.10,19.67 14.22,22.28 10.92,25.81
             7.63,29.34 5.37,33.25 4.14,37.55
             5.37,37.23 6.44,37.39 7.36,38.00
             8.27,38.62 8.93,39.46 9.31,40.53
             9.70,41.61 9.58,42.68 8.97,43.75
             8.35,44.67 7.47,45.32 6.31,45.70
             5.16,46.09 4.05,45.98 2.98,45.36
             1.77,44.59 1.16,43.52 1.16,42.14
             1.16,42.14 1.16,42.06 1.16,41.91
             1.00,41.61 0.96,41.38 1.03,41.22
             1.11,41.06 1.16,40.84 1.16,40.53
             1.91,35.17 4.17,30.23 7.92,25.70
             11.68,21.17 16.25,17.84 21.62,15.69
             26.07,13.86 30.40,13.17 34.61,13.62
             38.83,14.09 42.89,15.23 46.80,17.08
             50.71,18.91 54.36,21.37 57.73,24.44
             60.88,27.29 63.75,30.27 66.36,33.39
             66.56,33.62 68.71,36.46 68.91,36.72
             72.81,41.89 76.32,47.73 79.45,54.22
             82.75,61.04 85.48,68.21 87.62,75.72
             90.70,85.99 92.27,95.46 92.34,104.12
             92.41,112.79 91.07,119.73 88.31,124.94
             87.09,127.40 85.22,129.62 82.69,131.61
             80.16,133.60 76.66,134.59 72.22,134.59
             67.77,134.59 63.32,133.64 58.88,131.72
             56.08,130.51 53.50,128.96 51.13,127.06
             48.51,125.07 49.73,123.02 51.96,124.72 Z" />
</svg>
