<?xml version="1.0" encoding="UTF-8" standalone="no"?>
<!DOCTYPE svg PUBLIC "-//W3C//DTD SVG 20010904//EN"
              "http://www.w3.org/TR/2001/REC-SVG-20010904/DTD/svg10.dtd">

<svg xmlns="http://www.w3.org/2000/svg"
     width="33.3333in" height="1.33333in"
     viewBox="0 0 10000 400">
  <path id="V_cap_path_1"
        fill="none" stroke="black" stroke-width="1"
        d="M 59.34,128.62
           C 63.79,130.31 67.51,130.31 70.50,128.62
             73.49,126.94 75.83,124.02 77.52,119.88
             79.80,114.05 80.64,106.23 80.03,96.42
             79.43,86.61 77.36,75.95 73.83,64.45
             71.07,55.71 67.69,47.51 63.70,39.84
             63.70,39.84 62.56,37.53 62.56,37.53
             62.56,37.53 61.64,35.92 61.64,35.92
             59.80,32.55 57.57,29.41 54.97,26.50
             52.36,23.59 49.45,21.17 46.23,19.25
             43.02,17.34 39.45,16.15 35.53,15.69
             31.62,15.23 27.37,15.84 22.77,17.53
             18.32,19.22 14.44,21.87 11.14,25.47
             7.85,29.06 5.59,33.01 4.38,37.31
             5.29,37.00 6.36,37.07 7.59,37.53
             8.51,38.15 9.16,39.03 9.55,40.19
             9.93,41.34 9.82,42.37 9.20,43.28
             8.59,44.36 7.70,45.05 6.55,45.36
             5.40,45.66 4.29,45.59 3.22,45.12
             2.60,44.82 2.07,44.33 1.61,43.64
             1.15,42.95 1.07,41.83 1.38,40.30
             2.14,35.08 4.41,30.17 8.16,25.58
             11.91,20.98 16.48,17.60 21.84,15.45
             24.46,14.38 27.98,13.70 32.42,13.39
             36.87,13.08 41.78,14.15 47.16,16.61
             51.13,18.30 54.77,20.71 58.06,23.86
             61.36,27.00 64.39,30.33 67.16,33.86
             67.16,33.86 68.77,35.70 68.77,35.70
             72.75,41.07 76.44,47.16 79.81,53.98
             83.19,60.81 85.95,67.98 88.09,75.48
             91.16,85.76 92.69,95.23 92.69,103.89
             92.69,112.56 91.30,119.50 88.55,124.70
             87.32,127.16 85.44,129.39 82.91,131.38
             80.38,133.37 76.90,134.36 72.45,134.36
             69.99,134.36 67.61,134.06 65.31,133.45
             63.04,132.88 60.91,132.16 58.90,131.29
             56.78,130.41 57.28,127.81 59.34,128.62 Z" />
</svg>
