<?xml version="1.0" encoding="UTF-8" standalone="no"?>
<!DOCTYPE svg PUBLIC "-//W3C//DTD SVG 20010904//EN"
              "http://www.w3.org/TR/2001/REC-SVG-20010904/DTD/svg10.dtd">

<svg xmlns="http://www.w3.org/2000/svg"
     width="33.3333in" height="1.33333in"
     viewBox="0 0 10000 400">
  <path id="V_cap_path_2"
        fill="none" stroke="black" stroke-width="1"
        d="M 58.15,130.95
           C 53.97,129.02 50.38,126.40 47.38,123.09
             43.24,118.34 40.48,112.37 39.09,105.16
             37.88,99.64 37.61,93.77 38.30,87.56
             38.98,81.36 40.36,75.23 42.44,69.17
             44.51,63.11 47.27,57.36 50.72,51.92
             54.01,46.72 57.76,42.11 61.97,38.09
             62.16,37.90 67.47,33.63 67.63,33.52
             74.08,28.97 80.74,26.24 87.62,25.34
             93.00,24.59 99.10,24.43 105.92,24.89
             112.74,25.35 119.14,27.11 125.12,30.17
             142.75,39.53 150.80,55.86 149.27,79.17
             148.50,89.29 146.39,99.67 142.94,110.33
             139.49,120.98 135.93,131.30 132.25,141.27
             130.26,146.79 128.42,152.08 126.73,157.14
             125.05,162.20 123.66,166.83 122.59,171.05
             121.52,175.27 120.87,179.06 120.64,182.44
             120.41,185.81 120.91,188.50 122.12,190.48
             123.35,192.63 124.88,193.82 126.72,194.05
             128.56,194.28 130.48,193.90 132.47,192.91
             134.47,191.91 136.54,190.41 138.69,188.42
             140.83,186.42 142.83,184.35 144.67,182.20
             146.52,180.06 148.20,177.95 149.73,175.89
             151.27,173.82 152.49,172.09 153.41,170.70
             159.08,161.96 164.49,152.04 169.62,140.92
             174.76,129.81 179.78,118.50 184.69,107.00
             188.22,98.88 191.71,90.98 195.16,83.31
             198.60,75.65 202.05,68.59 205.50,62.16
             208.96,55.71 212.48,50.11 216.08,45.36
             219.68,40.60 223.40,37.00 227.23,34.55
             228.46,33.78 230.19,32.93 232.41,32.02
             234.63,31.10 237.13,31.02 239.89,31.78
             242.34,32.40 244.67,33.66 246.89,35.58
             249.12,37.50 250.16,39.61 250.02,41.91
             249.86,43.14 249.39,44.14 248.62,44.91
             247.86,45.67 246.87,46.05 245.64,46.05
             244.41,46.05 243.41,45.67 242.64,44.91
             241.88,44.14 241.50,43.14 241.50,41.91
             241.50,39.61 242.73,38.15 245.19,37.53
             243.34,35.70 241.43,34.55 239.44,34.08
             237.13,33.48 235.02,33.52 233.11,34.20
             231.19,34.89 229.62,35.62 228.39,36.39
             224.71,38.68 221.11,42.21 217.58,46.97
             214.05,51.72 210.61,57.28 207.23,63.64
             203.86,70.01 200.44,76.98 196.98,84.58
             193.54,92.16 190.13,99.95 186.77,107.92
             181.86,119.42 176.83,130.81 171.69,142.08
             166.55,153.34 161.07,163.34 155.25,172.08
             148.96,181.59 142.75,188.49 136.62,192.78
             134.48,194.47 131.68,196.01 128.22,197.39
             124.77,198.78 121.59,199.31 118.69,199.00
             118.07,199.00 117.46,199.00 116.84,199.00
             116.23,199.00 115.61,199.00 115.00,199.00
             110.86,198.23 108.02,196.46 106.48,193.70
             103.88,189.41 103.80,182.51 106.27,173.00
             107.34,168.55 108.75,163.76 110.52,158.62
             112.27,153.49 114.16,148.09 116.16,142.42
             118.60,135.83 121.02,128.97 123.39,121.84
             125.77,114.71 127.80,107.62 129.48,100.56
             131.17,93.50 132.32,86.60 132.94,79.86
             133.55,73.11 133.24,66.79 132.02,60.89
             130.80,54.98 128.46,49.58 125.00,44.67
             121.55,39.77 116.69,35.62 110.41,32.25
             103.81,28.56 96.91,26.99 89.70,27.53
             82.67,28.05 75.87,30.66 69.27,35.34
             69.11,35.46 63.32,40.21 63.13,40.40
             59.23,44.25 55.70,48.71 52.55,53.75
             49.25,59.04 46.61,64.56 44.61,70.31
             42.62,76.06 41.32,81.93 40.70,87.91
             40.10,93.89 40.33,99.56 41.41,104.94
             41.86,107.09 42.47,109.31 43.23,111.61
             44.00,113.90 45.08,116.12 46.45,118.27
             47.84,120.41 49.56,122.41 51.62,124.25
             53.49,125.91 55.77,127.26 58.44,128.29
             61.22,129.22 59.97,131.97 58.15,130.95 Z" />
</svg>
