<?xml version="1.0" encoding="UTF-8" standalone="no"?>
<!DOCTYPE svg PUBLIC "-//W3C//DTD SVG 20010904//EN"
              "http://www.w3.org/TR/2001/REC-SVG-20010904/DTD/svg10.dtd">

<svg xmlns="http://www.w3.org/2000/svg"
     width="33.3333in" height="1.33333in"
     viewBox="0 0 10000 400">
  <path id="W_cap_path_2"
        fill="none" stroke="black" stroke-width="1"
        d="M 50.40,125.95
           C 49.32,125.00 48.31,123.98 47.38,122.88
             43.08,117.81 40.25,111.84 38.88,104.94
             37.64,99.42 37.38,93.55 38.06,87.34
             38.75,81.14 40.16,75.01 42.31,68.95
             44.47,62.89 47.23,57.14 50.59,51.70
             53.97,46.26 57.88,41.46 62.33,37.31
             62.33,37.31 67.16,33.64 67.16,33.64
             70.99,30.73 75.32,28.46 80.16,26.86
             84.99,25.25 90.01,24.29 95.22,23.98
             100.44,23.67 105.61,24.02 110.75,25.02
             115.88,26.01 120.68,27.65 125.12,29.95
             134.48,35.02 141.14,42.07 145.12,51.11
             148.50,58.63 149.80,68.14 149.05,79.64
             148.27,89.91 146.12,100.53 142.59,111.50
             139.07,122.46 135.55,133.00 132.02,143.11
             129.71,149.40 127.45,155.58 125.23,161.64
             123.02,167.70 121.33,173.14 120.17,177.97
             119.02,182.79 118.60,186.74 118.91,189.81
             119.22,192.88 120.83,194.48 123.73,194.64
             126.35,194.95 129.07,194.06 131.91,192.00
             134.74,189.93 137.46,187.59 140.06,184.98
             147.88,177.16 156.02,166.20 164.45,152.09
             168.29,145.65 171.93,139.05 175.38,132.31
             178.82,125.56 182.00,119.05 184.92,112.77
             187.84,106.48 190.44,100.65 192.73,95.28
             195.04,89.92 196.95,85.39 198.48,81.70
             199.10,80.33 200.09,79.30 201.47,78.61
             202.85,77.91 204.39,77.49 206.08,77.34
             207.77,77.19 209.41,77.30 211.02,77.69
             212.63,78.06 213.97,78.64 215.05,79.41
             212.44,87.53 209.60,95.47 206.53,103.22
             203.47,110.96 200.48,118.86 197.56,126.91
             194.66,134.96 192.09,143.28 189.86,151.86
             187.64,160.45 186.07,169.57 185.16,179.23
             184.38,187.51 185.22,192.48 187.67,194.17
             190.13,195.86 194.04,194.71 199.41,190.73
             202.48,188.43 205.47,185.71 208.38,182.56
             211.29,179.42 214.36,175.39 217.58,170.48
             223.25,161.75 228.66,151.82 233.80,140.70
             238.93,129.59 243.95,118.28 248.86,106.78
             252.39,98.80 255.88,90.98 259.33,83.31
             262.77,75.65 266.22,68.59 269.67,62.16
             273.12,55.72 276.64,50.09 280.25,45.25
             283.85,40.42 287.57,36.78 291.41,34.33
             292.63,33.56 294.40,32.71 296.70,31.80
             299.00,30.88 301.46,30.80 304.06,31.56
             306.05,32.02 308.20,33.21 310.50,35.12
             312.80,37.04 314.03,39.23 314.19,41.69
             314.19,42.92 313.77,43.92 312.92,44.69
             312.08,45.45 311.04,45.83 309.81,45.83
             308.58,45.83 307.58,45.45 306.81,44.69
             306.05,43.92 305.67,42.92 305.67,41.69
             305.67,39.39 306.89,37.93 309.34,37.31
             307.51,35.48 305.59,34.33 303.59,33.86
             301.30,33.26 299.20,33.30 297.28,33.98
             295.36,34.67 293.79,35.40 292.56,36.17
             288.88,38.46 285.32,41.99 281.86,46.75
             278.41,51.50 274.96,57.06 271.52,63.42
             268.07,69.79 264.66,76.77 261.28,84.36
             257.91,91.95 254.53,99.73 251.16,107.70
             246.25,119.20 241.19,130.59 235.97,141.86
             230.76,153.12 225.24,163.12 219.42,171.86
             213.13,181.37 206.92,188.27 200.80,192.56
             198.95,194.09 196.65,195.48 193.89,196.70
             191.13,197.93 188.33,198.70 185.48,199.00
             182.65,199.31 179.97,199.09 177.44,198.33
             174.91,197.56 172.88,195.95 171.34,193.48
             167.05,185.82 168.43,169.80 175.48,145.42
             176.71,141.43 177.94,137.48 179.17,133.58
             180.40,129.66 181.70,125.71 183.08,121.73
             180.63,126.95 178.02,132.23 175.27,137.59
             172.50,142.96 169.59,148.17 166.52,153.23
             157.63,168.11 149.35,179.23 141.69,186.59
             133.09,194.87 125.04,199.00 117.53,199.00
             115.38,199.00 113.27,198.62 111.20,197.86
             109.13,197.09 107.48,195.63 106.27,193.48
             103.80,189.50 103.73,182.59 106.03,172.78
             107.10,168.34 108.52,163.54 110.28,158.41
             112.05,153.27 113.93,147.87 115.92,142.20
             118.37,135.61 120.78,128.75 123.16,121.62
             125.54,114.49 127.58,107.40 129.27,100.34
             130.95,93.28 132.10,86.38 132.70,79.64
             133.32,72.89 133.01,66.57 131.78,60.67
             130.56,54.77 128.22,49.36 124.77,44.45
             121.32,39.55 116.45,35.41 110.17,32.03
             105.72,29.73 101.47,28.27 97.41,27.66
             93.34,27.04 89.55,27.04 86.02,27.66
             82.49,28.27 79.27,29.31 76.36,30.77
             73.44,32.23 70.84,33.80 68.55,35.48
             68.55,35.48 63.48,39.84 63.48,39.84
             59.34,43.82 55.61,48.46 52.31,53.75
             49.02,59.04 46.38,64.56 44.39,70.31
             42.40,76.06 41.10,81.93 40.48,87.91
             39.87,93.89 40.10,99.56 41.17,104.94
             41.63,107.09 42.28,109.31 43.12,111.61
             43.97,113.90 45.08,116.16 46.45,118.39
             47.84,120.61 49.60,122.64 51.75,124.48
             53.80,125.97 52.11,127.48 50.40,125.95 Z" />
</svg>
