<?xml version="1.0" encoding="UTF-8" standalone="no"?>
<!DOCTYPE svg PUBLIC "-//W3C//DTD SVG 20010904//EN"
              "http://www.w3.org/TR/2001/REC-SVG-20010904/DTD/svg10.dtd">

<svg xmlns="http://www.w3.org/2000/svg"
     width="33.3333in" height="1.33333in"
     viewBox="0 0 10000 400">
  <path id="W_cap_path_1"
        fill="none" stroke="black" stroke-width="1"
        d="M 52.40,125.02
           C 54.40,126.61 56.72,127.88 59.34,128.84
             63.79,130.53 67.47,130.50 70.38,128.73
             73.29,126.98 75.59,124.02 77.28,119.88
             79.58,114.05 80.43,106.23 79.81,96.42
             79.20,86.61 77.12,75.95 73.59,64.45
             70.89,55.90 67.61,47.87 63.74,40.34
             63.65,40.17 62.15,36.97 62.06,36.80
             60.26,33.47 58.13,30.26 55.66,27.20
             53.05,23.98 50.10,21.37 46.80,19.38
             43.50,17.39 39.83,16.12 35.77,15.59
             31.70,15.05 27.30,15.62 22.55,17.31
             18.10,19.00 14.22,21.65 10.92,25.25
             7.63,28.84 5.37,32.79 4.14,37.09
             5.21,36.62 6.29,36.70 7.36,37.31
             8.43,37.93 9.12,38.81 9.42,39.97
             9.73,41.12 9.58,42.15 8.97,43.06
             8.35,44.14 7.43,44.83 6.20,45.14
             4.98,45.45 3.84,45.29 2.77,44.67
             1.54,44.06 0.84,43.10 0.69,41.80
             0.53,40.50 0.64,39.12 1.03,37.67
             1.41,36.21 1.99,34.80 2.75,33.42
             3.52,32.04 4.13,30.88 4.59,29.95
             6.44,26.73 8.81,23.82 11.72,21.22
             14.63,18.62 17.94,16.62 21.62,15.23
             26.38,13.40 30.89,12.68 35.19,13.06
             39.48,13.44 43.58,14.59 47.48,16.50
             51.40,18.42 55.00,20.91 58.30,23.98
             61.45,26.91 64.28,29.98 66.80,33.18
             66.92,33.34 68.81,35.84 68.94,36.02
             72.76,41.25 76.31,47.18 79.58,53.77
             82.95,60.59 85.71,67.76 87.86,75.27
             90.92,85.54 92.49,95.01 92.56,103.67
             92.64,112.34 91.23,119.28 88.31,124.48
             87.09,126.95 85.22,129.17 82.69,131.16
             80.16,133.15 76.66,134.14 72.22,134.14
             69.77,134.14 67.39,133.84 65.09,133.23
             59.57,131.88 54.92,129.66 51.15,126.58
             49.27,125.38 50.75,123.75 52.40,125.02 Z" />
</svg>
