<?xml version="1.0" encoding="UTF-8" standalone="no"?>
<!DOCTYPE svg PUBLIC "-//W3C//DTD SVG 20010904//EN"
              "http://www.w3.org/TR/2001/REC-SVG-20010904/DTD/svg10.dtd">

<svg xmlns="http://www.w3.org/2000/svg"
     width="33.3333in" height="1.33333in"
     viewBox="0 0 10000 400">
  <path id="X_cap_path_2"
        fill="none" stroke="black" stroke-width="1"
        d="M 162.14,119.15
           C 162.26,120.85 162.36,122.51 162.42,124.14
             162.50,126.06 162.55,128.01 162.55,130.00
             162.85,133.99 163.07,138.86 163.22,144.61
             163.38,150.36 163.68,156.34 164.14,162.55
             164.61,168.76 165.41,174.89 166.56,180.95
             167.72,187.01 169.44,192.37 171.73,197.05
             174.04,201.72 177.02,205.40 180.70,208.08
             184.39,210.77 189.07,211.80 194.73,211.19
             198.27,210.88 202.10,209.43 206.23,206.81
             210.38,204.21 214.91,201.07 219.81,197.39
             227.78,191.10 237.17,182.90 247.98,172.78
             258.80,162.66 271.95,149.93 287.44,134.59
             288.04,133.99 288.58,133.92 289.05,134.38
             289.35,134.99 289.27,135.53 288.81,135.98
             280.99,143.65 273.82,150.67 267.30,157.03
             260.79,163.39 254.77,169.14 249.25,174.28
             243.73,179.42 238.66,184.02 234.06,188.08
             229.47,192.14 225.18,195.78 221.19,199.00
             218.12,201.46 215.13,203.76 212.22,205.91
             209.30,208.05 206.23,209.93 203.02,211.53
             199.80,213.14 196.30,214.38 192.55,215.22
             188.80,216.06 184.62,216.25 180.02,215.80
             173.12,215.18 167.64,212.38 163.58,207.39
             159.52,202.41 156.37,196.01 154.14,188.19
             151.92,180.37 150.35,171.43 149.44,161.39
             148.52,151.35 147.68,141.04 146.91,130.45
             146.91,130.00 146.86,129.54 146.78,129.08
             146.71,128.62 146.39,124.51 146.37,124.19
             145.60,113.33 144.59,102.61 143.33,92.05
             142.02,81.16 139.99,71.27 137.23,62.38
             130.18,41.06 117.84,30.10 100.20,29.48
             95.15,29.48 90.29,30.18 85.61,31.56
             80.93,32.94 75.91,35.16 70.55,38.23
             70.55,38.23 64.09,42.38 64.09,42.38
             56.28,48.04 49.34,54.90 43.28,62.95
             37.23,71.01 32.52,79.25 29.14,87.69
             25.15,97.65 23.88,106.39 25.34,113.91
             26.75,121.14 30.61,126.11 36.93,128.78
             39.71,129.82 38.18,132.49 36.40,131.61
             34.04,130.48 31.96,129.06 30.17,127.36
             27.02,124.37 24.84,120.65 23.62,116.20
             21.48,108.08 22.62,98.42 27.06,87.22
             29.82,79.71 33.80,72.35 39.02,65.14
             44.23,57.93 50.22,51.49 56.97,45.81
             58.81,43.98 61.04,42.14 63.64,40.30
             63.64,40.30 69.84,36.16 69.84,36.16
             78.12,31.25 87.02,28.15 96.53,26.84
             106.04,25.54 114.86,25.96 122.98,28.11
             126.97,29.34 130.19,30.72 132.64,32.25
             135.10,33.78 136.94,35.09 138.16,36.16
             142.30,39.84 145.75,44.53 148.52,50.20
             151.27,55.87 153.54,62.20 155.30,69.17
             157.05,76.14 158.39,83.62 159.31,91.59
             160.20,99.25 160.95,107.06 161.55,115.00
             161.57,115.32 162.12,118.86 162.14,119.15 Z" />
</svg>
