<?xml version="1.0" encoding="UTF-8" standalone="no"?>
<!DOCTYPE svg PUBLIC "-//W3C//DTD SVG 20010904//EN"
              "http://www.w3.org/TR/2001/REC-SVG-20010904/DTD/svg10.dtd">

<svg xmlns="http://www.w3.org/2000/svg"
     width="33.3333in" height="1.33333in"
     viewBox="0 0 10000 400">
  <path id="X_cap_path_1"
        fill="none" stroke="black" stroke-width="1"
        d="M 37.66,129.08
           C 41.63,130.77 45.31,130.70 48.69,128.86
             52.06,127.02 55.13,124.02 57.89,119.88
             61.57,114.05 64.29,106.23 66.05,96.42
             67.82,86.61 68.32,75.95 67.55,64.45
             67.10,56.58 66.01,49.42 64.26,42.99
             64.20,42.78 63.56,39.96 63.51,39.79
             62.45,35.70 61.04,31.96 59.27,28.58
             57.43,25.05 55.09,22.17 52.25,19.95
             49.41,17.73 46.00,16.34 42.02,15.81
             38.04,15.27 33.36,15.92 27.98,17.77
             23.08,19.45 18.52,22.10 14.30,25.70
             10.09,29.30 6.83,33.25 4.53,37.55
             6.38,37.08 7.71,37.73 8.55,39.50
             9.39,41.26 9.20,42.83 7.98,44.20
             7.21,45.28 6.25,45.86 5.09,45.94
             3.95,46.01 2.99,45.74 2.23,45.12
             1.16,44.37 0.70,43.34 0.86,42.03
             1.01,40.72 1.42,39.30 2.11,37.77
             2.80,36.23 3.65,34.78 4.64,33.41
             5.64,32.02 6.45,30.95 7.06,30.19
             9.82,27.12 12.96,24.28 16.48,21.67
             20.02,19.07 23.70,17.07 27.53,15.69
             30.45,14.62 34.16,13.93 38.69,13.62
             43.21,13.31 47.77,14.39 52.38,16.84
             56.21,18.84 59.58,21.56 62.48,25.02
             65.26,28.30 67.62,31.83 69.55,35.59
             69.65,35.78 70.38,37.69 70.82,38.82
             73.14,43.89 75.00,49.51 76.41,55.72
             77.86,62.16 78.82,68.82 79.28,75.72
             79.74,85.99 78.93,95.46 76.86,104.12
             74.80,112.79 71.77,119.73 67.78,124.94
             65.94,127.40 63.52,129.62 60.53,131.61
             57.54,133.60 53.82,134.59 49.38,134.59
             46.93,134.59 44.55,134.29 42.25,133.69
             40.35,133.21 38.58,132.61 36.95,131.87
             34.78,130.93 35.84,128.27 37.66,129.08 Z" />
</svg>
