<?xml version="1.0" encoding="UTF-8" standalone="no"?>
<!DOCTYPE svg PUBLIC "-//W3C//DTD SVG 20010904//EN"
              "http://www.w3.org/TR/2001/REC-SVG-20010904/DTD/svg10.dtd">

<svg xmlns="http://www.w3.org/2000/svg"
     width="33.3333in" height="1.33333in"
     viewBox="0 0 10000 400">
  <path id="X_cap_path_3"
        fill="none" stroke="black" stroke-width="1"
        d="M 162.08,118.27
           C 164.68,116.58 167.40,114.90 170.23,113.22
             173.08,111.53 175.88,109.84 178.64,108.16
             189.68,101.71 200.26,95.38 210.38,89.17
             220.50,82.96 229.77,76.64 238.20,70.20
             242.65,66.67 246.60,63.34 250.05,60.20
             253.50,57.06 256.54,53.95 259.14,50.88
             262.20,47.36 264.66,43.95 266.50,40.66
             268.34,37.36 269.64,34.02 270.41,30.64
             270.72,29.87 270.41,29.48 269.48,29.48
             268.87,29.48 268.41,29.87 268.11,30.64
             265.35,41.98 254.92,54.64 236.83,68.59
             228.55,74.88 219.38,81.12 209.34,87.34
             199.30,93.55 188.76,99.88 177.72,106.31
             177.72,106.31 161.62,115.97 161.62,115.97
             161.62,115.97 146.44,125.17 146.44,125.17
             137.54,130.70 129.07,136.33 121.02,142.08
             112.97,147.83 105.77,153.70 99.41,159.67
             93.04,165.65 87.79,171.75 83.64,177.95
             79.50,184.16 76.90,190.49 75.83,196.94
             75.83,197.70 76.21,198.08 76.97,198.08
             77.74,198.08 78.12,197.70 78.12,196.94
             79.20,190.80 81.77,184.75 85.83,178.77
             89.89,172.79 94.95,166.92 101.00,161.17
             107.06,155.42 114.00,149.75 121.83,144.16
             129.65,138.55 137.93,132.99 146.67,127.47
             146.67,127.47 162.08,118.27 162.08,118.27 Z" />
</svg>
