<?xml version="1.0" encoding="UTF-8" standalone="no"?>
<!DOCTYPE svg PUBLIC "-//W3C//DTD SVG 20010904//EN"
              "http://www.w3.org/TR/2001/REC-SVG-20010904/DTD/svg10.dtd">

<svg xmlns="http://www.w3.org/2000/svg"
     width="33.3333in" height="1.33333in"
     viewBox="0 0 10000 400">
  <path id="Y_cap_path_1"
        fill="none" stroke="black" stroke-width="1"
        d="M 50.56,126.60
           C 53.08,128.71 55.86,130.42 58.88,131.72
             63.32,133.64 67.77,134.59 72.22,134.59
             76.66,134.59 80.16,133.60 82.69,131.61
             85.22,129.62 87.09,127.40 88.31,124.94
             91.07,119.73 92.41,112.79 92.34,104.12
             92.27,95.46 90.70,85.99 87.62,75.72
             85.48,68.21 82.75,61.04 79.45,54.22
             76.30,47.68 72.75,41.80 68.82,36.61
             68.65,36.38 66.63,33.71 66.47,33.52
             63.83,30.35 60.92,27.33 57.73,24.44
             54.36,21.37 50.71,18.91 46.80,17.08
             42.89,15.23 38.83,14.09 34.61,13.62
             30.40,13.17 26.07,13.86 21.62,15.69
             16.25,17.84 11.68,21.17 7.92,25.70
             4.17,30.23 1.91,35.17 1.16,40.53
             1.16,40.84 1.11,41.06 1.03,41.22
             0.96,41.38 1.00,41.61 1.16,41.91
             1.16,42.06 1.16,42.14 1.16,42.14
             1.16,43.52 1.77,44.59 2.98,45.36
             4.05,45.98 5.16,46.09 6.31,45.70
             7.47,45.32 8.35,44.67 8.97,43.75
             9.58,42.68 9.70,41.61 9.31,40.53
             8.93,39.46 8.27,38.62 7.36,38.00
             6.44,37.39 5.37,37.23 4.14,37.55
             5.37,33.25 7.63,29.34 10.92,25.81
             14.22,22.28 18.10,19.67 22.55,17.98
             26.84,16.30 31.02,15.73 35.08,16.27
             39.14,16.80 42.89,18.10 46.34,20.17
             49.79,22.25 52.89,24.86 55.66,28.00
             58.21,30.91 60.31,33.92 61.95,37.04
             62.08,37.28 63.69,40.44 63.80,40.63
             65.66,44.00 67.36,47.65 68.88,51.58
             70.49,55.71 71.99,60.09 73.38,64.69
             76.89,76.03 79.00,86.61 79.69,96.42
             80.38,106.23 79.58,114.05 77.28,119.88
             75.59,124.02 73.25,126.94 70.27,128.62
             67.27,130.31 63.55,130.31 59.11,128.62
             56.26,127.62 53.83,126.28 51.83,124.61
             50.48,123.56 49.19,125.66 50.56,126.60 Z" />
</svg>
