<?xml version="1.0" encoding="UTF-8" standalone="no"?>
<!DOCTYPE svg PUBLIC "-//W3C//DTD SVG 20010904//EN"
              "http://www.w3.org/TR/2001/REC-SVG-20010904/DTD/svg10.dtd">

<svg xmlns="http://www.w3.org/2000/svg"
     width="33.3333in" height="1.33333in"
     viewBox="0 0 10000 400">
  <path id="Y_cap_path_2"
        fill="none" stroke="black" stroke-width="1"
        d="M 51.41,124.25
           C 49.33,122.41 47.60,120.41 46.22,118.27
             44.84,116.12 43.77,113.94 43.00,111.72
             42.24,109.49 41.63,107.30 41.17,105.16
             40.10,99.79 39.87,94.12 40.48,88.14
             41.10,82.16 42.40,76.26 44.39,70.44
             46.38,64.61 49.02,59.09 52.31,53.88
             55.61,48.66 59.34,44.05 63.48,40.06
             63.48,40.06 68.31,35.94 68.31,35.94
             74.13,31.79 80.84,29.34 88.42,28.58
             96.02,27.81 103.27,29.11 110.17,32.48
             116.45,35.86 121.32,40.00 124.77,44.91
             128.22,49.81 130.56,55.18 131.78,61.00
             133.01,66.82 133.35,73.11 132.81,79.86
             132.28,86.61 131.17,93.44 129.48,100.34
             127.80,107.24 125.72,114.21 123.27,121.27
             120.82,128.32 118.45,135.14 116.16,141.73
             114.01,147.40 112.05,152.88 110.28,158.17
             108.52,163.46 107.10,168.34 106.03,172.78
             104.96,177.23 104.38,181.26 104.30,184.86
             104.22,188.46 104.88,191.41 106.27,193.70
             107.95,196.78 110.71,198.62 114.55,199.23
             118.68,199.85 122.59,199.62 126.27,198.55
             129.95,197.48 133.41,195.86 136.62,193.70
             142.14,190.03 147.09,185.51 151.45,180.14
             155.83,174.78 159.81,169.03 163.41,162.89
             167.01,156.76 170.30,150.51 173.30,144.14
             176.30,137.78 179.10,131.76 181.70,126.09
             185.08,118.89 188.56,111.41 192.16,103.67
             195.76,95.92 199.17,88.45 202.39,81.25
             205.62,74.04 208.61,67.45 211.38,61.47
             214.13,55.48 216.36,50.57 218.05,46.73
             217.58,55.48 216.73,65.71 215.50,77.45
             214.28,89.18 212.52,101.79 210.22,115.28
             207.91,128.77 205.04,142.73 201.59,157.14
             198.14,171.56 193.97,185.82 189.06,199.92
             184.16,214.02 178.44,227.59 171.92,240.62
             165.41,253.66 158.02,265.47 149.73,276.05
             144.97,281.88 139.83,287.59 134.31,293.19
             128.80,298.78 123.13,303.49 117.30,307.33
             111.47,311.16 105.61,313.77 99.70,315.14
             93.80,316.52 88.16,315.91 82.80,313.31
             78.80,311.31 75.82,309.05 73.83,306.52
             71.84,303.99 70.46,301.35 69.69,298.59
             68.93,295.83 68.70,293.03 69.00,290.19
             69.30,287.35 69.84,284.71 70.61,282.27
             73.21,274.13 78.31,265.61 85.91,256.72
             93.50,247.83 102.58,239.71 113.16,232.34
             124.20,224.53 135.08,218.86 145.81,215.33
             156.55,211.80 166.06,210.73 174.34,212.11
             175.10,212.57 175.48,212.26 175.48,211.19
             175.80,210.57 175.49,210.11 174.56,209.81
             165.22,208.43 154.95,209.73 143.75,213.72
             138.54,215.41 133.25,217.70 127.88,220.61
             122.51,223.52 117.14,226.83 111.78,230.52
             106.41,234.19 101.39,238.18 96.72,242.47
             92.04,246.76 87.82,251.09 84.06,255.45
             80.31,259.83 77.13,264.24 74.52,268.69
             71.91,273.13 69.92,277.43 68.55,281.56
             66.24,288.93 66.01,295.37 67.84,300.89
             70.14,307.17 74.82,312.00 81.88,315.38
             87.09,317.99 92.92,319.30 99.36,319.30
             99.36,319.30 102.34,319.30 102.34,319.30
             109.41,318.83 116.61,316.75 123.97,313.08
             131.02,309.55 138.04,304.80 145.02,298.81
             151.99,292.83 158.70,285.71 165.14,277.44
             171.27,269.77 177.18,261.14 182.84,251.56
             188.52,241.98 193.50,231.36 197.80,219.70
             203.32,204.52 207.95,190.42 211.70,177.39
             215.46,164.35 218.53,152.27 220.91,141.16
             223.29,130.04 225.17,119.89 226.55,110.69
             227.93,101.48 229.08,93.04 230.00,85.38
             230.77,78.32 231.42,72.16 231.95,66.88
             232.49,61.59 232.95,56.91 233.33,52.84
             233.71,48.77 234.02,45.20 234.25,42.14
             234.48,39.08 234.75,36.24 235.06,33.62
             225.55,33.01 220.03,35.09 218.50,39.84
             217.43,42.15 215.55,46.32 212.86,52.38
             210.18,58.43 207.04,65.41 203.44,73.31
             199.83,81.21 195.96,89.68 191.81,98.73
             187.68,107.78 183.61,116.51 179.62,124.94
             176.72,131.23 173.77,137.56 170.78,143.92
             167.79,150.28 164.57,156.41 161.11,162.31
             157.66,168.22 153.83,173.70 149.61,178.77
             145.40,183.82 140.61,188.03 135.23,191.41
             132.63,193.09 130.14,194.09 127.77,194.41
             125.39,194.71 123.44,193.56 121.91,190.95
             120.68,188.95 120.13,186.27 120.28,182.91
             120.44,179.53 121.05,175.70 122.12,171.41
             123.20,167.11 124.61,162.46 126.38,157.48
             128.14,152.51 130.02,147.26 132.02,141.73
             135.70,131.77 139.23,121.42 142.59,110.69
             145.97,99.95 148.04,89.52 148.81,79.41
             150.64,56.09 142.67,39.76 124.89,30.41
             120.44,28.11 115.65,26.50 110.52,25.58
             105.38,24.66 100.20,24.36 94.98,24.67
             89.77,24.98 84.75,25.89 79.92,27.42
             75.10,28.95 70.77,31.18 66.94,34.09
             66.94,34.09 62.33,37.77 62.33,37.77
             57.88,41.91 53.93,46.71 50.48,52.16
             47.04,57.59 44.27,63.34 42.20,69.41
             40.13,75.46 38.75,81.59 38.06,87.80
             37.38,94.01 37.64,99.87 38.88,105.39
             40.25,112.60 43.01,118.58 47.16,123.33
             48.09,124.35 49.06,125.30 50.08,126.18
             51.14,127.17 52.91,125.42 51.41,124.25 Z
           M 204.94,212.11
           C 204.16,211.80 203.82,211.38 203.89,210.84
             203.97,210.31 204.47,210.05 205.39,210.05
             218.42,209.89 230.54,201.84 241.73,185.89
             244.95,181.45 248.02,176.62 250.92,171.41
             253.84,166.19 256.52,161.20 258.97,156.45
             261.43,151.70 263.61,147.44 265.53,143.69
             267.45,139.93 268.87,137.20 269.80,135.52
             270.10,134.90 270.59,134.79 271.28,135.17
             271.97,135.56 272.08,136.14 271.62,136.91
             269.79,139.81 267.88,143.30 265.88,147.36
             263.88,151.42 261.74,155.68 259.44,160.12
             257.13,164.57 254.64,169.14 251.95,173.81
             249.27,178.49 246.41,182.98 243.34,187.27
             238.12,194.48 232.45,200.41 226.31,205.09
             220.19,209.77 213.06,212.11 204.94,212.11 Z" />
</svg>
