<?xml version="1.0" encoding="UTF-8" standalone="no"?>
<!DOCTYPE svg PUBLIC "-//W3C//DTD SVG 20010904//EN"
              "http://www.w3.org/TR/2001/REC-SVG-20010904/DTD/svg10.dtd">

<svg xmlns="http://www.w3.org/2000/svg"
     width="33.3333in" height="1.33333in"
     viewBox="0 0 10000 400">
  <path id="Z_cap_path_2"
        fill="none" stroke="black" stroke-width="1"
        d="M 28.52,171.41
           C 26.21,171.41 23.68,171.56 20.92,171.88
             18.17,172.18 15.53,172.79 13.00,173.70
             10.47,174.62 8.28,176.00 6.44,177.84
             4.60,179.69 3.53,182.14 3.22,185.20
             3.38,187.81 4.68,190.23 7.12,192.45
             9.58,194.67 13.41,195.86 18.62,196.02
             23.53,196.32 28.82,194.82 34.50,191.53
             39.99,188.34 45.77,183.97 51.83,178.41
             51.83,178.41 58.39,171.83 58.61,171.61
             63.15,166.99 67.72,161.90 72.33,156.34
             77.16,150.52 82.03,144.43 86.94,138.06
             91.84,131.70 96.71,125.18 101.55,118.52
             106.38,111.84 111.17,105.20 115.92,98.61
             122.36,89.71 128.57,81.25 134.55,73.20
             140.35,65.38 145.88,58.25 151.10,51.79
             151.25,51.61 153.52,48.76 153.69,48.56
             164.65,35.58 173.51,27.89 180.31,25.47
             185.53,23.64 189.75,24.17 192.97,27.08
             194.49,28.46 195.54,30.19 196.12,32.25
             196.62,34.24 194.18,34.96 193.71,33.30
             193.18,31.60 192.17,30.40 190.67,29.72
             188.98,29.11 187.18,29.53 185.27,30.98
             183.35,32.45 181.39,34.44 179.39,36.97
             177.40,39.50 175.37,42.18 173.30,45.02
             171.47,47.52 169.73,49.70 168.09,51.56
             167.87,51.80 165.31,54.12 165.17,54.29
             160.08,60.59 154.75,67.55 149.16,75.16
             143.41,82.98 137.54,91.11 131.56,99.53
             124.66,109.19 117.71,118.81 110.73,128.39
             103.77,137.98 96.75,146.98 89.70,155.42
             83.15,163.30 77.19,169.99 71.80,175.47
             71.63,175.64 63.24,183.55 63.24,183.55
             58.29,187.77 53.61,191.14 49.22,193.66
             47.07,194.90 44.20,196.06 40.59,197.14
             36.99,198.23 32.12,198.84 25.98,199.00
             23.69,199.00 21.12,198.92 18.28,198.77
             15.45,198.61 12.77,198.07 10.23,197.14
             7.70,196.21 5.55,194.82 3.80,192.95
             2.04,191.09 1.08,188.61 0.92,185.52
             0.92,183.50 1.49,181.44 2.64,179.34
             3.80,177.25 5.56,175.39 7.94,173.77
             10.31,172.14 13.22,170.90 16.67,170.05
             20.12,169.20 24.07,168.84 28.52,169.00
             31.66,169.03 31.62,171.88 28.52,171.41 Z" />
</svg>
