<?xml version="1.0" encoding="UTF-8" standalone="no"?>
<!DOCTYPE svg PUBLIC "-//W3C//DTD SVG 20010904//EN"
              "http://www.w3.org/TR/2001/REC-SVG-20010904/DTD/svg10.dtd">

<svg xmlns="http://www.w3.org/2000/svg"
     width="33.3333in" height="1.33333in"
     viewBox="0 0 10000 400">
  <path id="Z_cap_path_3"
        fill="none" stroke="black" stroke-width="1"
        d="M 29.53,169.06
           C 34.82,169.36 39.77,169.77 44.39,170.28
             49.30,170.82 53.82,171.48 57.95,172.27
             57.95,172.27 71.30,175.98 71.30,175.98
             75.74,177.38 79.80,178.89 83.48,180.52
             87.17,182.14 90.62,183.73 93.84,185.28
             101.35,188.84 107.94,191.37 113.61,192.84
             119.29,194.31 124.73,194.62 129.94,193.77
             135.16,192.91 140.45,190.98 145.81,187.95
             151.19,184.93 157.32,180.79 164.22,175.53
             172.04,169.55 179.44,162.96 186.41,155.75
             193.38,148.54 199.71,141.49 205.39,134.59
             206.00,133.98 206.54,133.90 207.00,134.36
             207.77,134.82 207.85,135.36 207.23,135.97
             200.18,144.71 193.16,152.61 186.19,159.66
             179.21,166.71 172.27,172.85 165.38,178.08
             156.63,184.59 148.43,189.55 140.77,192.95
             133.10,196.36 125.47,198.30 117.88,198.77
             110.28,199.23 102.42,198.27 94.30,195.88
             86.17,193.47 77.28,189.78 67.62,184.81
             67.62,184.81 63.94,182.95 63.94,182.95
             63.94,182.95 52.24,178.03 52.44,177.84
             48.45,176.16 44.46,174.74 40.47,173.59
             36.81,172.53 33.13,171.83 29.47,171.49
             26.94,171.53 26.94,168.84 29.53,169.06 Z" />
</svg>
