<?xml version="1.0" encoding="UTF-8" standalone="no"?>
<!DOCTYPE svg PUBLIC "-//W3C//DTD SVG 20010904//EN"
              "http://www.w3.org/TR/2001/REC-SVG-20010904/DTD/svg10.dtd">

<svg xmlns="http://www.w3.org/2000/svg"
     width="33.3333in" height="1.33333in"
     viewBox="0 0 10000 400">
  <path id="Z_cap_path_1"
        fill="none" stroke="black" stroke-width="1"
        d="M 196.30,32.95
           C 196.84,35.33 196.72,37.74 195.95,40.19
             194.88,43.56 192.93,46.45 190.09,48.83
             187.26,51.20 183.77,52.77 179.62,53.53
             175.79,54.15 171.11,54.23 165.59,53.77
             160.31,53.28 151.56,51.23 151.56,51.23
             151.56,51.23 138.23,47.52 131.33,45.14
             124.43,42.77 117.61,40.35 110.86,37.89
             102.89,34.98 95.41,32.41 88.44,30.19
             81.46,27.97 75.97,26.86 71.98,26.86
             65.24,26.86 60.34,28.54 57.27,31.91
             58.49,32.06 59.49,32.56 60.25,33.41
             61.02,34.25 61.41,35.21 61.41,36.28
             61.41,37.51 60.98,38.51 60.14,39.28
             59.30,40.04 58.27,40.42 57.05,40.42
             55.82,40.42 54.82,40.04 54.05,39.28
             53.29,38.51 52.91,37.51 52.91,36.28
             52.91,34.91 53.36,33.53 54.28,32.16
             55.20,30.77 56.27,29.62 57.50,28.69
             60.88,25.93 65.70,24.55 71.98,24.55
             76.13,24.55 81.65,25.66 88.55,27.89
             95.45,30.11 103.12,32.76 111.55,35.83
             118.45,38.28 125.47,40.70 132.59,43.08
             139.73,45.45 146.59,47.48 153.19,49.16
             153.19,49.16 162.84,51.94 167.44,52.27
             172.04,52.73 175.95,52.65 179.17,52.03
             184.38,50.96 187.98,49.12 189.97,46.52
             191.97,43.90 193.20,41.83 193.66,40.30
             194.27,38.15 194.35,36.05 193.89,33.98
             193.22,31.76 195.80,30.64 196.30,32.95 Z" />
</svg>
